<?xml version="1.0" encoding="utf-8"?>
<!-- Generator: Adobe Illustrator 22.0.1, SVG Export Plug-In . SVG Version: 6.00 Build 0)  -->
<svg version="1.1" id="Layer_1" xmlns="http://www.w3.org/2000/svg" xmlns:xlink="http://www.w3.org/1999/xlink" x="0px" y="0px"
	 viewBox="0 0 674 561" style="enable-background:new 0 0 674 561;" xml:space="preserve">
<style type="text/css">
	.st0{fill:none;}
</style>
<g>
	<path class="st0" d="M382,131c0.6,0,1.2,0,1.8-0.1c-0.1-0.2-0.2-0.4-0.3-0.6c-0.1-0.3-0.3-0.6-0.4-0.9c-0.6,0.3-1.2,0.7-1.8,1.1
		c-0.3,0.2-0.6,0.4-0.9,0.6L382,131z"/>
	<path class="st0" d="M368.1,128.6c-0.2,0.1-0.3,0.2-0.5,0.2c-0.1,0-0.1,0.1-0.2,0.1c0.1,0,0.2,0,0.3-0.1c-0.3,0.1-0.5,0.2-0.7,0.3
		l0,0c-0.1,0.1-0.2,0.1-0.3,0.2c-0.3,0.2-0.5,0.5-0.8,0.7c0.1,0,0.2,0.1,0.3,0.1s0.1,0,0.2,0c0.5-0.2,1-0.5,1.5-0.7
		c0.3-0.1,0.6-0.2,0.9-0.2l-0.2-0.2C368.5,129,368.3,128.8,368.1,128.6z"/>
	<path class="st0" d="M361.9,132.2l-0.1-0.1l0,0c-0.2,0.2-0.4,0.3-0.6,0.5c0.2-0.2,0.3-0.4,0.5-0.5l-0.5-0.2
		c-0.3,0.1-0.5,0.3-0.7,0.4c-0.1,0.1-0.1,0.2-0.2,0.3c0.1,0,0.1,0.1,0.2,0.1c0.2,0.2,0.3,0.4,0.5,0.5c0.2-0.2,0.4-0.4,0.7-0.6
		C361.6,132.4,361.7,132.3,361.9,132.2z"/>
	<path class="st0" d="M385.9,58.7C385.9,58.7,385.8,58.7,385.9,58.7L385.9,58.7z"/>
	<path class="st0" d="M377.4,129c-0.4,0.1-0.8,0.3-1.1,0.4c0.7,0,1.3,0,2,0c-1.1,0.1-2.2,0.4-3.3,0.7c-0.3,0.2-0.6,0.3-1,0.5
		c0.1,0.1,0.3,0.2,0.4,0.4c0.1,0.1,0.2,0.2,0.2,0.3c0.4,0,0.9,0.1,1.3,0.2c0.1,0,0.2,0,0.3,0.1c0.1,0,0.1,0,0.2,0l1.6-0.2l0,0
		c0.5-0.3,1-0.5,1.5-0.8c0.2-0.1,0.4-0.2,0.6-0.2c0-0.1,0-0.1,0.1-0.2c0,0,0,0.1,0,0.2c0.2-0.1,0.4-0.2,0.6-0.2
		c-0.5-0.2-1.1-0.3-1.6-0.4c-0.3-0.1-0.6-0.2-0.9-0.2C377.9,129.2,377.7,129.1,377.4,129z"/>
	<path class="st0" d="M378.7,134v-0.1c-0.2-0.1-0.3-0.1-0.5-0.2c-0.5-0.2-1-0.3-1.4-0.3c0.2,0,0.5-0.1,0.7-0.2l-0.8,0.2
		c-0.1,0.1-0.3,0.1-0.4,0.2c0.3,0.5,0.5,1,0.7,1.5c0.1,0.1,0.1,0.2,0.1,0.4c0.3-0.3,0.5-0.6,0.8-0.9
		C378.2,134.4,378.4,134.2,378.7,134L378.7,134z"/>
	<path class="st0" d="M373.9,134.7c-0.4,0.1-0.9,0.1-1.3,0.1c0.2,0.3,0.4,0.5,0.6,0.8c0.3-0.3,0.7-0.6,1-1
		C374.1,134.6,374,134.7,373.9,134.7z"/>
	<path class="st0" d="M386.5,133.7c-0.1-0.1-0.2-0.2-0.4-0.3c-0.3,0.2-0.6,0.3-0.9,0.5c-0.2,0.1-0.3,0.2-0.5,0.2
		c0.1,0,0.1,0,0.2-0.1l1.3-0.3L386.5,133.7z"/>
	<path class="st0" d="M388.1,131.5c-0.4,0.1-0.9,0.2-1.3,0.4c-0.2,0.1-0.4,0.3-0.5,0.4h0.1c0.1-0.1,0.2-0.2,0.3-0.2
		c0.2-0.1,0.4-0.2,0.5-0.2c0.2-0.1,0.4-0.1,0.6-0.1c0.4-0.1,0.8-0.1,1.2-0.3c-0.3,0.2-0.6,0.6-0.9,0.9c-0.1,0.1-0.3,0.3-0.4,0.4
		c0.1,0,0.1,0,0.2,0c-0.1,0-0.2,0.1-0.3,0.1c-0.1,0.1-0.3,0.2-0.4,0.3c-0.2,0.1-0.4,0.2-0.5,0.2s-0.2,0.1-0.3,0.1
		c0.1,0.1,0.1,0.3,0.2,0.4l0.6-0.1c0.3-0.2,0.6-0.4,0.9-0.6c0.3-0.2,0.7-0.3,1-0.5c0.3-0.1,0.7-0.1,1-0.2c0.1,0,0.2,0,0.3,0.1
		c0-0.2,0-0.5,0-0.7s0-0.5,0.1-0.7v-0.1c-0.3,0.1-0.5,0.1-0.8,0.2C389.1,131.2,388.6,131.3,388.1,131.5z"/>
	<path class="st0" d="M381.1,170.2l-3.4-0.4l-3.4-0.3l-3.4-0.1h-2.7c-1,0.9-2,2-2.6,3.2c-0.8,1.5-0.9,3.2-0.1,4.5
		c0.5,0.9,1.4,1.6,2.3,2.1h0.5l2.6,0.2l2.6,0.1l2.6,0.1h1.7c0.3,0,0.5-0.1,0.8-0.1c1.6-0.2,3.1-0.7,4.4-1.6c1.3-0.9,2.4-2.2,2.6-3.8
		c0.1-1-0.1-2.1-0.7-3l-0.4-0.1L381.1,170.2z M378,173.3c-0.4,1-1.2,1.6-2,2.1c-0.9,0.4-1.8,0.6-2.7,0.6s-1.9-0.3-2.6-1
		c-0.7-0.6-1.1-1.6-0.9-2.5c0.2-0.9,0.9-1.6,1.7-1.8c-0.9,0.1-1.5,1-1.5,1.8s0.5,1.5,1.1,2c0.6,0.4,1.4,0.6,2.2,0.5
		c0.8,0,1.6-0.2,2.2-0.6c0.7-0.3,1.3-0.9,1.6-1.5s0.2-1.4-0.2-1.9c-0.5-0.6-1.2-1-2.1-1.1c-0.8-0.2-1.7-0.1-2.6,0
		c0.8-0.1,1.7-0.3,2.6-0.3c0.9,0,1.8,0.3,2.5,0.9C378.1,171.1,378.4,172.3,378,173.3z"/>
	<path class="st0" d="M375,62.9c-0.7,0.1-1.4,0.1-2.1,0.2c-0.2,0.5-0.4,0.9-0.6,1.4C373.2,64,374.1,63.5,375,62.9z"/>
	<path class="st0" d="M441.5,133c0,0.1,0.1,0.2,0.1,0.3c0-0.3,0-0.6,0.1-1c0-0.4,0-0.8,0-1.2c-0.3,0.5-0.5,1-0.5,1.4
		C441.3,132.6,441.4,132.8,441.5,133z"/>
	<path class="st0" d="M384.4,96.6c0.1,0.1,0.3,0.1,0.4,0.2c0.1,0,0.2-0.1,0.3-0.1C384.9,96.7,384.7,96.6,384.4,96.6z"/>
	<path class="st0" d="M364.7,82.5c-0.9,0.1-1.8,0.2-2.7,0.3c0.2,0.1,0.4,0.3,0.5,0.4c0.7-0.2,1.3-0.4,2-0.7
		C364.6,82.6,364.7,82.5,364.7,82.5z"/>
	<path class="st0" d="M252.2,71.7L252.2,71.7L252.2,71.7L252.2,71.7L252.2,71.7z"/>
	<path class="st0" d="M384.7,32c-0.2-0.3-0.5-0.5-0.7-0.8l0,0c-0.4-0.2-0.8-0.4-1.2-0.6C383.5,31.1,384.1,31.6,384.7,32z"/>
	<path class="st0" d="M199.3,183.1c-0.1-0.5-0.2-1.1-0.3-1.6l-0.1-0.7c-0.1,0-0.1-0.1-0.2-0.1c0,1.3,0,2.7,0,4
		C198.9,184.2,199.1,183.7,199.3,183.1C199.3,183.2,199.3,183.2,199.3,183.1z"/>
	<path class="st0" d="M188.9,140.5c0-0.1,0-0.1,0.1-0.2c-0.1,0-0.1-0.1-0.2-0.1C188.9,140.3,188.9,140.4,188.9,140.5z"/>
	<path class="st0" d="M314.9,112.5c-0.3,0.3-0.7,0.5-1,0.8c0.7-0.1,1.3-0.3,2-0.4c0.5-0.1,0.9-0.2,1.4-0.3c-0.3-0.4-0.5-0.8-0.7-1.2
		c-0.1-0.2-0.1-0.1-0.2-0.2c-0.1-0.1-0.2-0.1-0.2-0.1c-0.1,0-0.1,0.2-0.1,0.2v0.1l0.1-0.1l-0.3,0.3
		C315.4,112,315.1,112.3,314.9,112.5z"/>
	<path class="st0" d="M271.9,168.2l-3,0.5l-0.4,0.1c-0.2,0.2-0.3,0.4-0.4,0.7c-0.3,0.8,0,1.7,0.6,2.3c0.6,0.6,1.3,1,2.2,1.1
		c0.8,0.1,1.7,0.1,2.6,0s1.8-0.2,2.6-0.5c0.8-0.3,1.5-0.7,2-1.4c0.5-0.7,0.8-1.6,0.4-2.4c-0.2-0.4-0.5-0.8-0.9-1l-2.6,0.3
		L271.9,168.2z"/>
	<path class="st0" d="M342.1,238.4c-1-0.6-2.5-0.7-4-0.7c-0.7,0-1.5,0-2.2,0c-0.1,1.4,0.5,2.9,1.5,3.9c1,1.1,2.5,1.6,3.8,1.4
		c1.3-0.1,2.3-1.1,2.5-2.1C343.9,240,343.2,238.9,342.1,238.4z"/>
	<path class="st0" d="M266.1,132c-0.1,0-0.2,0-0.3,0c0.1,0.1,0.3,0.1,0.6,0.2C266.3,132.2,266.2,132.1,266.1,132z"/>
	<path class="st0" d="M277.3,132.2c-0.1-0.3-0.3-0.6-0.4-1c-0.1-0.3-0.2-0.5-0.4-0.8c-0.1,0.1-0.3,0.3-0.4,0.4
		c0.1,0.1,0.1,0.3,0.2,0.4c0.1,0.2,0.2,0.4,0.2,0.6c0.1,0.1,0.2,0.2,0.3,0.2c0.2,0.2,0.3,0.3,0.5,0.5L277.3,132.2z"/>
	<path class="st0" d="M274.1,133.5c0,0.1,0,0.2,0,0.3c0.2,0.2,0.5,0.3,0.7,0.5c0.2,0.1,0.3,0.3,0.5,0.4c0-0.2,0-0.5-0.1-0.7
		c-0.1,0-0.2-0.1-0.3-0.1C274.6,133.7,274.4,133.6,274.1,133.5z"/>
	<path class="st0" d="M246.9,134.1c-0.1-0.1-0.2-0.2-0.3-0.3c-0.1,0.1-0.1,0.2-0.2,0.2C246.5,134.1,246.7,134.1,246.9,134.1z"/>
	<path class="st0" d="M356.9,134.6l-0.5,0.3c-0.1,0-0.2,0.1-0.3,0.1c0.1,0,0.2,0.1,0.3,0.1c0.1-0.1,0.1-0.2,0.2-0.2
		C356.8,134.8,356.8,134.7,356.9,134.6z"/>
	<path class="st0" d="M264.5,132.3c-0.1,0-0.1,0.1-0.2,0.1c0,0,0.1,0,0.1,0.1c0.2,0.2,0.5,0.4,0.7,0.6c0.2,0.2,0.3,0.3,0.5,0.5
		c0-0.2,0.1-0.5,0.1-0.8s0-0.5,0-0.7C265.3,132.1,264.9,132.2,264.5,132.3z"/>
	<path class="st0" d="M286.1,132.1c0-0.3-0.1-0.5-0.1-0.8v-0.5l-0.1-0.1c-0.3-0.2-0.7-0.4-1-0.6l-0.1-0.1c0.1,0.3,0.2,0.6,0.2,0.9
		c0,0.1,0,0.3,0,0.4c0.2,0.2,0.5,0.5,0.7,0.8c0.2,0.4,0.4,0.7,0.5,1.1C286.2,132.9,286.2,132.5,286.1,132.1z"/>
	<path class="st0" d="M245.9,135.2c0.1,0.1,0.1,0.2,0.2,0.3s0.1,0.3,0.2,0.4c0.3-0.4,0.7-0.8,1-1.1l0,0c0,0-0.1,0-0.1-0.1
		c-0.3-0.2-0.6-0.4-1-0.6c-0.1,0.2-0.3,0.4-0.4,0.7c0,0.1-0.1,0.2-0.1,0.2C245.8,135.1,245.9,135.2,245.9,135.2z"/>
	<path class="st0" d="M292.9,133.8v-0.1c-0.1,0-0.1-0.1-0.2-0.1v0.1C292.8,133.7,292.8,133.8,292.9,133.8L292.9,133.8z"/>
	<path class="st0" d="M292.7,133.7c0,0.4-0.1,0.9-0.2,1.3c-0.1,0.7-0.3,1.4-0.4,2.1c0.4-0.5,0.5-1.1,0.6-1.7c0-0.3,0.1-0.6,0.1-0.9
		c0-0.3,0-0.5,0.1-0.8C292.8,133.8,292.8,133.8,292.7,133.7z"/>
	<path class="st0" d="M245.8,136.1c-0.1,0-0.2,0-0.3,0h-0.1c0,0,0,0.1-0.1,0.1c-0.2,0.5-0.5,0.8-0.7,1.2c0.1,0,0.3,0,0.4,0
		c0.4-0.3,0.7-0.7,1-1.1c0.1-0.1,0.1-0.1,0.2-0.2C246,136.1,245.9,136.1,245.8,136.1z"/>
	<path class="st0" d="M371.4,131.9l-1.3,0.5l0,0c0.3,0,0.6-0.1,0.9-0.1c0.3-0.2,0.5-0.3,0.8-0.5c0,0,0,0,0.1,0l-0.1-0.1
		C371.7,131.7,371.6,131.8,371.4,131.9z"/>
	<path class="st0" d="M369.1,133c-0.1,0-0.1-0.1-0.2-0.1l-0.7,0.2l0,0l0.7-0.1C369,133,369.1,133,369.1,133z"/>
	<path class="st0" d="M372.5,131.4c0,0.1,0.1,0.1,0.1,0.2c0.2-0.1,0.4-0.2,0.6-0.2c0.1,0,0.1,0,0.2,0c-0.1-0.1-0.1-0.2-0.2-0.3
		C372.9,131.1,372.7,131.3,372.5,131.4z"/>
	<path class="st0" d="M370.6,132.7l0.1-0.1c-0.1,0-0.1,0-0.2,0C370.5,132.7,370.5,132.7,370.6,132.7z"/>
	<path class="st0" d="M362.9,131.4L362.9,131.4C362.8,131.4,362.8,131.5,362.9,131.4C362.9,131.5,362.9,131.5,362.9,131.4z"/>
	<path class="st0" d="M398.8,136.7L398.8,136.7L398.8,136.7L398.8,136.7z"/>
	<path class="st0" d="M397.5,137.6L397.5,137.6L397.5,137.6c0.2-0.1,0.4-0.2,0.6-0.3C397.9,137.4,397.7,137.5,397.5,137.6z"/>
	<path class="st0" d="M237.4,142.1c0.2-0.1,0.5-0.2,0.7-0.2c0.1,0,0.1,0,0.2,0l0,0c-0.3-0.1-0.5-0.2-0.8-0.2
		C237.5,141.8,237.5,141.9,237.4,142.1C237.4,142,237.4,142.1,237.4,142.1z"/>
	<path class="st0" d="M395,136.7C395,136.7,395,136.8,395,136.7s-0.1-0.3-0.2-0.4c-0.2,0.2-0.4,0.4-0.6,0.6h0.1
		C394.5,136.8,394.7,136.8,395,136.7z"/>
	<path class="st0" d="M311.4,115c-0.1,0.1-0.2,0.1-0.3,0.2c0.2-0.1,0.3-0.1,0.5-0.2H311.4z"/>
	<path class="st0" d="M435.1,207.7c-0.5-0.1-1-0.2-1.6-0.3c-0.2,1.1-0.4,2.3-0.4,3.5c0.2-0.4,0.4-0.7,0.6-1.1c0.5-0.8,1-1.5,1.6-2.1
		C435.3,207.7,435.2,207.7,435.1,207.7z"/>
	<path class="st0" d="M382.1,27.7c0-0.1-0.1-0.2-0.1-0.3c-0.5-0.1-1-0.1-1.6-0.2l-0.6-0.1c0.8,0.4,1.7,0.8,2.5,1.3
		C382.2,28.2,382.1,27.9,382.1,27.7z"/>
	<path class="st0" d="M438.9,83.6v0.1c0.2,0.1,0.4,0.3,0.6,0.4C439.3,84,439.1,83.8,438.9,83.6z"/>
	<path class="st0" d="M385.1,32.3c2.9,2.2,5.7,4.5,8.4,6.8c1.9,0.2,3.8,0.4,5.7,0.6c-2-1.2-4-2.4-6-3.6c-2.8-1.6-5.6-3.1-8.4-4.5
		C384.9,31.9,385,32.1,385.1,32.3z"/>
	<path class="st0" d="M211,114.3c0-0.1,0.1-0.1,0.1-0.2c-0.1,0.1-0.2,0.1-0.3,0.2C210.9,114.4,210.9,114.3,211,114.3z"/>
	<path class="st0" d="M460.8,178.9c-0.4-0.5-0.8-1-1.2-1.5c-0.3-0.4-0.6-0.8-0.9-1.1c-0.2,0.4-0.3,0.8-0.4,1.2v0.1
		c0.5,1.5,0.8,2.5,1.4,3.5c0.6-0.5,1.3-0.9,2-1.2C461.4,179.6,461.1,179.3,460.8,178.9z"/>
	<path class="st0" d="M439.3,78.1c0,0.5,0,1,0,1.5c0.6,0.4,1.3,0.7,2,1.1c-0.4-0.6-0.8-1.1-1.2-1.7
		C439.7,78.6,439.5,78.4,439.3,78.1z"/>
	<path class="st0" d="M439.9,262.3c1.8-2.1,3.1-4.5,3.9-7.1c0.8-2.6,1.1-5.3,0.8-8.1c-0.2-2.7-0.7-5.5-0.9-8.3
		c-0.1-1.4-0.1-2.8,0.1-4.3c0.2-1.4,0.5-2.8,1-4.1c0.8-2.7,1.9-5.3,2.1-8.1c0-0.5,0-1,0-1.4c-1.4,0-2.6-0.1-3.6-0.3
		c-1.2-0.5-2-0.8-3.3-1.5c-1-0.6-2.7-0.8-4.2-0.2c-0.8,0.3-1.4,0.7-1.9,1.4c-0.5,0.6-0.7,1.5-0.4,2.3c-0.3-0.7-0.7-1.5-1-2.4
		s-0.5-2-0.7-3.1c-0.1-1.2,0-2.4,0.3-3.6c-1-1.5-2-3-3-4.6c0.6,6.4,1.5,12.7,2.9,19c0.3-1.9,0.6-3.7,0.9-5.6
		c-0.3,1.9-0.6,3.9-0.9,5.8c0.6,2.8,1.3,5.6,2.1,8.4c-0.8-2.6-1.5-5.2-2.2-7.7c-0.4,2.8-0.8,5.5-1.2,8.3c-0.7,4.9-1.5,9.8-2.1,14.7
		c-0.7,4.9-1.3,9.8-2,14.7c-0.1,0.9-0.3,1.9-0.4,2.8C431.5,268.8,436.6,266.3,439.9,262.3z M432.5,239c-0.6,1.2-1.2,2.6-1.1,4
		c0,1.3,0.8,2.7,2.1,3c1.3,0.2,2.8,0.4,4.1,0.6c0.7,0.1,1.3,0.1,1.8,0c0.5-0.2,0.8-0.6,1-1.1c0.4-1.1-0.2-2.4-0.7-3.6
		c-0.6-1.3-1-2.8-1-4.2c-0.2-2.9,0.7-5.8,2.2-8.1c-1.5,2.4-1.9,5.3-1.5,8c0.2,1.4,0.6,2.6,1.3,3.9c0.3,0.6,0.6,1.3,0.9,2
		c0.2,0.7,0.3,1.6,0,2.4c-0.2,0.8-0.9,1.6-1.7,1.8c-0.8,0.3-1.6,0.1-2.4,0c-1.4-0.3-2.7-0.6-4.2-1c-0.7-0.2-1.4-0.8-1.7-1.5
		s-0.5-1.4-0.4-2.1C431.2,241.6,431.9,240.3,432.5,239z"/>
	<path class="st0" d="M461,196.5c0.1,0.1,0.2,0.2,0.3,0.3c-0.1-0.3-0.1-0.6-0.2-0.9c0-0.1,0-0.2,0-0.3c0,0.1,0,0.2-0.1,0.3
		C461,196.1,461,196.3,461,196.5z"/>
	<path class="st0" d="M463.1,200v0.1V200h0.3c0.1,0,0.1-0.1,0.2-0.1c0,0,0.2-0.1,0-0.1s-0.4,0-0.5-0.1H463
		C463,199.8,463.1,199.9,463.1,200z"/>
	<path class="st0" d="M358.9,110.5l1.1,0.9l0.3,0.2c0.1,0,0.2,0.2,0.1,0.1l-0.5-1.1h-0.5C359.2,110.5,359.1,110.5,358.9,110.5z"/>
	<path class="st0" d="M460.5,209.7c-0.2-0.3-0.4-0.5-0.6-0.8c-0.1,0.4-0.1,0.8-0.2,1.3C459.9,210.1,460.2,209.9,460.5,209.7z"/>
	<path class="st0" d="M346.2,112.5c-0.1,0.1-0.2,0.2-0.3,0.3l-0.4,0.4c-0.7,0.7-1.7,1.7-3.2,3.1c-0.5,0.5-1.1,0.9-1.8,1.4
		c0,0.1,0.1,0.2,0.1,0.3s0,0.3,0,0.4c0,0.1-0.1,0.3-0.1,0.4c-0.1,0.1-0.1,0.2-0.2,0.4c-0.1,0.2-0.3,0.4-0.4,0.6
		c0.6-0.3,1.1-0.6,1.7-0.9c0.5-0.3,1.1-0.5,1.6-0.8l0.6-0.3c0.5-0.7,0.9-1.5,1.4-2.3c0.2-0.4,0.5-0.8,0.8-1.2l0.9-1.2l1-1.1
		c0.3-0.3,0.5-0.5,0.8-0.8c-0.7,0.2-1.3,0.5-1.7,0.8C346.6,112.1,346.4,112.3,346.2,112.5z"/>
	<path class="st0" d="M376.3,115c-0.5-0.3-1-0.6-1.5-0.8c0.4,0.2,0.8,0.3,1.2,0.5c-0.2-0.2-0.3-0.4-0.5-0.6l-3.2-0.8
		c-1-0.3-2.1-0.6-3.1-0.9c1.8,1.5,3.5,3.1,5.3,4.5c1.7,1.4,3.9,2.5,5.9,2.2c0.2,0,0.4-0.1,0.7-0.2c-1.3-0.8-2.5-1.7-3.5-2.7
		C377,115.8,376.6,115.4,376.3,115z"/>
	<path class="st0" d="M207.2,182.7C207.2,182.7,207.1,182.8,207.2,182.7c0,0.1,0.1,0.2,0.3,0.3C207.4,182.9,207.3,182.8,207.2,182.7
		z"/>
	<path class="st0" d="M317.1,15.2l1.9,0.1h0.7l0,0c0.1,0.1,0.3,0.2,0.5,0.2c0.1,0,0.2,0,0.3,0c0.1,0-0.1,0.1-0.1,0.1l-0.2,0.1
		c0.1,0,0,0,0.2-0.1l1.1-0.6c0.6-0.3,1.2-0.6,1.8-0.9c-3.6,0.1-7.2,0.5-10.8,1.1C314.1,15.2,315.7,15.1,317.1,15.2z"/>
	<path class="st0" d="M374.4,112.6c-0.1-0.2-0.3-0.4-0.4-0.6c-1.7-0.2-3.4-0.4-5.1-0.6c1.2,0.2,2.4,0.5,3.6,0.7L374.4,112.6z"/>
	<path class="st0" d="M200,181.6c0-0.1,0.1-0.1,0.1-0.2H200v0.1V181.6z"/>
	<path class="st0" d="M207,139.1c0,0-0.1,0-0.1,0.1c0.1,0.2,0.3,0.5,0.4,0.7c0.1-0.3,0.1-0.6,0.2-1C207.3,139,207.1,139,207,139.1z"
		/>
	<path class="st0" d="M428.1,147.5c0-0.1-0.1-0.2-0.2-0.3c-0.1-0.3-0.1-0.6-0.2-0.9c-0.5-0.6-0.9-1.1-1.4-1.7
		c0.4,1.4,0.8,2.8,1.1,4.2C427.6,148.4,427.8,148,428.1,147.5z"/>
	<path class="st0" d="M447.8,202.7c-0.1,0-0.1,0.1-0.2,0.1c0.2,0,0.4,0.1,0.5,0.1C448,202.8,447.9,202.8,447.8,202.7z"/>
	<path class="st0" d="M218.5,116.2c-0.3,0.4-0.6,0.8-0.9,1.2C217.9,117,218.2,116.6,218.5,116.2z"/>
	<path class="st0" d="M252.8,34.9c0.1,0,0.2-0.1,0.3-0.1c0.1-0.1,0.2-0.1,0.2-0.2C253.1,34.7,253,34.8,252.8,34.9z"/>
	<path class="st0" d="M230.7,116l-0.5,0.1c-0.4,0.1-0.8,0.2-1.2,0.3c-0.6,3.2-0.8,6.4-0.9,9.5c0,1.2,0,2.3,0,3.5c0,0,0,0.1,0.1,0.1
		l0.3-2.1c0.5-3.3,0.9-6.6,2.1-9.8v-0.1C230.6,117,230.6,116.5,230.7,116z"/>
	<path class="st0" d="M184.9,128.6c0.1,0,0.2-0.1,0.3-0.1c0-0.1,0-0.2,0-0.3c0.1-0.7,0.3-1.3,0.5-2c-0.2-0.7-0.4-1.3-0.5-2
		c0,0.1,0,0.2-0.1,0.2c-0.2,0.8-0.4,1.5-0.6,2.2l-0.7,2.2l-0.2,0.4c0.1,0,0.1-0.1,0.2-0.1C184.2,129,184.4,128.8,184.9,128.6z"/>
	<path class="st0" d="M288.3,19.3c-0.6,0-1.3,0-1.9-0.1l-0.7,0.5l-0.8,0.5c1.2-0.3,2.4-0.6,3.5-0.9
		C288.4,19.3,288.4,19.3,288.3,19.3z"/>
	<path class="st0" d="M190.4,141.1c-0.4-0.2-0.8-0.5-1.2-0.7c0,0.2,0,0.3,0,0.5c0.4,0.9,0.8,1.7,1.2,2.6c0.2-0.7,0.3-1.4,0.6-2
		C190.7,141.3,190.6,141.2,190.4,141.1z"/>
	<path class="st0" d="M216.5,251.8c-0.2,0.2-0.4,0.3-0.5,0.5l-0.5,0.5l-0.5,0.4c-0.2,0.1-0.4,0.3-0.6,0.5c-0.4,0.3-0.8,0.7-1,1.2
		c0.1-0.5,0.2-1,0.4-1.5c0.1-0.3,0.2-0.5,0.4-0.7c0.2-0.2,0.3-0.4,0.5-0.6s0.4-0.3,0.7-0.5c0.3-0.1,0.5-0.2,0.8-0.3
		c0.5-0.1,1.1-0.1,1.5-0.2c0-0.5-0.1-0.9-0.1-1.4c-0.2-3-0.3-6.1-0.5-9.1c-1.1,0-2.1,0.4-2.9,1.1c-1.1,0.9-1.5,2.4-1.3,3.8
		c0.1,0.3,0.2,0.7,0.3,1c0.1-0.2,0.2-0.4,0.3-0.5c-0.1,0.2-0.2,0.4-0.3,0.6c0.1,0.3,0.3,0.5,0.4,0.8l1.1,1.5l-1.7-0.8
		c-0.2-0.1-0.3-0.2-0.5-0.3c-0.7,1.5-1.4,3-2.1,4.5c-0.5,1-0.9,2.1-1.1,3.2c-0.3,1.1-0.4,2.2-0.1,3.2c0.2,1,0.7,2,1.4,2.8
		c0.7,0.8,1.6,1.5,2.6,1.8c1.7,0.6,3.9,0.4,5.5-0.7c-0.4-3.8-0.8-7.5-1-11.3C217.3,251.1,216.9,251.5,216.5,251.8z"/>
	<path d="M292.2,225.9c-1.2,1.9-2.2,3.9-2.9,6.1c-0.7,2.2-1.1,4.4-1.2,6.7c0,2.3,0,4.6,0.8,6.8c0.4,1.1,1,2.2,1.8,3.1s1.8,1.6,2.9,2
		c2.2,0.9,4.5,1,6.7,0.7s4.2-1.1,6.3-1.8c-2.1,0.7-4.2,1.2-6.3,1.3c-2.1,0.1-4.3-0.4-6-1.4c-1.8-1-2.9-2.6-3.4-4.5
		c-0.6-1.9-0.6-4-0.5-6.1s0.4-4.2,0.9-6.2s1.2-4,2.1-6c1.8-3.8,4.5-7.4,8.1-9.9C297.9,219.1,294.6,222.1,292.2,225.9z"/>
	<path d="M309.2,240.8c0.6,0.3,1.3,0.1,1.7-0.3c0.5-0.4,0.8-1,0.8-1.8c0-1.4-1-2.5-1.8-3.5c-0.8-0.9-1.7-1.9-3.1-2.5
		c-0.7-0.3-1.5-0.4-2.3-0.3s-1.7,0.5-2.3,1.3c-0.6,0.7-0.8,1.5-0.9,2.3c-0.1,0.7,0,1.4,0,2c0.1,0.6,0.2,1.3,0.4,2
		c0.2,0.7,0.6,1.4,1.2,1.9c1.3,1,2.9,0.7,4,0.1c1.1-0.7,1.9-1.7,2.7-2.6c-0.8,0.9-1.8,1.7-2.9,2.1c-1.1,0.3-2.3,0.1-2.9-0.6
		c-0.5-0.7-0.5-1.7-0.5-2.9c0-1.2,0.1-2.3,0.6-2.7c0.3-0.5,1.2-0.7,2.1-0.5s1.9,0.9,2.8,1.6c1,0.7,1.9,1.4,2.2,2.5
		c0.1,0.5,0,1.1-0.4,1.6C310.5,240.8,309.8,241.2,309.2,240.8z"/>
	<path d="M338.1,235.7c-1.6,0.2-3.2,0.3-4.7,0.8c-1.6,0.5-3.1,1.3-4.2,2.5c-0.9,1-1.5,2.3-1.6,3.6c0.2-1.3,1-2.4,2-3.2
		c1.2-0.9,2.6-1.3,4.1-1.5c0.8-0.1,1.5-0.1,2.3-0.1c-0.1,1.4,0.2,2.9,1.1,4.2c0.9,1.3,2.5,2.4,4.3,2.5c1.8,0.2,3.9-1,4.4-3.1
		c0.3-1,0-2.2-0.5-3c-0.5-0.9-1.3-1.5-2.1-2C341.4,235.5,339.6,235.6,338.1,235.7z M343.7,240.9c-0.1,1-1.2,2-2.5,2.1
		c-1.3,0.2-2.8-0.4-3.8-1.4s-1.6-2.4-1.5-3.9c0.7,0,1.5,0,2.2,0c1.5,0,2.9,0.1,4,0.7C343.2,238.9,343.9,240,343.7,240.9z"/>
	<path d="M327.6,242.6c0,0.2-0.1,0.5,0,0.7C327.5,243.1,327.5,242.8,327.6,242.6z"/>
	<path d="M352.9,248.7c-1.9,1.2-4.1,2-6.4,2.5c-4.6,0.9-9.7,0.4-13.8-2.2c2,1.3,4.3,2.3,6.7,3c2.4,0.6,4.9,0.8,7.4,0.6
		c2.5-0.2,5-1,7.2-2.2s4.3-3,5.5-5.6c0.5-1.3,0.7-2.8,0.5-4.1c-0.2-1.4-0.7-2.6-1.2-3.7c-1.1-2.2-2.2-4.3-3.3-6.5
		c-2.3-4.3-4.7-8.5-6.7-12.9c2,4.4,3.6,9,5.5,13.5c0.9,2.3,1.9,4.5,2.7,6.7c0.9,2.2,1.3,4.3,0.5,6.2
		C356.5,245.9,354.8,247.5,352.9,248.7z"/>
	<path d="M316.3,265.5c0.2-0.8,0.6-1.6,0.8-2.5c0.6-1.7,1.1-3.4,1.9-5c-0.9,1.6-2.1,2.9-3.1,4.4c-0.6,0.7-1.1,1.5-1.5,2.3
		s-0.8,1.8-1,2.7c-0.2,1-0.2,2,0.1,3c0.3,1,0.7,2,1.5,2.7c1.5,1.5,3.8,1.7,5.3,0.9c-0.8,0.4-1.8,0.3-2.5-0.1c-0.8-0.4-1.3-1-1.7-1.6
		c-0.3-0.7-0.5-1.4-0.6-2.2c-0.1-0.7,0-1.5,0.1-2.3C315.8,267.1,316,266.3,316.3,265.5z"/>
	<path d="M391.1,172.6l3.3,1.2l3.2,1.4c1,0.5,2.1,1.1,3.1,1.6c1,0.6,2,1.3,2.9,1.9c-1-0.7-1.9-1.4-2.8-2.1c-1-0.7-1.9-1.3-2.9-2
		l-3.1-1.8l-3.2-1.6l-3.3-1.4l-3.4-1.1l-3.5-0.8l-3.5-0.5l-3.6-0.2h-3.6l-3.6,0.3l-3.5,0.6l-3.5,0.9l-3.4,1.1
		c-1.1,0.4-2.2,0.9-3.3,1.3c-1.1,0.5-2.1,1-3.2,1.4c1.1-0.5,2.2-0.9,3.3-1.3c1.1-0.3,2.3-0.6,3.4-0.9l3.4-0.7l3.5-0.4l3.5-0.2h0.7
		c-1.1,0.9-2.2,1.7-3,2.9c-1,1.4-1.7,3.4-0.9,5.3c0.2,0.4,0.4,0.8,0.6,1.2c-0.6-0.1-1.2-0.1-1.8-0.2l-2.6-0.4l-2.6-0.6
		c-0.9-0.2-1.7-0.5-2.6-0.7c-0.8-0.3-1.7-0.6-2.5-0.9c0.8,0.3,1.6,0.7,2.4,1.1c0.8,0.4,1.6,0.7,2.5,1.1l2.5,1l2.6,0.9
		c0.9,0.2,1.8,0.5,2.6,0.7l2,0.4c0.3,0.2,0.6,0.3,0.9,0.5c1.8,0.7,3.7,0.7,5.5,0.6c1.5-0.1,2.9-0.3,4.4-0.6h0.7l2.7-0.4
		c0.9-0.2,1.8-0.4,2.7-0.6l2.6-0.7l2.6-0.8c0.8-0.3,1.7-0.6,2.5-0.9s1.7-0.7,2.5-1c-0.8,0.3-1.7,0.6-2.5,0.8
		c-0.9,0.2-1.7,0.4-2.6,0.6c-0.9,0.1-1.8,0.3-2.6,0.4l-2.6,0.3c-0.2,0-0.3,0-0.5,0c0.1-0.1,0.3-0.2,0.4-0.3c1.4-1.3,2.3-3.1,2.2-4.9
		c-0.1-1.1-0.4-2.1-1.1-2.9l2.8,0.6L391.1,172.6z M385.5,173.9c-0.2,1.6-1.3,3-2.6,3.8c-1.3,0.9-2.8,1.4-4.4,1.6
		c-0.3,0-0.5,0.1-0.8,0.1H376l-2.6-0.1l-2.6-0.1l-2.6-0.2h-0.5c-1-0.5-1.8-1.2-2.3-2.1c-0.8-1.3-0.6-3,0.1-4.5
		c0.6-1.2,1.6-2.3,2.6-3.2h2.7l3.4,0.1l3.4,0.3l3.4,0.4l3.4,0.6l0.4,0.1C385.4,171.8,385.7,172.9,385.5,173.9z"/>
	<path d="M290.3,167.5l3.1,0.4c1,0.2,2,0.5,3.1,0.7c1,0.3,2,0.7,3,1.1c-1-0.4-1.9-0.9-2.9-1.3s-2-0.8-2.9-1.3l-3-1.1l-3.1-0.9
		c-1.1-0.2-2.1-0.4-3.2-0.6l-3.2-0.4h-3.3l-3.3,0.2l-3.2,0.6l-3.2,0.8l-3.1,1.1c-1,0.4-2,0.9-2.9,1.4l-2.8,1.6l-2.7,1.8
		c-0.8,0.7-1.7,1.3-2.6,1.9c-0.8,0.7-1.6,1.3-2.5,2c0.9-0.6,1.7-1.2,2.6-1.7s1.9-1,2.8-1.4l2.9-1.2l3-1c1-0.2,2-0.5,3-0.8l0.3-0.1
		c-0.2,0.1-0.5,0.3-0.7,0.4c-0.4,0.4-0.8,0.9-1,1.4c-0.3,0.6-0.3,1.3-0.2,1.9c0.1,0.6,0.4,1.2,0.8,1.7c0.1,0.2,0.3,0.3,0.4,0.4
		l-0.7-0.1l-3-0.4c-1-0.2-2-0.3-2.9-0.5c-1-0.2-1.9-0.5-2.9-0.8c0.9,0.3,1.9,0.7,2.8,1.1c0.9,0.3,1.9,0.7,2.8,1.1l2.9,1l2.9,0.9
		c1,0.3,2,0.5,3,0.7l3,0.5l3.1,0.3l3.1,0.1l3.1-0.1l3.1-0.3l3-0.6c1-0.2,2-0.5,3-0.7l2.9-0.9l2.9-1c0.9-0.4,1.9-0.8,2.8-1.1
		c0.9-0.4,1.9-0.8,2.8-1.1c-0.9,0.3-1.9,0.6-2.9,0.8c-1,0.2-2,0.4-2.9,0.6l-3,0.4l-3,0.3c-1,0-2,0.1-3,0.2l-2.9,0.1l-2.9,0.1h-2.9
		h-2.9l-2.9-0.1l-2.9-0.1c-0.6,0-1.2-0.1-1.8-0.1c-0.1-0.1-0.2-0.1-0.3-0.2c-0.4-0.3-0.7-0.6-1-0.9s-0.6-0.6-0.8-0.9
		c-0.2-0.3-0.5-0.6-0.6-0.9c-0.2-0.3-0.3-0.7-0.4-1.1s-0.1-0.9,0.1-1.3c0.1-0.3,0.3-0.6,0.6-0.8l1.7-0.4c-0.1,0.1-0.3,0.3-0.4,0.5
		c-0.5,0.9-0.3,2,0.3,2.9c0.6,0.8,1.5,1.4,2.5,1.6s2,0.2,2.9,0.1s1.9-0.3,2.8-0.7c0.9-0.4,1.8-1.1,2.2-2c0.5-0.9,0.6-2,0.1-2.9
		c-0.2-0.4-0.6-0.7-1-0.9h0.3l3-0.2l3.1-0.1c0.1,0,0.2,0,0.3,0c0.3,0.3,0.6,0.7,0.7,1.1c0.2,0.5,0.2,1,0.1,1.5s-0.3,1-0.5,1.4
		c-0.2,0.5-0.6,0.9-0.9,1.3c-0.4,0.4-0.8,0.8-1.3,1.2c-1,0.7-2.2,1.5-3.5,1.9c1.3-0.3,2.7-0.2,4.1-0.6c0.7-0.2,1.4-0.5,2.1-0.9
		c0.6-0.5,1.2-1.1,1.6-1.8c0.4-0.7,0.6-1.6,0.6-2.4s-0.4-1.8-0.9-2.3c-0.1-0.1-0.3-0.2-0.4-0.3c0.4,0,0.9,0,1.3,0L290.3,167.5z
		 M278.4,168.5c0.3,0.8,0.1,1.7-0.4,2.4c-0.5,0.7-1.2,1.1-2,1.4s-1.7,0.4-2.6,0.5s-1.8,0.2-2.6,0c-0.8-0.1-1.6-0.5-2.2-1.1
		s-0.9-1.5-0.6-2.3c0.1-0.2,0.2-0.5,0.4-0.7l0.4-0.1l3-0.5l3-0.4l2.6-0.3C278,167.8,278.3,168.1,278.4,168.5z"/>
	<path d="M374.8,169.5c-0.9,0-1.7,0.2-2.6,0.3c0.8-0.1,1.7-0.2,2.6,0c0.8,0.1,1.6,0.5,2.1,1.1s0.6,1.3,0.2,1.9
		c-0.3,0.6-0.9,1.1-1.6,1.5c-0.7,0.4-1.5,0.6-2.2,0.6c-0.8,0.1-1.5-0.1-2.2-0.5c-0.6-0.4-1.1-1.1-1.1-2c0-0.8,0.6-1.7,1.5-1.8
		c-0.9,0.1-1.6,0.9-1.7,1.8c-0.2,0.9,0.2,1.9,0.9,2.5c0.7,0.7,1.7,1,2.6,1c0.9,0,1.9-0.2,2.7-0.6c0.8-0.5,1.6-1.1,2-2.1
		s0.1-2.2-0.7-2.8C376.6,169.8,375.6,169.5,374.8,169.5z"/>
	<path d="M266.9,186.4c0.7,0.1,1.5,0.3,2.2,0.4c1.5,0.2,3,0.4,4.5,0.7c-1.5-0.4-2.9-0.9-4.3-1.4c-0.7-0.3-1.4-0.5-2.2-0.7l-2.2-0.6
		l-2.2-0.5c-0.7-0.1-1.5-0.3-2.2-0.4c-1.5-0.2-3-0.4-4.5-0.7c1.5,0.4,2.9,0.9,4.3,1.4c0.7,0.3,1.4,0.5,2.2,0.7l2.2,0.6L266.9,186.4z
		"/>
	<path d="M344,170.2c0.3,1,0.7,1.9,1,2.8c0.4,0.9,0.7,1.9,1.1,2.8c0.4,0.9,0.9,1.8,1.4,2.7c0.5,0.9,1.1,1.7,1.7,2.5
		c0.6,0.8,1.3,1.6,1.9,2.3c0.7,0.7,1.4,1.4,2.2,2.1s1.5,1.3,2.3,1.9s1.6,1.2,2.4,1.8c-1.6-1.2-2.9-2.7-4.2-4.2
		c-0.6-0.8-1.3-1.5-1.9-2.3c-0.6-0.8-1.2-1.5-1.8-2.3s-1.2-1.6-1.7-2.4c-0.6-0.8-1.1-1.6-1.6-2.5C345.7,173.8,344.7,172.1,344,170.2
		z"/>
	<path d="M396,162.2l1,0.9l1.1,0.8c0.4,0.3,0.8,0.5,1.2,0.7c0.8,0.5,1.7,0.9,2.4,1.5c-0.7-0.6-1.3-1.3-1.9-2c-0.3-0.4-0.6-0.7-1-1
		l-1-0.9l-1.1-0.8c-0.4-0.3-0.8-0.5-1.2-0.7c-0.8-0.5-1.7-0.9-2.4-1.5c0.7,0.6,1.3,1.3,1.9,2C395.3,161.6,395.6,161.9,396,162.2z"/>
	<path d="M272.7,292.5c-0.6,0.2-1.1,0.3-1.7,0.5C271.6,292.8,272.2,292.7,272.7,292.5z"/>
	<path d="M315.7,280.1c-1.8-1-3.6-2.3-6-2.8c-2.3-0.5-4.7,0-6.7,0.7c-2.1,0.7-4,1.7-5.9,2.6c-7.6,3.6-15.2,7.4-22.9,10.8
		c7.7-3.3,15.6-6.3,23.5-9.5c2-0.8,3.9-1.6,5.8-2.2s3.9-0.8,5.8-0.4c1.8,0.4,3.4,1.6,5.3,2.7c1.8,1.2,4.3,1.9,6.5,1.9
		c4.6,0,8.6-1.8,12.6-2c4-0.3,8.1,0.6,11.7,2.5c3.7,1.9,7,4.6,10.3,7.1c3.3,2.6,6.7,5.1,9.9,7.8c-3.3-2.7-6.4-5.5-9.6-8.2
		c-3.2-2.8-6.3-5.7-10-7.9c-3.7-2.3-8.1-3.5-12.5-3.3c-4.5,0.2-8.5,1.8-12.4,1.8C319.2,281.6,317.4,281.1,315.7,280.1z"/>
	<path d="M360.8,298.5c-3.1-1.5-6.3-2.7-9.6-3.7c-3.7-1.2-7.5-1.9-11.2-2.7c-3.8-0.9-7.6-1.4-11.4-1.9c-3.8-0.4-7.7-0.6-11.6-0.8
		c-3.9-0.1-7.7,0-11.6,0.1c-3.8,0.1-7.7,0.3-11.5,0.5s-7.7,0.4-11.5,0.7c-3.2,0.3-6.5,0.8-9.6,1.7c3.1-0.8,6.4-1.1,9.6-1.1
		c3.8,0,7.7,0.1,11.5,0.1s7.7,0.1,11.5,0.1s7.7,0,11.5,0.1s7.6,0.2,11.4,0.5c3.8,0.2,7.6,0.6,11.4,1.2c3.8,0.6,7.6,1,11.3,1.8
		C354.4,296.1,357.7,297.1,360.8,298.5c-6.3,2.8-13.2,4.3-20,4.9c-3.7,0.3-7.4,0.4-11.1,0.2c-3.7-0.1-7.4-0.3-11.1-0.6
		c-3.7-0.2-7.4-0.4-11.1-0.7c-3.7-0.3-7.3-1-10.7-2.2c-3.4-1.3-6.6-3.2-9.9-4.9c-3.3-1.7-6.9-3.1-10.6-3.2c3.8,0.1,7.2,1.8,10.4,3.7
		c3.2,1.9,6.2,4.1,9.7,5.8c3.5,1.6,7.2,2.5,11,3s7.5,0.7,11.2,1c3.7,0.2,7.5,0.4,11.2,0.3c3.8-0.1,7.5-0.3,11.2-0.9
		C347.9,303.8,354.6,301.5,360.8,298.5c0.4,0.2,0.8,0.4,1.1,0.5C361.6,298.9,361.2,298.7,360.8,298.5c0.5-0.2,1-0.4,1.5-0.7
		C361.8,298.1,361.3,298.3,360.8,298.5z"/>
	<path d="M237.1,321.2c2.2,4.1,4.5,8.2,6.9,12.2c2.5,4,5.1,7.8,8,11.5s5.9,7.2,9.2,10.6c6.6,6.6,14.1,12.5,22.4,16.8
		c8.3,4.4,17.3,7.4,26.6,8.8c9.3,1.4,18.9,1,28-1.1c9.1-2.1,17.9-6,25.5-11.5c7.7-5.5,13.8-12.7,20-19.6c6.2-7,12.4-13.9,18.6-20.9
		c-6.3,6.9-12.6,13.8-18.9,20.7c-6.3,6.8-12.5,13.9-20.2,19.2c-7.6,5.3-16.3,9.1-25.3,11.1c-9,2.1-18.4,2.4-27.6,1
		c-9.2-1.3-18.1-4.3-26.3-8.6c-8.3-4.2-15.7-9.9-22.4-16.4c-3.3-3.3-6.4-6.8-9.3-10.4c-2.9-3.7-5.6-7.5-8.1-11.4
		C241.8,329.2,239.4,325.2,237.1,321.2c-2.1-4.2-4.2-8.4-6.1-12.6C233,312.8,235,317,237.1,321.2z"/>
	<path d="M433.2,246.7c1.4,0.4,2.8,0.7,4.2,1c0.7,0.1,1.5,0.3,2.4,0c0.9-0.2,1.5-1.1,1.7-1.8c0.2-0.8,0.2-1.7,0-2.4
		c-0.2-0.7-0.6-1.4-0.9-2c-0.6-1.2-1-2.5-1.3-3.9c-0.4-2.7,0-5.6,1.5-8c-1.5,2.3-2.4,5.2-2.2,8.1c0.1,1.4,0.5,2.9,1,4.2
		c0.6,1.3,1.1,2.5,0.7,3.6c-0.2,0.5-0.5,1-1,1.1c-0.5,0.2-1.2,0.1-1.8,0c-1.4-0.2-2.8-0.4-4.1-0.6c-1.2-0.3-2-1.6-2.1-3
		c0-1.4,0.5-2.7,1.1-4c-0.6,1.3-1.3,2.5-1.4,4c0,0.7,0.1,1.5,0.4,2.1C431.8,245.8,432.5,246.4,433.2,246.7z"/>
	<path d="M231.9,147.7c0.1,0.1,0.1,0.1,0.1,0.1h0.1c0,0,0,0,0-0.1s0-0.1,0-0.2c0-0.1-0.1-0.3,0-0.4c0,0-0.2-0.2-0.3-0.2
		c-0.1-0.1-0.1-0.1-0.1-0.1h-0.1c0,0,0,0,0,0.1s0,0.1,0,0.2c0,0.1,0.1,0.3,0,0.4C231.6,147.4,231.8,147.6,231.9,147.7z"/>
	<path d="M230.6,147.7c-0.1,0-0.2,0-0.2,0c-0.1,0-0.1,0-0.2,0l-0.1,0.1c0,0.1,0,0.1,0,0.2c0,0.2,0,0.4,0,0.5
		c0.1-0.1,0.3,0.1,0.5,0.1c0.1,0,0.2,0,0.2,0c0.1,0,0.1,0,0.2,0l0.1-0.1c0-0.1,0-0.1,0-0.2c0-0.2,0-0.4,0-0.5
		C231,147.8,230.8,147.7,230.6,147.7z"/>
	<path d="M233.9,144.5C233.9,144.5,233.9,144.4,233.9,144.5c0.1-0.1,0.1-0.1,0.1-0.2c0-0.1,0.1-0.3,0.1-0.4c0,0-0.1-0.2-0.1-0.4
		c0-0.1,0-0.1-0.1-0.2c0,0,0,0-0.1-0.1c0,0,0,0-0.1,0.1c0,0,0,0.1-0.1,0.2c0,0.1-0.1,0.3-0.1,0.3s0.1,0.2,0.1,0.3
		C233.8,144.3,233.8,144.4,233.9,144.5C233.8,144.4,233.9,144.5,233.9,144.5z"/>
	<path d="M412,141.2c-1,0.1-1.9,0.4-2.8,0.5c0.9-0.1,1.9,0,2.8,0.2c0.5,0.1,0.9,0.2,1.3,0.3c0.4,0.1,0.9,0.2,1.3,0.3
		c0.4,0.1,0.9,0.2,1.3,0.3c0.4,0.1,0.9,0.2,1.3,0.3c0.9,0.3,1.8,0.5,2.5,1.1c-0.7-0.6-1.4-1.2-2.3-1.7c-0.4-0.3-0.8-0.5-1.3-0.7
		c-0.4-0.2-0.9-0.3-1.4-0.5c-0.5-0.1-1-0.2-1.4-0.2C412.9,141.2,412.5,141.2,412,141.2z"/>
	<path d="M412.6,140c-0.3,0-0.6-0.1-0.8-0.1c-0.3,0-0.6,0-0.8,0c-0.3,0-0.6,0.1-0.8,0.2c-0.6,0.1-1.1,0.3-1.7,0.3
		c0.6,0,1.1,0.3,1.7,0.4c0.3,0.1,0.6,0.1,0.8,0.2c0.3,0,0.6,0.1,0.8,0.1c0.3,0,0.6,0,0.8,0c0.3,0,0.6-0.1,0.8-0.2
		c0.6-0.1,1.1-0.3,1.7-0.3c-0.6,0-1.1-0.3-1.7-0.4C413.1,140.1,412.9,140,412.6,140z"/>
	<path d="M408.2,136.3c-0.9,0-1.8-0.2-2.8-0.1c-0.5,0-0.9,0-1.4,0.1s-0.9,0.2-1.4,0.3s-0.9,0.3-1.3,0.5c-0.4,0.2-0.8,0.4-1.2,0.7
		c-0.8,0.5-1.5,1.1-2.3,1.6c0.8-0.5,1.7-0.7,2.6-1c0.5-0.1,0.9-0.2,1.3-0.4l1.3-0.4l0.3-0.1c-0.2,0.1-0.4,0.2-0.5,0.3
		c-0.3,0.2-0.6,0.3-0.8,0.3c0.3,0,0.5,0.2,0.7,0.5c0.1,0.1,0.2,0.2,0.3,0.3c-0.2,0.1-0.5,0.1-0.7,0.2c-0.3,0.1-0.7,0.3-1,0.5
		c-0.7,0.3-1.3,0.8-2,0.9c0.7-0.1,1.5,0.3,2.2,0.4c0.4,0.1,0.7,0.1,1.1,0.2c0.4,0,0.7,0,1.1,0c0.3-0.1,0.7-0.1,1-0.2
		c0.3-0.1,0.7-0.3,1-0.5c0.7-0.3,1.3-0.8,2-0.9c-0.2,0-0.5,0-0.7-0.1c0.1-0.1,0.2-0.1,0.3-0.2c0.3-0.2,0.6-0.3,0.8-0.3
		c-0.3,0-0.5-0.3-0.7-0.5l-0.1-0.1c0.3-0.1,0.6-0.2,0.9-0.2c0.4-0.1,0.9-0.2,1.4-0.3c0.9-0.1,1.9-0.2,2.8,0
		c-0.5-0.1-0.9-0.3-1.4-0.4c-0.5-0.1-1-0.2-1.4-0.3c-0.5-0.1-1-0.1-1.5-0.1s-1,0.1-1.5,0.2c-0.1,0-0.1,0.1-0.2,0.1
		c-0.1-0.1-0.2-0.2-0.4-0.3s-0.4-0.2-0.6-0.2c0.1,0,0.2-0.1,0.3-0.1C406.3,136.6,407.2,136.3,408.2,136.3z"/>
	<path d="M410.7,138.4c-0.3,0.1-0.5,0.1-0.8,0.2c-0.3,0.1-0.5,0.2-0.8,0.3c-0.2,0.1-0.5,0.3-0.7,0.4c-0.5,0.3-1,0.7-1.5,0.9
		c0.5-0.2,1.1-0.2,1.7-0.2c0.3,0,0.6-0.1,0.9-0.1c0.3-0.1,0.5-0.1,0.8-0.2c0.3-0.1,0.5-0.2,0.8-0.3c0.2-0.1,0.5-0.3,0.7-0.4
		c0.5-0.3,1-0.7,1.5-0.9c-0.5,0.2-1.1,0.2-1.7,0.2C411.2,138.3,411,138.3,410.7,138.4z"/>
	<path d="M234.5,140.3c-0.2,0.3-0.3,0.5-0.4,0.8c0,0.3-0.1,0.6,0,1c0.1,0.3,0.2,0.7,0.3,1c0.1,0.3,0.2,0.6,0.2,0.8
		c0.1-0.5,0.9-0.7,1.4-0.9c0.3-0.1,0.5-0.2,0.7-0.2c0.2-0.1,0.3-0.2,0.5-0.3v-0.1c0.3,0.1,0.6,0.1,0.9,0.2c0.2,0.1,0.5,0.1,0.7,0.1
		l0,0c-0.1,0.1-0.3,0.1-0.4,0.2c-0.3,0.2-0.5,0.4-0.8,0.5c0.3,0,0.6,0.1,0.9,0.2c0.2,0.1,0.3,0.1,0.5,0.1s0.3,0,0.5,0
		c0.1,0,0.3-0.1,0.4-0.1c0.1-0.1,0.3-0.1,0.4-0.2c0.3-0.2,0.5-0.4,0.8-0.5c-0.3,0-0.6-0.1-0.9-0.2l0,0c0.2-0.1,0.5-0.1,0.7-0.2
		c0.5-0.1,1-0.4,1.5-0.4c-0.5,0-1-0.2-1.5-0.3c-0.2-0.1-0.5-0.1-0.7-0.1s-0.4,0-0.6,0c0,0,0,0,0.1,0c0.2-0.2,0.5-0.4,0.7-0.5
		c-0.3,0-0.5-0.1-0.8-0.2c-0.1-0.1-0.3-0.1-0.4-0.1s-0.3,0-0.4,0s-0.3,0.1-0.4,0.1c-0.1,0.1-0.2,0.1-0.4,0.2
		c-0.2,0.1-0.4,0.4-0.6,0.4c0-0.1,0-0.2,0-0.4c0-0.3,0.1-0.8,0.2-1.2c0.1,0,0.3-0.1,0.4-0.2c0.3-0.1,0.5-0.3,0.8-0.3
		c-0.2,0.4-0.4,0.8-0.7,1c0.4-0.3,0.8-0.4,1.3-0.5s1-0.3,1.5-0.4c0.5-0.1,0.9-0.3,1.4-0.5c0.4-0.2,0.8-0.5,1.2-0.7l0.1-0.1
		c0.5,0,0.9,0,1.4,0.1l1.6,0.1l1.6,0.1c0.2,0.1,0.3,0.2,0.5,0.3c0.2,0.2,0.5,0.3,0.7,0.4c0.3,0.1,0.5,0.1,0.8,0.2
		c0.3,0,0.5,0,0.8-0.1s0.5-0.1,0.8-0.3c0.1,0,0.2-0.1,0.3-0.1c0.4,0.1,0.8,0.2,1.2,0.3c-0.3-0.1-0.6-0.3-1-0.4
		c0.4-0.2,0.7-0.4,1.1-0.4c-0.5-0.1-1-0.5-1.5-0.8c-0.2-0.2-0.5-0.3-0.7-0.4c-0.3-0.1-0.5-0.1-0.8-0.2c-0.3,0-0.5,0-0.8,0.1
		s-0.5,0.1-0.8,0.3c-0.1,0-0.2,0.1-0.3,0.1h-0.1c-0.6-0.1-1.1-0.2-1.7-0.2c-0.5,0-1,0-1.6,0c1-0.4,2.1-0.5,3.1-0.7
		c0.7-0.1,1.2-0.2,1.9-0.3c0.2,0,0.3-0.1,0.5-0.1c0.1,0.1,0.2,0.3,0.2,0.4c0.1,0.1,0.1,0.2,0.2,0.3s0.2,0.1,0.3,0.2
		c0.1,0,0.2,0.1,0.3,0.1c0.1,0,0.2,0,0.4,0c0.2,0,0.5-0.1,0.7,0c-0.2-0.1-0.3-0.4-0.4-0.6c-0.1-0.1-0.1-0.2-0.2-0.3
		s-0.2-0.1-0.3-0.2c-0.1,0-0.2-0.1-0.3-0.1c-0.1,0-0.1,0-0.2,0c0.2,0,0.3-0.1,0.5-0.1h0.1c0.4-0.1,0.8-0.1,1.1,0
		c-0.2-0.1-0.3-0.2-0.5-0.3c0.3-0.1,0.5-0.2,0.8-0.3c0.1,0,0.2,0.1,0.3,0.1c0.5,0.3,1.1,0.6,1.4,1.1c-0.3-0.5-0.6-1.1-1-1.6
		c0.3-0.2,0.7-0.3,1-0.6c0.4-0.2,0.8-0.4,1.2-0.6c0.1,0.1,0.2,0.3,0.3,0.5c-0.1,0.1-0.2,0.1-0.3,0.2c0.1,0,0.2-0.1,0.3-0.1
		c0.1,0.2,0.1,0.4,0.1,0.5c0,0.3,0.1,0.5,0.1,0.6c0.1,0.1,0.1,0.3,0.2,0.4c0.1,0.1,0.2,0.1,0.4,0.2c0.2,0,0.4,0.1,0.7,0.1
		c0.2,0,0.5,0.1,0.8,0.2c0.1,0.1,0.1,0.1,0.2,0.2c0.3,0.4,0.8,0.8,0.9,1.3c-0.1-0.5-0.2-1.1-0.3-1.7v-0.1c0,0,0,0,0-0.1
		c0,0,0-0.1,0-0.2c0.1,0,0.3,0.1,0.4,0.1h0.1c0.2,0.1,0.4,0.2,0.6,0.3c0,0,0.1,0,0.1,0.1c0.3,0.2,0.7,0.5,0.8,1c0-0.2,0-0.4-0.1-0.7
		c0.7,0.3,1.4,0.5,2.1,0.9c-0.6-0.4-1.1-0.8-1.6-1.3c0.7,0.1,1.4,0.1,2,0.3c-0.6-0.3-1.1-0.8-1.6-1.3c0.3,0,0.5,0,0.6,0.1
		c-0.1-0.1-0.1-0.4-0.1-0.7s0.1-0.6,0.1-0.8l0.4,0.2l0.9,0.5c0.3,0.1,0.6,0.3,0.9,0.5c0.6,0.3,1.2,0.7,1.7,1.2
		c-0.2-0.2-0.3-0.5-0.5-0.7c0.1,0,0.3,0.1,0.4,0.1c0.2,0.1,0.4,0.2,0.6,0.4c-0.1-0.1-0.2-0.2-0.3-0.3l0,0c0.3,0,0.5,0.1,0.9,0.1
		c0.3,0,0.6,0.1,0.7,0.2c-0.1-0.2-0.1-0.4-0.1-0.7s0.1-0.6,0.1-0.9c0,0,0,0,0-0.1l0.2,0.1c0,0,0,0,0.1,0.1c0.5,0.5,1,0.9,1.4,1.4
		c-0.2-0.3-0.3-0.6-0.4-0.9c0.2,0.1,0.3,0.2,0.5,0.3c0.7,0.4,1.5,0.9,1.9,1.7c-0.2-0.4-0.3-0.8-0.4-1.3c-0.1-0.2-0.1-0.5-0.2-0.7
		c0.2,0.1,0.4,0.2,0.6,0.2c0.3,0.1,0.7,0.2,1,0.3s0.6,0.2,0.8,0.4c-0.1-0.2-0.1-0.4-0.1-0.6l0,0l1.3,1c0.4,0.3,0.9,0.7,1.3,1
		c0.9,0.7,1.8,1.4,2.4,2.3c-0.6-0.9-1.2-1.9-1.9-2.8c-0.3-0.5-0.7-0.9-1.1-1.3c-0.3-0.3-0.6-0.5-0.8-0.7c0-0.2,0-0.4,0.1-0.6
		c0.3,0.1,0.5,0.2,0.8,0.3c0.5,0.1,0.9,0.3,1.2,0.6c-0.3-0.3-0.4-0.7-0.6-1.2c-0.1-0.3-0.2-0.6-0.2-0.8c0,0,0,0,0.1,0
		c0.4,0.4,0.7,0.8,1,1.2c-0.2-0.3-0.3-0.6-0.4-1c0.1,0,0.1,0.1,0.1,0.1c0.2,0.1,0.4,0.2,0.7,0.3l0.2,0.4c0.2,0.3,0.4,0.6,0.6,0.9
		c0.4,0.6,0.8,1.4,0.8,2.2c0-0.4,0.2-0.8,0.3-1.2c0.1-0.4,0.2-0.8,0.3-1.3c0-0.3,0-0.5,0-0.8l0.1,0.1l0,0c-0.1,0.3-0.1,0.6-0.2,0.9
		c0,0.3,0,0.6-0.1,0.9c0,0.3,0,0.6,0.1,0.9c0.1,0.3,0.1,0.6,0.2,0.9c0.1,0.6,0.3,1.2,0.4,1.9c0-0.6,0.2-1.2,0.4-1.9
		c0.1-0.3,0.1-0.6,0.2-0.9c0-0.3,0-0.6,0.1-0.9c0-0.3,0-0.6-0.1-0.9c0-0.3-0.1-0.6-0.2-0.9c-0.1-0.6-0.3-1.2-0.3-1.9
		c0,0.4-0.1,0.9-0.2,1.3c0-0.1,0-0.3-0.1-0.4c-0.1-0.2-0.2-0.5-0.3-0.7c-0.1-0.2-0.3-0.4-0.4-0.6c-0.1-0.1-0.2-0.2-0.3-0.3
		c-0.1-0.2-0.2-0.3-0.3-0.5c-0.3-0.3-0.6-0.6-1-0.8c-0.3-0.2-0.5-0.3-0.8-0.4c0.5-0.2,1-0.3,1.5-0.4c0.2,0.2,0.4,0.4,0.6,0.5
		l0.1,0.1c0.3,0.3,0.5,0.6,0.7,0.9c0.2,0.2,0.3,0.4,0.5,0.6c0.2,0.2,0.4,0.3,0.6,0.5c0.2,0.1,0.4,0.3,0.6,0.4
		c0.2,0.1,0.4,0.2,0.7,0.3c-0.1,0.2-0.1,0.5-0.2,0.7c0,0.4,0,0.7,0,1.1c0.1,0.3,0.2,0.7,0.3,1c0.2,0.3,0.4,0.7,0.7,1
		c0.2,0.3,0.5,0.6,0.8,1c0.3,0.3,0.5,0.6,0.6,1c0-0.4,0.1-0.7,0.2-1.1c0.1-0.4,0.3-0.8,0.5-1.2c0-0.1,0.1-0.2,0.1-0.3
		c0.3,0.5,0.5,0.9,0.5,1.5c0-0.4,0.1-0.8,0.2-1.3c0.1-0.4,0.1-0.9,0.1-1.3c0-0.5-0.1-0.9-0.2-1.4c0.1-0.2,0.2-0.4,0.3-0.6
		c0.1,0.3,0.2,0.6,0.2,0.9c0-0.4,0.1-0.8,0.3-1.1l0.4,1l0.5,1.1c0.2,0.3,0.3,0.7,0.6,1.1c0,0,0,0.1,0.1,0.1l0,0l0,0
		c0.3,0.7,0.7,1.5,0.7,2.3c0.1-0.4,0.2-0.8,0.3-1.3c0.1-0.4,0.3-0.9,0.3-1.4c0.1-0.4,0.1-0.7,0.1-1.1c0,0,0,0,0.1-0.1
		c0.2-0.2,0.3-0.5,0.5-0.8c0.1,0.1,0.2,0.2,0.3,0.2v0.1c0.1,0.4,0.3,0.8,0.5,1.3c0.3,0.8,0.9,1.6,1,2.5c0-0.2,0-0.4,0-0.5
		c0.4-0.4,0.9-0.9,1.3-1.4c0.2-0.3,0.3-0.6,0.5-0.9c0.1-0.2,0.1-0.5,0.1-0.7c0,0,0.1,0,0.1-0.1c0.2-0.2,0.4-0.4,0.5-0.6
		c0.1-0.1,0.1-0.3,0.2-0.4c0.1,0.4,0.2,0.7,0.2,1.1c0.1,0.5,0.1,1,0.1,1.5c0,0.1,0,0.3,0,0.4c-0.1,0.2-0.2,0.4-0.3,0.7
		c-0.4,0.9-0.8,1.8-1.5,2.5c0.3-0.3,0.7-0.7,1.1-1c0.1-0.1,0.2-0.2,0.3-0.4c-0.1,0.3-0.3,0.6-0.5,0.9c0.8-0.8,1.7-1.5,2.3-2.6
		c0.3-0.5,0.5-1.1,0.6-1.8c0-0.1,0-0.2,0-0.3s0.1-0.2,0.1-0.3c0.1,0.1,0.2,0.2,0.3,0.3c0.1,0.2,0.1,0.4,0.2,0.6v0.1
		c-0.3,0.6-0.6,1.3-1.1,1.8c0.5-0.4,1-0.7,1.4-1.1v0.1c0.2,0.2,0.3,0.5,0.5,0.8c0.3,0.5,0.7,1.2,0.7,1.8c0-0.3,0.2-0.6,0.3-0.9
		c0.1-0.3,0.3-0.7,0.4-1c0.1-0.4,0.1-0.7,0.1-1.1c0-0.2-0.1-0.3-0.1-0.5c0,0,0.1,0,0.1,0.1l0,0c0,0.7,0,1.4-0.3,2.1
		c0.2-0.3,0.3-0.6,0.5-0.9c0.1-0.3,0.3-0.5,0.4-0.8c0.2,0.1,0.4,0.2,0.7,0.3c0.1,0.1,0.3,0.1,0.4,0.2c0,0.1,0.1,0.1,0.1,0.2
		c0.3,0.8,0.6,1.7,0.6,2.6c0-0.5,0.1-0.9,0.1-1.4c0-0.4,0-0.7,0-1.1c0.1,0.1,0.3,0.1,0.4,0.2c0.6,0.2,1.1,0.5,1.5,0.9
		c-0.4-0.4-0.7-0.9-0.9-1.5c-0.3-0.6-0.5-1.1-0.7-1.6c-0.2-0.6-0.5-1-0.8-1.5c-0.3-0.4-0.7-0.9-1.1-1.3c-0.3-0.2-0.6-0.4-0.8-0.7
		c-0.1-0.2-0.2-0.3-0.4-0.4c-0.1-0.3-0.1-0.7-0.2-1c0,0.3,0,0.5,0,0.8c-0.3-0.3-0.6-0.6-0.9-0.9c0.3,0.3,0.4,0.6,0.6,1
		c-0.4-0.2-0.7-0.4-1.1-0.6c-0.5-0.2-1.1-0.5-1.6-0.7c-0.6-0.2-1.1-0.5-1.5-0.9c0.4,0.4,0.7,0.9,0.9,1.5c0.2,0.5,0.4,1,0.7,1.4
		c0,0.1,0,0.2-0.1,0.4c-0.1-0.1-0.1-0.1-0.2-0.2c-0.2-0.1-0.3-0.2-0.5-0.3c-0.3-0.3-0.5-0.6-0.9-0.8c-0.5-0.4-1.1-0.7-1.7-0.9
		c-0.2-0.4-0.4-0.8-0.6-1.3c0.1,0.4,0.1,0.7,0.1,1.1c-0.3-0.1-0.7-0.2-1-0.4c0.4,0.2,0.7,0.4,1,0.7c0,0.1,0,0.1,0,0.2
		c-0.3-0.2-0.5-0.4-0.8-0.6c-0.3-0.2-0.6-0.5-0.7-0.8c0.1,0.3,0,0.6,0,0.9c-0.1-0.3-0.2-0.6-0.3-0.9c0,0.3,0,0.6-0.1,1
		c-0.3-0.3-0.5-0.6-0.9-0.8s-0.8-0.5-1.3-0.6c-0.5-0.2-0.9-0.3-1.4-0.4c-0.5-0.1-0.9-0.2-1.3-0.4c0.4,0.3,0.6,0.7,0.8,1.2
		c0,0-0.1,0-0.1-0.1c-0.6-0.2-1.1-0.5-1.7-0.7s-1.2-0.4-1.8-0.6c-0.6-0.2-1.2-0.4-1.7-0.8c0.5,0.4,0.8,0.9,1.2,1.4
		c0.4,0.5,0.7,1.1,1,1.6l0,0c-0.1-0.1-0.3-0.1-0.4-0.2c-0.4-0.1-0.8-0.3-1.2-0.4c-0.1,0-0.2,0-0.4-0.1c-0.1-0.1-0.2-0.2-0.3-0.3
		c0,0.1,0,0.2,0,0.2c-0.1-0.1-0.2-0.2-0.3-0.3c-0.4-0.3-0.9-0.5-1.3-0.6c-0.5-0.1-1-0.2-1.5-0.2s-1,0.1-1.5,0.1
		c-0.5,0.1-0.9,0.1-1.4,0.1c0.8,0.2,1.5,1.1,2,1.7c0.1,0.2,0.3,0.3,0.4,0.5l0,0c-0.7-0.2-1.5-0.5-2.3-0.6c-0.5-0.1-1-0.2-1.6-0.2
		c-0.3-0.4-0.7-0.7-0.9-1.2c0.2,0.3,0.3,0.7,0.5,1.1c-0.1,0-0.2,0-0.4,0c-0.8,0-1.6,0.1-2.3,0.2c-0.2-0.1-0.4-0.2-0.6-0.4
		c0.1,0.1,0.2,0.3,0.3,0.5c-0.7,0.2-1.3,0.4-2,0.6c-0.4,0.2-0.8,0.4-1.2,0.7l0,0c0.1-0.1,0.3-0.2,0.4-0.3c-0.2,0.1-0.4,0.1-0.6,0.2
		c-0.4-0.2-0.8-0.4-1.2-0.6c-0.5-0.2-0.9-0.3-1.4-0.5c-0.9-0.3-1.9-0.4-2.8-0.7c0.9,0.3,1.7,0.8,2.5,1.3c0.3,0.2,0.6,0.4,0.9,0.6
		c-0.3,0-0.6,0-0.8,0c-0.6,0-1.1,0.1-1.7,0.2c-0.5,0.1-1,0.3-1.5,0.5s-0.9,0.5-1.4,0.8c-0.4,0.4-0.9,0.7-1.2,1.1
		c-0.2,0.2-0.4,0.5-0.7,0.7c-0.2,0-0.4-0.1-0.6-0.1c0,0,0,0-0.1,0c-0.2,0-0.4-0.1-0.7-0.1c-0.4-0.1-0.8-0.2-1.2-0.2
		c-0.2-0.1-0.4-0.2-0.5-0.3c0.1,0.1,0.2,0.1,0.3,0.2c-0.2,0-0.4-0.1-0.6-0.1h-0.1c0.1-0.1,0.1-0.2,0.2-0.3c0.2-0.3,0.4-0.6,0.6-0.8
		c0.2-0.3,0.4-0.5,0.6-0.6c-0.3,0.1-0.6,0-0.9-0.2c-0.3-0.1-0.6-0.3-1-0.4c-0.3-0.2-0.6-0.2-0.9-0.2s-0.6,0-0.8,0.1
		c-0.2,0.1-0.5,0.2-0.7,0.4s-0.4,0.4-0.6,0.7s-0.4,0.6-0.6,0.8c-0.2,0.3-0.4,0.5-0.6,0.6c0.3-0.1,0.6,0,0.9,0.2c0,0,0,0,0.1,0h-0.1
		c-0.3,0.1-0.7,0.3-1,0.5c-0.3,0-0.5,0-0.8,0c0.2,0,0.4,0,0.5,0.1c-0.1,0.1-0.3,0.1-0.4,0.2l0,0c-0.3,0-0.6,0-1,0
		c-0.6,0-1.4,0.3-1.9,0.1c0.1,0.1,0.3,0.1,0.4,0.2c-0.2,0.1-0.3,0.2-0.5,0.3h-0.1l0,0c-0.2,0.1-0.4,0.1-0.6,0.2
		c-0.4,0.1-0.7,0.2-1.1,0.3c0-0.1,0-0.2,0-0.3c0-0.2-0.1-0.5-0.1-0.8c-0.1-0.3-0.1-0.5,0-0.6c-0.1,0.1-0.4,0.1-0.6,0
		c-0.3,0-0.6-0.1-0.8-0.1c-0.3-0.1-0.5,0-0.7,0c-0.2,0.1-0.3,0.1-0.5,0.2c-0.1,0.1-0.2,0.3-0.2,0.5s0,0.4,0,0.7
		c0,0.2,0.1,0.5,0.1,0.8s0.1,0.5,0,0.6c0.1-0.1,0.3-0.1,0.5-0.1c-0.2,0.1-0.4,0.2-0.6,0.4c-0.3,0.3-0.6,0.6-0.9,1s-0.5,0.8-0.7,1.3
		c-0.2,0.4-0.4,0.9-0.7,1.4c0,0.1-0.1,0.1-0.1,0.2c-0.3,0-0.5-0.2-0.8-0.3c-0.1-0.1-0.3-0.1-0.4-0.2c-0.1,0-0.3,0-0.4-0.1
		c-0.1,0-0.3,0-0.4,0.1c-0.1,0-0.3,0.1-0.4,0.2c-0.3,0.1-0.6,0.3-0.8,0.3c0.1,0,0.1,0,0.2,0.1c-0.2,0-0.4,0.1-0.6,0.2
		C235,139.9,234.8,140.1,234.5,140.3z M285.7,132.2c-0.2-0.3-0.5-0.5-0.7-0.8c0-0.1,0-0.3,0-0.4c0-0.3-0.1-0.6-0.2-0.9l0.1,0.1
		c0.3,0.2,0.7,0.4,1,0.6l0.1,0.1v0.5c0,0.2,0,0.5,0.1,0.8c0,0.4,0.1,0.8,0,1.2C286,132.9,285.9,132.5,285.7,132.2z M292.7,133.6
		v-0.1c0.1,0,0.1,0.1,0.2,0.1v0.1c0,0,0,0,0,0.1C292.8,133.8,292.8,133.7,292.7,133.6z M292.7,135.5c-0.1,0.6-0.2,1.2-0.6,1.7
		c0.1-0.7,0.3-1.4,0.4-2.1c0.1-0.4,0.1-0.9,0.2-1.3c0.1,0,0.1,0.1,0.2,0.1c0,0.3,0,0.5-0.1,0.8C292.8,134.9,292.8,135.2,292.7,135.5
		z M265.8,132.7c0,0.3-0.1,0.6-0.1,0.8c-0.2-0.2-0.3-0.4-0.5-0.5c-0.2-0.2-0.5-0.4-0.7-0.6c0,0-0.1,0-0.1-0.1c0.1,0,0.1-0.1,0.2-0.1
		c0.4-0.1,0.8-0.1,1.2-0.2C265.8,132.2,265.8,132.5,265.8,132.7z M265.8,132.1c0.1,0,0.2,0,0.3,0c0.1,0.1,0.2,0.1,0.3,0.2
		C266.1,132.2,265.9,132.2,265.8,132.1z M275.3,134.6c-0.2-0.1-0.3-0.3-0.5-0.4c-0.2-0.2-0.5-0.3-0.7-0.5c0-0.1,0-0.2,0-0.3
		c0.2,0.1,0.5,0.2,0.7,0.3c0.1,0,0.2,0.1,0.3,0.1C275.3,134.2,275.3,134.4,275.3,134.6z M277,132c-0.1-0.1-0.2-0.2-0.3-0.2
		c-0.1-0.2-0.2-0.4-0.2-0.6c-0.1-0.1-0.1-0.3-0.2-0.4c0.1-0.1,0.3-0.3,0.4-0.4c0.1,0.3,0.3,0.6,0.4,0.8c0.1,0.4,0.3,0.7,0.4,1
		l0.1,0.3C277.3,132.3,277.1,132.1,277,132z M244.9,137.4c-0.1,0-0.3,0-0.4,0c0.3-0.4,0.5-0.8,0.7-1.2c0,0,0-0.1,0.1-0.1h0.1
		c0.1,0,0.2,0,0.3,0c0.1,0,0.2,0,0.4,0c-0.1,0.1-0.1,0.1-0.2,0.2C245.6,136.7,245.3,137.1,244.9,137.4z M246.6,133.8
		c0.1,0.1,0.2,0.2,0.3,0.3c-0.2,0-0.3,0-0.5,0C246.4,134,246.5,133.9,246.6,133.8z M246.3,134.2c0.3,0.2,0.7,0.4,1,0.6
		c0,0,0.1,0,0.1,0.1l0,0c-0.4,0.4-0.7,0.7-1,1.1c-0.1-0.1-0.1-0.3-0.2-0.4c0-0.1-0.1-0.2-0.2-0.3c0-0.1-0.1-0.1-0.2-0.1
		c0-0.1,0.1-0.2,0.1-0.2C246,134.6,246.1,134.4,246.3,134.2z M238.3,141.8L238.3,141.8c0,0-0.1,0-0.1,0.1c-0.2,0.1-0.5,0.2-0.7,0.2
		c0-0.1,0-0.1,0.1-0.2c0-0.1,0-0.2,0.1-0.3C237.8,141.6,238,141.7,238.3,141.8z"/>
	<path d="M355.1,133.3L355.1,133.3c0,0.1-0.1,0.1-0.1,0.2c-0.1-0.3-0.2-0.6-0.1-0.8c-0.1,0.4-0.3,0.7-0.5,1
		c-0.1,0.2-0.2,0.3-0.2,0.5s-0.1,0.3-0.1,0.5c-0.2,0-0.3,0-0.5,0c-0.5,0-1,0.1-1.5,0.2c-0.5,0.1-1,0.3-1.5,0.5s-0.9,0.5-1.4,0.7
		c-0.4,0.3-0.8,0.6-1.3,0.8c0.9-0.5,1.9-0.7,2.8-0.9c0.5-0.1,1-0.1,1.4-0.2c0.5,0,1-0.1,1.4-0.1c0.2,0,0.3,0,0.5,0
		c-0.1,0.3-0.1,0.5-0.3,0.7c0.1-0.2,0.2-0.3,0.4-0.4c0.1,0.3,0.2,0.6,0.2,0.9c0.1-0.4,0.3-0.7,0.5-1c0,0,0-0.1,0.1-0.1h0.1
		c0.3,0,0.7,0,1,0c-0.1,0.2-0.2,0.3-0.4,0.5c0.2-0.2,0.5-0.3,0.7-0.5h0.1c1,0.1,2,0.2,2.9,0.6c-0.5-0.2-0.9-0.5-1.3-0.7
		c-0.3-0.1-0.6-0.2-0.9-0.4c0.3-0.1,0.5-0.3,0.7-0.4c0.2-0.2,0.5-0.4,0.7-0.5c0.2-0.2,0.4-0.4,0.6-0.6c0.2-0.2,0.3-0.4,0.5-0.6
		c0.1,0,0.2,0.1,0.2,0.1c0.2,0.1,0.4,0.1,0.6,0.2c-0.1,0.1-0.2,0.2-0.3,0.3c-0.4,0.4-0.8,0.8-1.3,1c0.5-0.2,1.1-0.2,1.6-0.2
		c0.1,0,0.2,0,0.4,0c-0.1,0.1-0.2,0.2-0.3,0.3c-0.6,0.2-1.1,0.3-1.7,0.4c0.5-0.1,0.9-0.1,1.4-0.1c-0.2,0.2-0.4,0.3-0.7,0.5
		c0.4-0.2,0.8-0.4,1.2-0.5c0.5,0,1.1-0.1,1.6-0.1c-0.5,0.5-0.9,1-1.5,1.3c0.7-0.3,1.7-0.3,2.5-0.4c0.4,0,0.8-0.1,1.2-0.2
		c0.4-0.1,0.8-0.3,1.2-0.4c0.4-0.2,0.7-0.4,1.1-0.6c0,0,0,0,0.1,0h0.3l1.4-0.3c-0.6,0.3-1.3,0.6-2,0.8c0.8-0.2,1.7-0.2,2.6-0.3
		c0.4,0,0.8-0.1,1.1-0.2c-0.3,0.1-0.6,0.3-0.9,0.4c0.4-0.1,0.8-0.2,1.1-0.3c-0.2,0.3-0.4,0.6-0.6,0.8c0.5-0.4,1.2-0.5,1.8-0.6
		c0.1,0,0.2,0,0.2,0c0.9,0.7,1.7,1.4,2.2,2.4c-0.3-0.5-0.6-1-0.9-1.6c0.7-0.6,1.5-1,2.2-1.5l0,0c0.3,0.4,0.6,0.8,1,1.3
		c0.6,0.9,1.3,1.7,1.7,2.7c-0.3-0.8-0.6-1.7-0.9-2.5c0.4,0,0.8,0.2,1.1,0.2c0,0.1,0,0.2,0,0.3c0,0.7,0,1.4-0.1,2.1
		c0.2-0.7,0.5-1.3,0.8-2c0.1-0.1,0.1-0.2,0.1-0.3c0,0,0,0,0.1,0c0.3,0,0.5-0.1,0.8-0.1c0.2-0.1,0.5-0.2,0.7-0.4s0.4-0.3,0.6-0.6
		c0.1-0.1,0.2-0.2,0.2-0.2c0.3,0,0.6,0.1,0.9,0.1c0.3,0,0.6-0.1,0.9-0.2c-0.8,0.3-1.5,0.6-2.3,0.7c0.9-0.2,1.8-0.1,2.7-0.2
		c0.5,0,0.9-0.1,1.4-0.1l1.4-0.2l0.8-0.2l0,0c-0.3,0.1-0.6,0.2-0.9,0.3c0.3-0.1,0.6-0.1,1-0.1c-0.3,0.3-0.6,0.7-1,0.8
		c0.5-0.1,1.2,0.1,1.7,0.2c0.3,0.1,0.6,0.1,0.9,0.1c0.3,0,0.5-0.1,0.8-0.1c0,0,0.1,0,0.1-0.1h0.1c0.3,0,0.7-0.1,1-0.2
		c0.2-0.1,0.5-0.2,0.7-0.3c0,0.1,0.1,0.2,0.1,0.3c0-0.1,0-0.3,0.1-0.4c0.1,0,0.1,0,0.2-0.1c0.3-0.2,0.7-0.4,1-0.6
		c0.1-0.1,0.3-0.2,0.4-0.2c0,0.2-0.1,0.4-0.1,0.6c-0.1,0.6-0.1,1.3-0.3,1.8c0.2-0.6,0.6-1.1,1-1.6c0.2-0.3,0.3-0.5,0.5-0.8
		c0.1-0.2,0.2-0.3,0.2-0.5c0.3-0.1,0.6-0.2,0.9-0.3c0,0.1-0.1,0.1-0.1,0.1c-0.2,0.2-0.4,0.5-0.5,0.7c-0.2,0.3-0.3,0.5-0.4,0.8
		c0,0.1-0.1,0.2-0.1,0.3c-0.1,0-0.3,0.1-0.4,0c0.1,0,0.2,0.1,0.3,0.2c0,0.1-0.1,0.2-0.1,0.3c-0.2,0.4-0.3,0.8-0.5,1.2
		c-0.1,0-0.2,0.1-0.2,0.1c-0.5,0.3-0.9,0.7-1.4,0.8c0.3,0,0.7,0.2,1,0.4c-0.8,0.6-1.6,1.1-2.4,1.7c0.9-0.6,1.9-1,2.9-1.4
		c0.2,0.1,0.4,0.2,0.6,0.2c0.2,0,0.5,0.1,0.7,0.1s0.5-0.1,0.7-0.2c0.1-0.1,0.2-0.1,0.3-0.2c0.5-0.2,1.1-0.3,1.7-0.4
		c0.2,0,0.4-0.1,0.7-0.2c0,0.1,0,0.1,0,0.2c0-0.1,0.1-0.1,0.1-0.2c0.1,0,0.2-0.1,0.3-0.1c0.3-0.1,0.7-0.2,1-0.4s0.6-0.3,0.9-0.5
		c0.3-0.2,0.6-0.4,0.9-0.6c0.6-0.4,1.1-0.9,1.8-1.2c-0.6,0.3-1.4,0.4-2,0.5c-0.4,0.1-0.7,0.2-1,0.3c0,0,0,0-0.1,0
		c0.1-0.1,0.2-0.2,0.4-0.3c0.3-0.1,0.5-0.2,0.8-0.3c1.2-0.5,2.4-1,3.6-1.3c-1,0.2-2.1,0.3-3.1,0.5c0.4-0.3,0.8-0.6,1.3-0.7
		c-0.6,0.1-1.2,0-1.8,0.2c-0.3,0.1-0.6,0.2-0.9,0.3c-0.3,0.1-0.5,0.3-0.8,0.5c-0.1,0.1-0.1,0.2-0.2,0.2c-0.1,0-0.2,0.1-0.4,0.1
		c-0.4,0.1-0.7,0.2-1.1,0.4c0-0.1-0.1-0.1-0.1-0.2c0,0,0,0,0.1-0.1c0.2-0.2,0.3-0.5,0.5-0.7c0.1-0.3,0.3-0.5,0.4-0.8
		c0.3-0.5,0.5-1.1,0.8-1.6c-0.4,0.5-0.9,0.8-1.4,1.2c-0.2,0.2-0.5,0.4-0.7,0.6c-0.2,0.2-0.3,0.4-0.5,0.6c-0.1-0.1-0.2-0.1-0.3-0.2
		c-0.2,0-0.4,0-0.7,0c-0.1,0-0.2,0-0.2,0.1c0.1-0.1,0.2-0.3,0.2-0.4c0.1-0.3,0.2-0.5,0.3-0.8c0-0.1,0-0.1,0.1-0.2h0.1h-0.1
		c0.2-0.5,0.3-1,0.6-1.4c-0.3,0.5-0.8,0.9-1.2,1.3c-0.1,0.1-0.1,0.2-0.2,0.2c-0.3,0-0.7,0-1,0c0.1-0.2,0.1-0.4,0.2-0.6
		c0.1-0.3,0.1-0.6,0.2-0.9c0.1-0.6,0.1-1.3,0.3-1.8c-0.2,0.6-0.6,1.1-1,1.6c-0.2,0.3-0.3,0.5-0.5,0.8c-0.1,0.3-0.3,0.6-0.4,0.8
		c0,0.1,0,0.1-0.1,0.2c-0.3,0-0.6,0-0.9,0h-0.4c-0.1,0-0.1-0.1-0.2-0.1c0-0.2,0-0.4-0.1-0.6c-0.1-0.2-0.1-0.4-0.2-0.6
		c-0.1-0.4-0.4-0.8-0.4-1.2c0,0.3-0.1,0.6-0.2,1c0-0.1,0-0.1,0-0.2c-0.1-0.2-0.1-0.5-0.3-0.7c0-0.1-0.1-0.1-0.1-0.2
		c0.7-0.1,1.3-0.2,2-0.2c-0.7,0-1.4-0.1-2.2-0.2c-0.1-0.3-0.3-0.6-0.3-0.8c0,0.3,0,0.5-0.1,0.8c-0.3,0-0.6,0-0.9,0
		c-0.6,0-1.2,0-1.8,0.1s-1.2,0.2-1.7,0.3c-0.1,0-0.2,0.1-0.2,0.1c-0.3,0-0.5,0-0.8,0c-0.1-0.2-0.3-0.3-0.4-0.5
		c-0.2-0.2-0.4-0.4-0.6-0.5c-0.2-0.2-0.5-0.4-0.8-0.6c0.3-0.2,0.6-0.3,0.9-0.4c-0.3,0.1-0.6,0.2-1,0.3c-0.1-0.1-0.2-0.2-0.3-0.3
		c0.1,0.1,0.1,0.2,0.2,0.4c-0.7,0.2-1.4,0.4-2,0.6c-0.1,0-0.2,0.1-0.3,0.1c-0.5-0.3-0.9-0.7-1.3-1c-0.2-0.2-0.5-0.4-0.7-0.5
		c-0.3-0.2-0.5-0.3-0.8-0.4c-0.3-0.1-0.5-0.2-0.8-0.3s-0.6-0.2-0.9-0.2c-0.6-0.2-1.2-0.2-1.7-0.5c0.5,0.3,1,0.7,1.4,1.1
		c0.2,0.2,0.5,0.4,0.7,0.5c0.1,0.1,0.3,0.2,0.4,0.3c-0.4,0-0.8,0-1.2-0.1c-0.9,0-1.8-0.1-2.7-0.1c-0.5,0-1,0-1.4,0.1
		c-0.4-0.3-0.8-0.6-1.2-0.9c0.3,0.3,0.6,0.6,0.9,0.9c-0.3,0-0.6,0.1-0.9,0.1c-0.1,0-0.2,0.1-0.3,0.1c-0.3-0.2-0.6-0.5-0.9-0.7
		c-0.1-0.1-0.2-0.1-0.3-0.2c0.9-0.4,1.9-0.9,2.9-1c-1,0.1-2.1,0.2-3.1,0.4c-0.2,0-0.5,0.1-0.7,0.2c-0.8-0.4-1.6-0.7-2.4-1.1
		c0.6,0.3,1.1,0.8,1.6,1.3H367c-0.4,0.2-0.9,0.3-1.3,0.5c-0.2-0.1-0.4-0.1-0.6-0.2c-0.4-0.2-0.7-0.2-1.1-0.3c-0.4,0-0.7,0-1,0.1
		s-0.7,0.2-1,0.4l-0.1,0.1c-0.4-0.2-0.8-0.4-1.1-0.7c0.3,0.3,0.7,0.5,1,0.8c-0.2,0.2-0.4,0.3-0.6,0.5c-0.2,0.2-0.5,0.5-0.7,0.7
		c-0.4,0.3-1,0.4-1.5,0.7l0,0c-0.5,0-0.9,0-1.3,0c0.3,0,0.6,0.1,0.9,0.2c-0.1,0-0.2,0.1-0.3,0.1c-0.2,0.1-0.4,0.3-0.7,0.4
		c-0.2,0.1-0.4,0.1-0.6,0.2l0,0c-0.6,0.1-1.1,0.3-1.6,0.3c0.3,0,0.6,0,0.8,0.1h-0.1c-0.1,0.1-0.3,0.2-0.4,0.4
		c-0.2,0.1-0.5,0.2-0.7,0.3c0.2,0,0.4-0.1,0.5-0.1c-0.1,0.1-0.1,0.1-0.2,0.2C355.4,132.9,355.2,133.1,355.1,133.3z M397.5,137.6
		L397.5,137.6c0.2-0.1,0.4-0.2,0.6-0.3C397.9,137.4,397.7,137.5,397.5,137.6L397.5,137.6z M398.8,136.7L398.8,136.7L398.8,136.7
		L398.8,136.7z M394.8,136.4c0.1,0.1,0.1,0.3,0.2,0.4l0,0c-0.2,0-0.5,0.1-0.7,0.2h-0.1C394.4,136.8,394.6,136.6,394.8,136.4z
		 M362.9,131.4C362.9,131.5,362.9,131.5,362.9,131.4C362.8,131.4,362.8,131.4,362.9,131.4C362.8,131.4,362.9,131.4,362.9,131.4z
		 M370.6,132.7l-0.1-0.1c0.1,0,0.1,0,0.2,0C370.6,132.7,370.6,132.7,370.6,132.7z M371.9,131.8c-0.3,0.2-0.5,0.3-0.8,0.5
		c-0.3,0.1-0.6,0.1-0.9,0.1l0,0l1.3-0.5C371.6,131.8,371.8,131.8,371.9,131.8C371.9,131.7,372,131.7,371.9,131.8
		C372,131.8,372,131.8,371.9,131.8z M368.3,133.1l0.7-0.2c0.1,0,0.1,0.1,0.2,0.1c-0.1,0-0.1,0-0.2,0L368.3,133.1L368.3,133.1z
		 M373.2,131.3c-0.2,0.1-0.4,0.1-0.6,0.2c0-0.1-0.1-0.1-0.1-0.2c0.2-0.1,0.5-0.2,0.7-0.4c0.1,0.1,0.1,0.2,0.2,0.3
		C373.3,131.3,373.3,131.3,373.2,131.3z M356.2,135c0.1,0,0.2-0.1,0.3-0.1l0.5-0.3c-0.1,0.1-0.1,0.2-0.2,0.3
		c-0.1,0.1-0.1,0.2-0.2,0.2C356.4,135.1,356.3,135,356.2,135z M360.3,132.6c0-0.1-0.1-0.1-0.2-0.1c0.1-0.1,0.1-0.2,0.2-0.3
		c0.2-0.1,0.5-0.2,0.7-0.4l0.5,0.2c-0.2,0.2-0.3,0.4-0.5,0.5c0.2-0.2,0.4-0.3,0.6-0.5l0,0l0.1,0.1c-0.1,0.1-0.3,0.2-0.4,0.4
		c-0.2,0.2-0.4,0.4-0.7,0.6C360.6,133,360.5,132.8,360.3,132.6z M372.6,134.8c0.4,0,0.9,0,1.3-0.1c0.1,0,0.2-0.1,0.2-0.1
		c-0.3,0.3-0.6,0.7-1,1C373,135.3,372.8,135.1,372.6,134.8z M378,134.6c-0.3,0.3-0.5,0.6-0.8,0.9c0-0.1-0.1-0.2-0.1-0.4
		c-0.2-0.5-0.5-1-0.7-1.5c0.1-0.1,0.3-0.1,0.4-0.2l0.8-0.2c-0.2,0.1-0.5,0.2-0.7,0.2c0.5,0,0.9,0.1,1.4,0.3c0.2,0.1,0.3,0.1,0.5,0.2
		v0.1l0,0C378.4,134.2,378.2,134.4,378,134.6z M385,134.1c-0.1,0-0.1,0-0.2,0.1c0.2-0.1,0.3-0.1,0.5-0.2c0.3-0.2,0.6-0.3,0.9-0.5
		c0.1,0.1,0.2,0.2,0.4,0.3h-0.2L385,134.1z M390.4,131c0,0.2-0.1,0.5-0.1,0.7s0,0.5,0,0.7c-0.1,0-0.2,0-0.3-0.1
		c-0.3,0-0.7,0.1-1,0.2c-0.3,0.1-0.7,0.3-1,0.5s-0.6,0.4-0.9,0.6l-0.6,0.1c-0.1-0.1-0.1-0.3-0.2-0.4c0.1,0,0.2-0.1,0.3-0.1
		c0.2-0.1,0.4-0.1,0.5-0.2c0.1-0.1,0.3-0.2,0.4-0.3c0.1,0,0.2-0.1,0.3-0.1c-0.1,0-0.1,0-0.2,0c0.1-0.1,0.3-0.2,0.4-0.4
		c0.3-0.3,0.5-0.7,0.9-0.9c-0.3,0.2-0.8,0.2-1.2,0.3c-0.2,0-0.4,0.1-0.6,0.1c-0.2,0.1-0.4,0.1-0.5,0.2c-0.1,0.1-0.2,0.2-0.3,0.2
		h-0.1c0.2-0.1,0.4-0.3,0.5-0.4c0.4-0.1,0.9-0.2,1.3-0.4c0.5-0.1,1.1-0.3,1.6-0.4c0.3-0.1,0.5-0.1,0.8-0.2
		C390.5,130.9,390.4,131,390.4,131z M381.3,130.5c0.6-0.4,1.2-0.8,1.8-1.1c0.1,0.3,0.3,0.6,0.4,0.9c0.1,0.2,0.2,0.4,0.3,0.6
		c-0.6,0-1.2,0-1.8,0.1l-1.5,0.1C380.8,130.9,381.1,130.7,381.3,130.5z M379.1,129.6c0.5,0.1,1.1,0.2,1.6,0.4
		c-0.2,0.1-0.4,0.2-0.6,0.2c0,0,0-0.1,0-0.2c0,0.1,0,0.1-0.1,0.2c-0.2,0.1-0.4,0.1-0.6,0.2c-0.5,0.2-1,0.5-1.5,0.8l0,0l-1.6,0.2
		c-0.1,0-0.1,0-0.2,0c-0.1,0-0.2,0-0.3-0.1c-0.5-0.1-0.9-0.2-1.3-0.2c-0.1-0.1-0.2-0.2-0.2-0.3c-0.1-0.1-0.3-0.2-0.4-0.4
		c0.3-0.2,0.6-0.3,1-0.5c1.1-0.3,2.2-0.6,3.3-0.7c-0.7,0-1.3,0-2,0c0.4-0.2,0.7-0.3,1.1-0.4c0.3,0.1,0.5,0.2,0.8,0.3
		C378.5,129.4,378.8,129.5,379.1,129.6z M368,129.6c-0.5,0.2-1,0.5-1.5,0.7c-0.1,0-0.1,0-0.2,0c-0.1,0-0.2-0.1-0.3-0.1
		c0.3-0.2,0.5-0.5,0.8-0.7c0.1-0.1,0.2-0.2,0.3-0.2l0,0c0.2-0.1,0.5-0.2,0.7-0.3c-0.1,0-0.2,0-0.3,0.1c0.1,0,0.1-0.1,0.2-0.1
		c0.2-0.1,0.3-0.2,0.5-0.2c0.2,0.2,0.4,0.4,0.6,0.5l0.2,0.2C368.6,129.4,368.3,129.5,368,129.6z"/>
	<path d="M235.5,46.9c-1.4,0.9-2.7,1.8-4,2.8C232.8,48.7,234.2,47.8,235.5,46.9z"/>
	<path d="M251.3,390.3c-0.3-3.4-0.8-6.8-1.2-10.2l-1.4-10.2l-1.6-10.1c-0.6-3.4-1.2-6.7-1.8-10.1c-1.2-6.7-2.6-13.4-3.7-20.2
		c1,6.8,1.5,13.6,2.3,20.4c0.3,3.4,0.8,6.8,1.2,10.2l1.4,10.2l1.6,10.1c0.6,3.4,1.2,6.7,1.8,10.1c1.2,6.7,2.7,13.4,3.7,20.2
		C252.6,404,252.1,397.1,251.3,390.3z"/>
	<path d="M420,350.1c-0.8,1.6-1.5,3.3-2.3,5c-0.7,1.7-1.3,3.4-1.9,5.1c-0.6,1.7-1.2,3.4-1.7,5.2c-0.5,1.7-1,3.5-1.5,5.2
		c-0.5,1.8-0.9,3.5-1.5,5.2c1.2-3.4,2.8-6.7,4.3-10c0.8-1.6,1.5-3.3,2.3-4.9l2.1-5l2-5c0.6-1.7,1.3-3.4,1.9-5.1
		c1.3-3.4,2.5-6.8,4.1-10.1c-0.8,1.6-1.7,3.2-2.6,4.7c-0.9,1.6-1.8,3.1-2.7,4.7C421.6,346.9,420.8,348.5,420,350.1z"/>
	<path d="M451.8,371.2c0.6-2.6,0.8-5.4,0.4-8c-0.4-2.7-1.4-5.2-3-7.4c1.6,2.1,2.5,4.8,2.8,7.4c0.3,2.7-0.1,5.3-0.8,7.9
		c-1.5,5.1-4.7,9.5-8.1,13.6l-10.4,12.2l-10.3,12.3l-10.1,12.5l-10,12.6c-6.6,8.4-13.1,17-19.9,25.3c6.8-8.3,14-16.3,21-24.4
		l10.5-12.2l10.3-12.3l10.1-12.5c3.3-4.2,6.7-8.4,9.9-12.7C447.5,381.2,450.6,376.5,451.8,371.2z"/>
	<path d="M388.4,425.3l4.8-8.8l4.7-8.9l4.5-9l1.3-2.5c0.1,1.1,0.2,2.2,0.3,3.3c-0.1-1.2-0.2-2.3-0.2-3.5l3.1-6.3l-3.1,6
		c0-0.5-0.1-1.1-0.1-1.6l-0.1-5.3v-5.3l0.2-5.3l0.3-5.3l0.4-5.3l0.4-5.3l0.5-5.3l0.6-5.3l0.7-5.3l0.7-5.3l0.8-5.3l0.9-5.2l1.1-5.2
		l1.2-5.2c0.2-0.7,0.4-1.3,0.6-2c1.9-2.8,3.6-5.6,5.1-8.6c1.1-2.1,2-4.2,2.8-6.4c3.5,0.9,6.9,2,10.2,3.4c3.6,1.5,7,3.4,9.8,5.9
		s5,5.7,6.6,9.1c0.8,1.7,1.6,3.5,2.2,5.3c0.7,1.8,1.3,3.6,1.7,5.4s0.6,3.6,0.3,5.4s-1,3.5-1.9,5.1c-1.9,3.2-4.6,5.9-7.4,8.7
		c-2.7,2.8-5.5,5.8-7,9.5c-1.5,3.6-1.7,8,0.5,11.3c-1.1-1.6-1.5-3.6-1.4-5.6c0.1-1.9,0.6-3.8,1.5-5.5c1.7-3.5,4.6-6.1,7.5-8.7
		c2.9-2.5,5.9-5.2,8.2-8.7c1.1-1.7,2-3.7,2.3-5.8c0.4-2.1,0.2-4.3-0.2-6.2c-0.5-2-1.2-3.9-1.9-5.7c-0.7-1.8-1.5-3.7-2.5-5.4
		c-1.9-3.5-4.4-6.8-7.6-9.3c-3.2-2.4-6.8-4.1-10.5-5.4c-3.4-1.2-6.9-2-10.4-2.9c0.9-2.4,1.8-4.9,2.5-7.5c1.3-4.8,2-9.7,2.6-14.7
		l0.8-7.4c0.2-1.5,0.4-3,0.6-4.5c5.2-0.2,10.5-2.4,14.1-6.3c2-2.1,3.4-4.6,4.4-7.3c0.9-2.7,1.2-5.6,1-8.5c-0.2-2.8-0.8-5.6-1-8.3
		c-0.3-2.7,0-5.5,0.7-8.1c0.7-2.7,1.6-5.4,1.7-8.2c0-0.5,0-1-0.1-1.5c0,0,0,0,0.1,0c1.6-0.4,3.4-0.9,5.4-1.9c1.9-1.3,4-2.7,5.4-5.1
		c0.7-1,1.2-2.1,1.5-3.1c1.5-1,2.8-2.2,4-3.6c-0.8,1-1.8,1.8-2.9,2.4c-0.2-0.3-0.4-0.7-0.6-1.1c0.1-0.7,0.1-1.3,0.1-2
		c-0.1-1.2-0.3-2.2-0.6-3.2V203l0,0c1-0.4,1.6-0.8,2.2-1.3l0.2,0.2l1.1,0.8c0.4,0.2,0.7,0.5,1.1,0.7c0.8,0.5,1.6,0.8,2.3,1.4
		c-0.7-0.6-1.2-1.3-1.8-1.9c-0.3-0.3-0.6-0.6-0.9-1l-1-0.9l-0.1-0.1l0.1-0.1l0.3-0.1l0.8-0.3l1.3-0.5c0.5-0.2,0.8-0.4,1.2-0.6
		l0.6-0.3l0.3-0.1h0.1h-0.1h-0.1c-0.8-0.2-1.6-0.4-2.5-0.7L464,198c-0.2-0.1-0.2-0.1-0.4-0.2s-0.4-0.2-0.7-0.4
		c-0.1-0.1-0.2-0.1-0.2-0.2c0-0.3,0-0.5,0-0.8c0-0.4-0.1-0.7-0.1-1.1c-0.1-0.4-0.1-0.7-0.2-1.1c-0.1-0.4-0.2-0.7-0.3-1.1
		c0-0.1,0-0.1-0.1-0.2c0.1-0.4,0.2-0.8,0.2-1.3c-0.1-0.4-0.2-0.8-0.3-1.2l0.4,0.3c0.3,0.2,0.7,0.5,1.1,0.7c0.4,0.2,0.7,0.4,1.1,0.6
		c0.7,0.4,1.6,0.8,2.2,1.3c-0.7-0.5-1.2-1.2-1.8-1.8c-0.3-0.3-0.6-0.6-0.9-0.9c-0.3-0.3-0.6-0.6-1-0.8l-1.1-0.7
		c-0.2-0.1-0.4-0.2-0.6-0.3c-0.1-0.4-0.3-0.7-0.4-1.1c-0.1-0.1-0.1-0.1-0.2-0.2c0.1-0.4,0.1-0.8,0.2-1.2c0-1,0.1-1.9,0.2-2.8
		l-0.3-0.8c0.7-0.7,1.5-1.3,2.4-1.9c0.5,0.5,0.9,0.8,1.4,1.3c0.6,0.3,1.2,0.5,1.8,0.5c0.5-0.3,0.9-0.7,1.3-1.3
		c0.2-0.4,0.3-0.8,0.5-1.3c0.1-0.2,0.2-0.5,0.2-0.7c0.1-0.3,0.1-0.6,0.2-0.9c0-0.1,0.1-0.3,0.1-0.4c2.8-1.3,5.7-2.4,8.4-3.8
		c-2,1-4.1,1.6-6.2,2.2c-0.7,0.2-1.3,0.4-2,0.6c0-0.1,0.1-0.2,0.1-0.4c0.1-0.7,0.2-1.3,0.3-1.9c0.2-1.3,0.5-2.3,1-2.5
		c-0.5,0.1-1.3-0.7-2.1-1.7c-0.4-0.5-0.8-0.9-1.2-1.5c-0.4-0.5-0.8-0.9-1.2-1.4c-0.2-0.3-0.4-0.5-0.6-0.7c-0.2-0.2-0.4-0.4-0.5-0.5
		s-0.1-0.1-0.2-0.1c0.3-0.5,0.5-1.1,0.7-1.6c1.2,2.1,2.6,4,4.4,5.6c1.4,1.2,3,2,4.7,2.5c-0.6,0-1.1,0.1-1.7,0.2
		c-0.7,0.1-1.4,0.3-2,0.4l0.1,0.1c0.4,0.2,0.5,0.2,1,0.4l1.3,0.4c0.5,0.1,0.9,0.3,1.6,0.3c0.7-0.1,1.3-0.2,1.6-0.5
		c0.2-0.2,0.5-0.3,0.7-0.4c-0.2,0-0.5,0-0.7-0.2c-0.2-0.1-0.2-0.1-0.2-0.2s0-0.1,0.1-0.1c0,0,0,0,0.1,0h-0.1H476h-0.1c0,0,0,0,0-0.1
		c0,0,0.1,0,0.2-0.1c0.3,0,0.7,0.1,1,0.1c-0.3,0-0.7,0-1-0.1c0.1,0,0.2-0.1,0.3-0.1c-0.1,0-0.2,0-0.4-0.1s-0.6-0.2-1-0.2
		c-0.1,0-0.2,0-0.4,0c-1.7-0.6-3.3-1.6-4.6-2.9c-1.8-2-3.1-4.3-4.1-6.8c0-0.1,0-0.1-0.1-0.2c0.1-0.3,0.2-0.7,0.4-1
		c0.4-1.9,0.6-3.7,0.7-5.6c-0.2-1.8-0.6-3.7-1.1-5.5c-0.9-1.8-1.5-3.7-2.8-5.5c-0.4-0.6-0.8-1.3-1.2-1.9c0.1-1.2,0.1-2.4,0.2-3.6
		c0,0,0,0.1,0.1,0.1c0.9,1.9,2,3.7,2.8,5.6c-0.8-1.9-1.5-3.9-2.2-5.9c-0.2-0.6-0.4-1.1-0.6-1.7c0-0.1,0-0.2,0-0.3
		c-0.2-2.8-0.4-5.5-0.7-8.3c-0.4-2.7-0.9-5.5-1.4-8.2c-0.7-2.1-1.4-4.3-2.1-6.4c1.2,0.9,2.5,1.8,3.6,2.9c-1.1-1.1-2.1-2.3-3.2-3.4
		c-0.3-0.3-0.6-0.6-0.9-1c-1.1-2.5-2.2-5.1-3.3-7.6l-4.4-7.1c-1.6-2.3-3.3-4.5-5.1-6.5s-3.6-3.9-5.5-5.8v-0.1l0.1,0.1l1.4,1
		c0.5,0.3,0.9,0.6,1.4,0.9c1,0.6,2,1.2,2.9,1.9c-0.9-0.7-1.6-1.6-2.5-2.4c-0.4-0.4-0.8-0.8-1.2-1.2l-1.3-1.1l-0.7-0.5
		c0-0.2,0-0.3,0.1-0.5c0.4,0.4,0.8,0.7,1.2,1.1c0.6,0.6,1.3,1.1,1.9,1.7c0.6,0.6,1.2,1.1,1.8,1.7c0.6,0.6,1.2,1.2,1.8,1.8
		c1.2,1.2,2.4,2.5,3.3,3.9c-0.5-0.7-0.9-1.5-1.3-2.2c-0.5-0.7-0.9-1.5-1.4-2.2s-1-1.4-1.6-2s-1.2-1.3-1.8-1.9c0,0-0.1,0-0.1-0.1
		c-0.6-1-1.1-2.1-1.8-3c-0.4-0.7-1-1.4-1.5-2.1c0.2,0.2,0.4,0.4,0.5,0.6c0.8,0.9,1.7,1.8,2.4,2.8c-0.7-1-1.3-2.2-1.9-3.2
		c-0.2-0.5-0.5-0.9-0.8-1.4c0.6,0.1,1.1,0.3,1.6,0.5c0.1,0.1,0.2,0.2,0.2,0.4c-0.1-0.1-0.1-0.2-0.1-0.3c0.1,0,0.3,0.1,0.4,0.1
		c-0.1-0.1-0.3-0.1-0.4-0.2c-0.3-0.7-0.5-1.4-0.8-2.1c-0.1-0.2-0.1-0.3-0.2-0.5c0.3,0.3,0.6,0.6,0.8,0.9c-0.5-0.8-0.9-1.6-1.4-2.4
		c-0.2-0.3-0.4-0.6-0.6-0.9c-0.1-2.3-0.4-4.5-0.9-6.8c0.6,0.5,1.1,1,1.7,1.5c-0.6-0.5-1.1-1-1.7-1.5c-0.1-0.5-0.2-1-0.3-1.4
		c-0.9-4.4-3.1-8.2-5.3-11.8c-2.5-3.3-5.5-6.3-8.7-8.8c-3.4-2-6.8-3.6-10.2-4.9c-3.7-0.8-7.1-1.8-10.9-1.9c-0.4,0-0.8-0.1-1.2-0.1
		c-2.6-1.7-5.2-3.4-7.8-5c-3.3-2-6.6-3.9-9.9-5.7c0-0.1-0.1-0.2-0.1-0.3c-0.2-0.3-0.3-0.6-0.5-0.9c-0.2-0.2-0.3-0.4-0.5-0.7
		c0.1,0,0.3,0,0.4,0c0.5,0.2,1.1,0.4,1.7,0.6l2.2,0.7l2.2,0.6c0.8,0.2,1.5,0.4,2.3,0.5c1.5,0.3,3.1,0.5,4.6,1
		c-1.5-0.4-2.9-1.1-4.4-1.6c-0.7-0.3-1.5-0.5-2.2-0.8l-2.2-0.7l-2.2-0.6c-0.8-0.2-1.5-0.4-2.3-0.5c-0.3-0.1-0.6-0.1-0.9-0.2
		c-0.2-0.2-0.4-0.5-0.5-0.7c0.1,0.2,0.2,0.4,0.3,0.7c-0.3-0.1-0.5-0.1-0.8-0.2c-0.1,0-0.2,0-0.2-0.1l-1.8-0.4l-1.8-0.3
		c-0.3,0-0.6-0.1-0.9-0.1c-1.1-0.5-2.2-1-3.3-1.5c-0.3-0.2-0.6-0.4-0.9-0.6c-0.6-0.4-1.2-0.7-1.8-1.1c0.3,0.1,0.7,0.2,1,0.2
		c1.4,0.3,2.7,0.4,4.1,0.8c-1.3-0.4-2.6-1-3.9-1.5c-0.4-0.2-0.8-0.3-1.3-0.5c0.4,0.1,0.7,0.2,1.1,0.3c-0.9-0.3-1.8-0.9-2.7-1.3
		c-0.4-0.2-0.9-0.4-1.4-0.6l-1.4-0.5l-1.4-0.4c-0.2-0.1-0.5-0.1-0.7-0.2c-0.8-0.4-1.5-0.8-2.3-1.2h1c0.7-0.1,1.4-0.1,2.1-0.2
		c1.4-0.1,2.8-0.3,4.2-0.4c-1.4,0-2.8-0.2-4.2-0.4c-0.7-0.1-1.4-0.1-2.1-0.2l-2.1-0.1h-1.1c-3.8-1.8-8-3.4-12.6-4.3
		c-5.2-1-10.8-1.2-16.5,0.1c0,0,0,0-0.1,0c-1.5,0-3.1-0.1-4.6,0c-2.1,0-4.2,0.2-6.3,0.4c-1.9-0.1-3.8-0.2-5.6-0.4
		c1.2,0.1,2.4,0.4,3.5,0.6c-2.1,0.2-4.2,0.6-6.2,1c-0.9,0.2-1.7,0.4-2.6,0.6c-0.1,0-0.3,0-0.4,0c-0.8,0-1.6,0-2.4-0.1
		c-0.8,0-1.6-0.1-2.4-0.1c-1.6-0.1-3.3-0.3-4.8-0.7c0.8,0.2,1.6,0.5,2.3,0.8c0.8,0.2,1.6,0.5,2.4,0.7c0.6,0.2,1.3,0.3,2,0.4
		c-2,0.5-3.9,1.2-5.9,1.9c-0.2-0.1-0.4-0.2-0.6-0.2c-0.4-0.1-0.8-0.2-1.1-0.3c-0.4-0.1-0.8-0.2-1.2-0.2c-0.4,0-0.8-0.1-1.2-0.1
		c-0.8-0.1-1.6,0-2.4-0.2c0.8,0.2,1.5,0.6,2.2,0.9c0.4,0.2,0.7,0.3,1.1,0.4s0.8,0.2,1.1,0.3c0.1,0,0.2,0,0.3,0.1
		c-0.2,0.1-0.4,0.1-0.6,0.2l-0.5,0.2c-0.9,0.2-1.8,0.3-2.6,0.5c-1.2,0.2-2.4,0.5-3.6,0.7c-0.5-0.1-1-0.2-1.5-0.3
		c-0.3-0.1-0.6-0.1-0.9-0.2c0.4-0.3,0.9-0.7,1.3-1.1c1-0.8,1.9-1.7,3-2.5c-1.1,0.7-2.3,1.3-3.4,1.9c-0.6,0.3-1.1,0.6-1.7,0.9
		l-0.6,0.4l-1.7-0.3l-2.1-0.2c-0.7,0-1.4-0.1-2.1-0.1c-1.4,0-2.8,0-4.1-0.1c1.4,0.2,2.7,0.6,4,0.8c0.7,0.2,1.3,0.3,2,0.4l2,0.3h0.5
		l-1.2,0.8c-0.5,0.4-0.9,0.7-1.4,1.1c-5,1.5-9.9,3.4-14.7,5.6c-4.6,2.2-9,4.7-13.3,7.5c-0.8,0.3-1.7,0.4-2.5,0.7
		c-0.5,0.1-1,0.3-1.5,0.4l-1.5,0.5l-1.4,0.6c-0.5,0.2-0.9,0.5-1.4,0.7c-0.9,0.5-1.8,1.1-2.8,1.5c1-0.4,2-0.5,3.1-0.8
		c0.5-0.1,1-0.3,1.5-0.4l0.7-0.2c-0.5,0.3-1,0.5-1.5,0.8c-1.4,0.8-2.7,1.5-4,2.4c-1.3,0.8-2.6,1.7-3.9,2.6c-1.2,0.9-2.5,1.9-3.7,2.9
		s-2.4,2-3.5,3.1c-1.1,1-2.3,2.1-3.4,3.2c2.3-2.1,4.8-3.9,7.4-5.7c1.3-0.9,2.5-1.7,3.8-2.6c1.3-0.9,2.6-1.7,3.9-2.5s2.6-1.6,3.9-2.4
		c0.5-0.3,1-0.6,1.4-0.9c-1.6,1.1-3.1,2.3-4.6,3.5c-0.1,0.1-0.1,0.1-0.2,0.2c-2.8,1.7-5.5,3.4-8.2,5.3c2.5-1.7,5-3.2,7.6-4.7
		c-2.5,2.2-4.9,4.5-7.2,6.9c-0.6,0.3-1.1,0.7-1.7,1c0.4-0.2,0.9-0.4,1.3-0.6c-2.4,2.5-4.7,5.1-6.8,7.8l-0.7,0.5
		c-0.7,0.5-1.5,1.1-2.2,1.6c-1.5,1.1-2.8,2.3-4.4,3.3c1.5-1,3.2-1.8,4.7-2.7c0.2-0.1,0.5-0.3,0.7-0.4c-0.6,0.7-1.2,1.5-1.7,2.2
		c-2,2.9-3.9,5.9-5.6,8.9c-0.9,0.3-1.8,0.6-2.8,0.9c0.8-0.2,1.7-0.3,2.5-0.4c-0.4,0.7-0.8,1.3-1.1,2c-0.9,0.1-1.8,0.2-2.7,0.3
		c-1.3,0.2-2.7,0.3-4,0.5l-4,0.6l-4,0.7c-1.3,0.3-2.6,0.5-3.9,0.8c-2.6,0.5-5.2,1.2-7.9,1.6c2.6-0.4,5.3-0.6,8-0.9
		c1.3-0.2,2.7-0.3,4-0.5l4-0.6l4-0.7c1.3-0.3,2.6-0.5,3.9-0.8c0.8-0.2,1.6-0.3,2.3-0.5c-0.1,0.1-0.1,0.2-0.2,0.3
		c-0.8,0.7-1.5,1.4-2.3,2.1c-1.3,1.2-2.7,2.4-4.1,3.6c-1.4,1.2-2.8,2.3-4.2,3.4c-1.4,1.1-2.9,2.1-4.5,3.1c1.6-1,3.1-1.9,4.6-2.9
		s3-2,4.5-3c1.5-1.1,2.9-2.2,4.3-3.3c0.1,0,0.1-0.1,0.2-0.1c-0.4,0.8-0.8,1.6-1.2,2.4c-1,0.6-2,1.2-3,1.8c0.9-0.5,1.9-1,2.8-1.4
		c-0.3,0.7-0.6,1.4-1,2.2c-0.1,0.1-0.2,0.1-0.3,0.2c-1,0.5-2,1.2-3.1,1.6c1-0.4,2-0.6,3-0.9c-0.5,1.1-0.9,2.2-1.3,3.3v0.1
		c-1.4,0.7-2.9,1.5-4.3,2.2c-3.4,2.1-6.6,4.4-9.7,6.8c-2.7,2.7-5.9,5.7-8.9,9.9c-1.3,2.2-2.6,4.7-3.5,7.4c-0.5,1.6-0.9,3.3-1,4.9
		c-0.4,0.4-0.7,0.8-1.1,1.3c-1.1,1.3-2.2,2.7-3.4,4c1.2-1.2,2.6-2.3,3.9-3.5c0.2-0.1,0.3-0.3,0.5-0.4c0,0.8,0,1.6,0.1,2.4
		c0,0.7,0.1,1.3,0.2,2c-0.2,0.4-0.3,0.7-0.5,1.1c-0.3,0.7-0.6,1.4-0.9,2.1l-0.8,2.2l-0.6,1.8l-0.1,0.1c-0.7,0.8-1.3,1.6-1.6,2.5
		c0.1,0.5,0.3,1.1,0.6,1.6c-0.2,1-0.5,2-0.8,2.9c0.3-0.8,0.7-1.7,1.1-2.5c0.1,0.2,0.2,0.4,0.4,0.6c0.6,0.5,1,0.9,1.6,1.4
		c0.2,0.1,0.3,0.3,0.5,0.4l-0.5,1.5c-0.2,0.8-0.5,1.7-0.7,2.5c-0.4,1.7-0.8,3.4-1.3,5.1c0.6-1.7,1.3-3.2,2-4.9
		c0.4-0.8,0.7-1.6,1-2.4l0.4-1.3c0.2,0.1,0.5,0.3,0.7,0.4c0.1,0.1,0.2,0.1,0.3,0.2c0.3,1.1,0.7,2.1,1.2,3.1c0.3,0.7,0.6,1.3,0.9,1.9
		c0,0.1-0.1,0.2-0.1,0.4c-0.1,0.3-0.1,0.7-0.1,1s0,0.7,0,1.1c0,0.7,0.1,1.4,0,2.1c0.1-0.7,0.5-1.3,0.7-2c0.1-0.3,0.2-0.7,0.4-1l0,0
		c0.3,0.6,0.6,1.1,0.9,1.7c-0.1,0.4-0.2,0.8-0.2,1.2c-0.1,1.1-0.1,2.1-0.1,3.2c-0.1,0.2-0.2,0.4-0.3,0.6l-0.7,1.8l-0.6,1.8
		c-0.2,0.6-0.3,1.2-0.5,1.8c-0.3,1.2-0.5,2.5-0.9,3.7c0.4-1.2,1.1-2.3,1.6-3.5c0.3-0.6,0.5-1.2,0.8-1.7l0.6-1.6
		c0.1,1.3,0.2,2.6,0.4,3.9c0.9,3.2,2.1,6.2,3.5,9.1c1,1.6,2,3.2,3.2,4.7c-0.2,0.2-0.5,0.4-0.7,0.5c-0.5,0.4-0.9,0.8-1.4,1.3
		c-0.2,0.4-0.4,0.7-0.6,1.1V174c0-0.4-0.1-0.9-0.2-1.3c-0.1-0.9-0.3-1.8-0.3-2.7c0,0.9-0.2,1.8-0.3,2.7c-0.1,0.4-0.1,0.9-0.2,1.3
		l-0.1,1.3l0.1,1.3c0.1,0.4,0.1,0.9,0.2,1.3c0.1,0.9,0.3,1.8,0.4,2.7c0-0.9,0.2-1.8,0.4-2.7c0.1-0.4,0.1-0.9,0.2-1.3v-0.3
		c0.2,0.4,0.5,0.9,0.9,1.3c0.5,0.4,1,0.7,1.5,1.1c0.3,0.2,0.5,0.4,0.9,0.5c0.1,0.1,0.3,0.1,0.4,0.2c0.1,2.2,0.1,4.4,0.2,6.7
		c-0.2,0.1-0.4,0.2-0.6,0.3c-0.5,0.2-1.1,0.5-1.6,0.7s-1.1,0.4-1.7,0.6c-1.1,0.3-2.3,0.6-3.5,0.6c0.6,0,1.2,0.1,1.8,0.1
		c0.6,0,1.2,0,1.8,0c0.6,0,1.2-0.1,1.8-0.3c0.6-0.2,1.2-0.4,1.8-0.6c0.1,0,0.1-0.1,0.2-0.1c0,0.1,0,0.2,0,0.3
		c-0.1,0.4-0.2,0.9-0.3,1.3c-1,0.5-2,1.1-3.1,1.3c0.6-0.1,1.2-0.2,1.8-0.3c0.4-0.1,0.8-0.2,1.1-0.3c-0.6,2.2-0.6,4.2-0.9,5.9
		c0.1,1.7,0.2,3.3,0.5,4.8c0.7,1.4,1.5,2.8,2.4,4.2c0.3,0.3,0.6,0.7,1,1c1.1,3.5,2.8,6.8,5.3,9.5c2.9,3.2,6.9,5.5,11.1,6.4
		c-4.2-1-8.1-3.3-11-6.5c-2.2-2.5-3.7-5.5-4.7-8.6c0.7,0.8,1.5,1.5,2.4,2.3c1.6,1.4,3.3,2.9,4.8,4.6c1.5,1.6,2.9,3.4,3,5.2
		c0-1.8,1.2-3.7,2.5-5.7c0.7-1.1,1.4-2.2,2-3.4c0,0.5,0,0.9,0,1.4c0-0.5,0.1-1.1,0.1-1.6c0.5-0.9,0.9-1.7,1.4-2.6l0,0
		c-0.6,7.1-0.7,14.2-0.5,21.3c0.1,4,0.3,8.1,0.5,12.1c-1.1-0.1-2.2,0.3-3.1,0.9c-1.2,0.9-1.9,2.5-1.8,4.1c0,0.1,0,0.2,0.1,0.3
		l-0.1-0.1c-0.7-1.1-0.8-2.5-0.7-3.9c0.1-1.4,0.3-2.9,0.5-4.3s0.5-2.9,0.7-4.3c0.6-2.8,1.3-5.7,2.3-8.4c-1.1,2.7-2.2,5.4-3,8.2
		c-0.4,1.4-0.8,2.8-1.1,4.3c-0.3,1.5-0.5,2.9-0.7,4.4c-0.1,1.5,0.1,3.2,1,4.5c0.3,0.5,0.7,0.9,1.2,1.3c-0.9,1.4-1.8,2.8-2.6,4.3
		c-0.6,1-1.1,2.1-1.5,3.2c-0.3,1.2-0.5,2.4-0.3,3.7c0.3,1.2,0.9,2.4,1.7,3.3c0.9,0.9,2,1.6,3.2,1.8c2,0.5,4.1-0.1,5.7-1.4
		c0.3,2.8,0.7,5.6,1.2,8.4c2.4,14,6.8,27.6,12.7,40.4c-5.9-12.9-9.9-26.6-12-40.6c-1.1-7-1.6-14-2-21.1c-0.1-3-0.3-5.9-0.4-8.9l0,0
		l0,0c-0.2-4.1-0.3-8.2-0.5-12.3c-0.2-7.1-0.1-14.1,0.4-21.2c0.1-1.1,0.2-2.2,0.2-3.3c0.3-1.2,0.6-2.3,0.8-3.5
		c0.1-1.4,0-2.8-0.1-4.1c0-0.3,0.1-0.6,0.1-0.9c1.4-4.4,2.9-8.8,4.2-13.3c1.6-4.9,2.5-9.7,3.6-14.6c0.7-4.9,1.1-9.8,1.5-14.4
		c0-4.7-0.1-9.2,0-13.7c-0.2-2.8-0.2-5.6-0.2-8.4c0.1,0.4,0.3,0.7,0.4,1.1c0.2,0.7,0.4,1.4,0.6,2.2c0.2,0.7,0.4,1.5,0.5,2.2
		s0.2,1.5,0.4,2.3c0.1,0.8,0.1,1.5,0.1,2.3s-0.1,1.5-0.2,2.3c0.2-0.8,0.3-1.6,0.5-2.3c0.1-0.8,0.2-1.6,0.3-2.3c0.1-0.8,0-1.6,0-2.4
		c-0.1-0.8-0.2-1.6-0.4-2.3c-0.2-0.8-0.5-1.5-0.8-2.3c-0.3-0.7-0.7-1.4-1.1-2.1c0,0,0,0-0.1-0.1l0.3-2.2c0.5-2.9,0.9-5.9,1.9-8.7
		v0.7l0.1,1.9c0.1,0.6,0.1,1.3,0.2,1.9c0.1,1.3,0.3,2.6,0.4,3.8c0-1.3,0.2-2.6,0.4-3.8c0.1-0.6,0.1-1.3,0.2-1.9l0.1-1.9l-0.1-1.9
		c0-0.4-0.1-0.8-0.1-1.2l0,0c0.1-0.1,0.1-0.3,0.2-0.4l3-0.6c1.5-0.1,2.9-0.4,4.2-0.8l3.8-0.8c1.1-0.4,2.2-0.8,3.3-1.3
		c0.7-0.3,1.3-0.6,2-0.9c0.4,0.4,0.8,0.7,1.2,1c0.9,0.8,1.9,1.6,2.8,2.5c-0.8-0.9-1.5-2-2.3-2.9c-0.1-0.1-0.2-0.3-0.3-0.4
		c1,0.3,2,0.6,3.1,0.9c1.8,0.4,3.9,0.8,6.1,0.9c1,0,1.9,0,2.9-0.1c0.1,0.1,0.3,0.1,0.4,0.2l2.2,0.7l2.2,0.6c0.8,0.2,1.5,0.4,2.3,0.5
		c1.5,0.3,3.1,0.5,4.6,1c-1.5-0.4-2.9-1.1-4.4-1.6c-0.7-0.3-1.5-0.5-2.2-0.8l-2.2-0.7L264,113c0.3,0,0.5-0.1,0.8-0.1
		c3.1-0.6,5.7-1.3,7.9-2c0.2,0.1,0.5,0.2,0.8,0.3s0.7,0.2,1,0.3s0.7,0.2,1,0.2c0.4,0,0.7,0.1,1.1,0.1c0.7,0.1,1.4,0,2.1,0.2
		c-0.7-0.2-1.3-0.6-1.9-0.9c-0.3-0.2-0.6-0.3-1-0.4c-0.3-0.1-0.7-0.2-1-0.3c-0.1,0-0.1,0-0.2,0c1.2-0.4,2.2-0.6,3.1-0.8
		s1.6-0.2,2.2-0.2c0.5,0.1,0.8,0.1,1.1,0.3c0.4,0.2,1,0.4,1.9,0.9s2,1.2,3.3,2c0.7,0.4,1.4,0.8,2.2,1.3c0.9,0.5,1.8,1,2.8,1.4
		c0.5,0.2,1,0.4,1.6,0.6c0.6,0.2,1,0.4,1.8,0.6c1.4,0.4,2.8,0.7,4.3,0.9c0.1,0,0.2,0,0.3,0c-0.5,0.1-0.9,0.3-1.4,0.4
		c0.6-0.1,1.2-0.3,1.8-0.4c0.6,0.1,1.2,0.1,1.7,0.1c0.9,0.1,1.8,0.2,2.6,0.5c-0.4-0.1-0.8-0.3-1.2-0.5c1.6-0.1,3.2-0.3,4.7-0.8
		c0.8-0.2,1.6-0.6,2.4-0.9c0.4-0.2,0.9-0.5,1.3-0.7c0.8-0.2,1.6-0.3,2.4-0.4c0.4,0,0.8-0.1,1.3-0.2c0.4-0.1,0.8-0.2,1.2-0.3l1.2-0.4
		c0.2-0.1,0.5-0.2,0.7-0.3l0.2,0.3c0.2,0.3,0.4,0.5,0.6,0.9c0.5,0.6,1,1.2,1.6,1.8c0.5,0.4,0.9,0.8,1.4,1.2l-0.5,0.2
		c-0.4,0.2-0.8,0.4-1.2,0.7c-0.8,0.4-1.6,1-2.4,1.3c0.9-0.3,1.8-0.5,2.7-0.7c0.5-0.1,0.9-0.2,1.3-0.4l1.2-0.4c0.9,0.5,1.7,1,2.6,1.4
		c1,0.4,2.1,0.7,3.2,0.9c2.1,0.4,4.3,0.2,6.2-0.3l0.9,0.7l1.1,0.9l0.6,0.4c-0.1-0.2-0.2-0.4-0.3-0.6l-0.8-1.8
		c1.3-0.5,2.4-1.1,3.3-1.6l0,0c0,0.1,0,0.2,0,0.2c0,0.1,0,0.3,0.1,0.4c0.1,0.2,0.2,0.5,0.2,0.7c-0.5,0.2-0.9,0.5-1.4,0.7
		c1.1-0.4,2.3-0.6,3.4-1c0.6-0.1,1.1-0.3,1.7-0.5l1.7-0.6l1.6-0.7c0.5-0.3,1.1-0.5,1.6-0.8c1.1-0.5,2.1-1.2,3.2-1.6
		c-1.1,0.4-2.3,0.6-3.4,1c-0.6,0.1-1.1,0.3-1.7,0.5l-1.7,0.6l-0.9,0.4c0.6-0.6,1.2-1.2,1.9-1.8c0.4-0.3,0.7-0.7,1-1l1-1.1l0.9-1.2
		c0.3-0.4,0.5-0.8,0.8-1.2c0.1-0.2,0.2-0.3,0.3-0.5c0.7-0.2,1.4-0.3,2.2-0.4c0.7-0.1,1.4-0.1,2.2-0.1l-0.1,0.1
		c-0.4,0.5-0.8,0.9-1.2,1.4c-0.8,0.9-1.5,1.9-2.3,2.8c0.9-0.8,1.9-1.5,2.8-2.3c0.5-0.4,0.9-0.8,1.4-1.1l0.8-0.8l3.2,2.5l4.3,3.3
		l2.1,1.7l0.5,0.4l0.1,0.1l0.1,0.1c0,0,0,0,0-0.1l-0.2-0.3l-0.6-1.2l-3-6.1l2.3,0.2c0.4,0.1,0.9,0.2,1.3,0.4
		c2.6,2.2,5.2,4.5,7.9,6.6c1.9,1.4,4.3,2.8,7,2.3c0.6-0.1,1.2-0.4,1.7-0.7c0.3,0.2,0.6,0.3,0.9,0.5c2.1,1,4.3,1.7,6.3,2.3
		c4.1,1.3,7.7,1.7,9.8,2.8c1.9,0.7,3.5,1.7,5.3,2.8c-0.1,0.1-0.1,0.1-0.2,0.2c-0.1,0.1-0.2,0.3-0.2,0.4c-0.1,0.3-0.2,0.7-0.4,0.9
		c0.2-0.2,0.6-0.3,0.9-0.4c0.2,0,0.3-0.1,0.4-0.2c0.1-0.1,0.2-0.2,0.4-0.3c0,0,0.1-0.1,0.1-0.2c1.6,0.8,3.4,1.8,5.1,3
		c0.3,0.3,0.5,0.7,0.7,1.1c-0.1-0.3-0.2-0.6-0.3-0.9c0.8,0.4,1.5,0.9,2.3,1.4v0.1c0,0.2,0,0.4,0,0.6c0,0.2,0.1,0.4,0.1,0.6
		c0.1,0.2,0.2,0.4,0.2,0.6c0.1,0.2,0.2,0.4,0.3,0.5c0.2,0.3,0.6,0.7,0.7,1c-0.1-0.4,0-0.8-0.1-1.3c0-0.2,0-0.4,0-0.6
		c0-0.2-0.1-0.4-0.1-0.6c0,0,0-0.1-0.1-0.1c0.3,0.2,0.7,0.5,1,0.8c0.2,0.3,0.3,0.7,0.5,1l0.8,1.4l0.9,1.3c0.3,0.4,0.7,0.9,1,1.3
		c0.7,0.8,1.5,1.6,2.1,2.5c-0.6-0.9-1-1.9-1.5-2.9c-0.2-0.5-0.5-1-0.7-1.4l-0.8-1.4v-0.1c0.2,0.2,0.4,0.3,0.6,0.5
		c2.1,1.8,4.4,3.8,6.5,6.1c0.2,0.8,0.4,1.7,0.6,2.6c0,0.1,0,0.2,0,0.2c0,0.4-0.1,0.8-0.1,1.1c0,0.4,0,0.8,0,1.2s0.1,0.8,0.2,1.2
		c0.1,0.8,0.3,1.5,0.3,2.3c0-0.7,0.2-1.3,0.3-2c0.1,0.6,0.2,1.1,0.2,1.7c0,0.3,0,0.6,0.1,0.9c0,0.3-0.1,0.6-0.1,0.9
		c0,0.1,0.1,0.3,0.2,0.4c0.1,1.7,0.2,3.4,0.3,5.2c-0.8,1.6-1.5,3.2-2.3,4.8c-1.2,3.2-2.3,6.5-3.2,10c-0.5,3.6-0.8,7.4-0.7,11.3
		c0.5,3.8,0.9,7.7,2.3,11.5c0,0.1-0.1,0.2-0.1,0.3l-0.5,1.7L422,200c-0.1,0.6-0.2,1.2-0.3,1.8c-0.2,1.2-0.2,2.4-0.5,3.5
		c0.3-1.1,0.8-2.2,1.2-3.4c0.2-0.6,0.4-1.1,0.6-1.7l0.5-1.7l0.1-0.5c1,2.7,2.3,5.3,3.7,7.8c0.1,0.9,0.2,1.8,0.4,2.7
		c1,6.8,2.5,13.4,4.3,20c-0.5,2.8-1,5.6-1.5,8.4c-0.8,4.9-1.8,9.7-2.5,14.6c-0.8,4.9-1.5,9.8-2.3,14.7c-0.4,2.4-0.8,4.9-1.1,7.3
		l-0.8,7.4c-0.5,4.9-1.2,9.8-2.4,14.5c-1.2,4.8-2.9,9.4-5,13.8c-1.2,2.6-2.6,5.1-4.1,7.5c0.2-0.6,0.3-1.2,0.5-1.7
		c-0.2,0.6-0.4,1.3-0.6,1.9c-3.6,5.9-8.1,11.3-13.3,15.9c3.7-3.3,7.1-6.9,10.2-10.8c0.9-1.2,1.8-2.4,2.6-3.6
		c-0.7,2.3-1.4,4.5-2.1,6.8l-1.5,5.1l-1.3,5.2l-1.2,5.2l-1,5.3l-0.8,5.3l-0.7,5.3l-0.4,5.4l-0.3,5.4l-0.1,5.4l0.1,5.4l0.3,5.4
		l0.4,5.3c0.2,2.4,0.5,4.7,0.7,7.1l-1.4,2.7l-4.9,8.8l-5,8.7l-5.2,8.6l-5.3,8.5l-5.4,8.4l-5.5,8.4l-5.6,8.3l-5.7,8.2l-5.8,8.1
		l-5.9,8.1l-6,8l-6.2,7.9l-6.3,7.8l-6.5,7.7l-6.7,7.5l6.8-7.4l6.7-7.4l6.6-7.5l6.5-7.7l6.3-7.8l6.2-7.9l6-8.1l5.8-8.2l5.6-8.4
		l5.4-8.5l5.2-8.6L388.4,425.3z M198.8,180.8c0.1,0,0.1,0.1,0.2,0.1l0.1,0.7c0.1,0.5,0.2,1.1,0.3,1.6v0.1c-0.2,0.5-0.4,1-0.6,1.5
		C198.7,183.4,198.8,182.1,198.8,180.8z M188.9,140.5c0-0.1-0.1-0.2-0.1-0.3c0.1,0,0.1,0.1,0.2,0.1C189,140.4,189,140.4,188.9,140.5
		z M384,31.2c0.2,0.3,0.5,0.5,0.7,0.8c-0.6-0.5-1.2-1-1.9-1.4C383.2,30.8,383.6,31,384,31.2L384,31.2z M316,111.5
		C316,111.5,315.9,111.5,316,111.5c0-0.2,0-0.3,0.1-0.3c0.1-0.1,0.2,0,0.2,0.1c0.1,0.1,0.1,0,0.2,0.2c0.2,0.4,0.4,0.8,0.7,1.2
		c-0.5,0.1-0.9,0.2-1.4,0.3c-0.7,0.1-1.3,0.3-2,0.4c0.3-0.3,0.7-0.5,1-0.8c0.3-0.2,0.6-0.5,0.8-0.7L316,111.5
		C316.1,111.4,316,111.5,316,111.5z M252.2,71.7L252.2,71.7L252.2,71.7L252.2,71.7L252.2,71.7z M375,62.9c-0.9,0.5-1.8,1.1-2.7,1.6
		c0.2-0.4,0.4-0.9,0.6-1.4C373.6,63,374.3,63,375,62.9z M441.7,132.3c0,0.3,0,0.7-0.1,1c0-0.1-0.1-0.2-0.1-0.3
		c-0.1-0.2-0.2-0.3-0.3-0.5c0-0.4,0.2-0.9,0.5-1.4C441.7,131.5,441.7,131.9,441.7,132.3z M384.4,96.6c0.3,0,0.5,0,0.8,0
		c-0.1,0-0.2,0.1-0.3,0.1C384.7,96.7,384.6,96.7,384.4,96.6z M362,82.8c0.9-0.1,1.8-0.2,2.7-0.3c-0.1,0-0.1,0-0.2,0.1
		c-0.7,0.2-1.3,0.5-2,0.7C362.4,83.1,362.2,83,362,82.8z M385.8,58.7C385.8,58.7,385.9,58.7,385.8,58.7
		C385.9,58.7,385.9,58.7,385.8,58.7z M211,114.3c-0.1,0-0.1,0-0.2,0c0.1-0.1,0.2-0.1,0.3-0.2C211.1,114.2,211,114.3,211,114.3z
		 M206.9,139.2c0,0,0.1,0,0.1-0.1c0.1-0.1,0.3-0.1,0.5-0.2c-0.1,0.3-0.2,0.6-0.2,1C207.1,139.6,207,139.4,206.9,139.2z M217.6,117.4
		c0.3-0.4,0.6-0.8,0.9-1.2C218.2,116.6,217.9,117,217.6,117.4z M447.8,202.7c0.1,0.1,0.2,0.1,0.3,0.2c-0.2,0-0.3-0.1-0.5-0.1
		C447.7,202.8,447.8,202.7,447.8,202.7z M200.1,181.4c0,0.1-0.1,0.1-0.1,0.2C200,181.6,200,181.5,200.1,181.4L200.1,181.4
		L200.1,181.4z M323.2,14.2c-0.6,0.3-1.2,0.6-1.8,0.9l-1.1,0.6c-0.2,0.1-0.1,0.1-0.2,0.1l0.2-0.1c0,0,0.2-0.1,0.1-0.1s-0.2,0-0.3,0
		c-0.2,0-0.4-0.1-0.5-0.2l0,0h-0.7l-1.9-0.1c-1.4,0-3,0-4.7,0.1C316,14.7,319.6,14.3,323.2,14.2z M207.2,182.7
		c0.1,0.1,0.2,0.2,0.3,0.3C207.3,182.9,207.2,182.9,207.2,182.7C207.1,182.8,207.2,182.7,207.2,182.7z M374.1,112.1
		c0.1,0.2,0.2,0.4,0.4,0.6l-1.9-0.4c-1.2-0.2-2.4-0.5-3.6-0.7C370.7,111.6,372.4,111.9,374.1,112.1z M426.3,144.6
		c0.5,0.6,0.9,1.1,1.4,1.7c0.1,0.3,0.1,0.6,0.2,0.9c0,0.1,0.1,0.2,0.2,0.3c-0.3,0.4-0.5,0.9-0.7,1.3
		C427.1,147.4,426.7,146,426.3,144.6z M433.7,209.8c-0.2,0.3-0.4,0.7-0.6,1.1c0-1.2,0.2-2.3,0.4-3.5c0.5,0.1,1.1,0.2,1.6,0.3
		c0.1,0,0.2,0,0.3,0C434.7,208.3,434.2,209,433.7,209.8z M460.5,209.7c-0.3,0.2-0.6,0.3-0.9,0.5c0.1-0.4,0.2-0.8,0.2-1.3
		C460.1,209.2,460.3,209.5,460.5,209.7z M463.7,199.8C463.8,199.8,463.6,199.8,463.7,199.8c-0.1,0.1-0.1,0.2-0.2,0.2l-0.3,0.1h-0.1
		V200c0-0.1-0.1-0.2-0.1-0.3h0.1C463.3,199.7,463.5,199.7,463.7,199.8z M461.1,195.9c0.1,0.3,0.1,0.6,0.2,0.9
		c-0.1-0.1-0.2-0.2-0.3-0.3C461,196.3,461,196.1,461.1,195.9c-0.1-0.1,0-0.2,0-0.3C461.1,195.7,461.1,195.8,461.1,195.9z
		 M459.7,181.2c-0.5-0.9-0.8-2-1.4-3.5v-0.1c0.1-0.4,0.2-0.8,0.4-1.2c0.3,0.3,0.6,0.6,0.9,1.1c0.4,0.5,0.8,0.9,1.2,1.5
		c0.3,0.4,0.6,0.7,0.9,1C461,180.3,460.3,180.7,459.7,181.2z M438.9,83.6c0.2,0.2,0.4,0.3,0.6,0.5c-0.2-0.1-0.4-0.3-0.6-0.4
		C438.9,83.7,438.9,83.7,438.9,83.6z M441.2,80.6c-0.7-0.3-1.3-0.7-2-1.1c0-0.5,0-1,0-1.5c0.2,0.3,0.4,0.6,0.7,0.9
		C440.4,79.5,440.8,80,441.2,80.6z M399.2,39.7c-1.9-0.2-3.8-0.3-5.7-0.6c-2.7-2.4-5.5-4.6-8.4-6.8c-0.1-0.2-0.2-0.5-0.2-0.7
		c2.8,1.5,5.6,3,8.4,4.5C395.2,37.3,397.2,38.5,399.2,39.7z M380.4,27.2c0.5,0.1,1,0.1,1.6,0.2c0,0.1,0.1,0.2,0.1,0.3
		c0.1,0.2,0.2,0.5,0.2,0.7c-0.8-0.4-1.7-0.9-2.5-1.3L380.4,27.2z M285.7,19.7l0.7-0.5c0.6,0,1.3,0.1,1.9,0.1c0.1,0,0.1,0,0.2,0
		c-1.2,0.3-2.4,0.6-3.5,0.9L285.7,19.7z M252.8,34.9c0.2-0.1,0.4-0.2,0.5-0.3c-0.1,0.1-0.2,0.1-0.2,0.2
		C253,34.8,252.9,34.9,252.8,34.9z M183.8,128.8l0.7-2.2c0.2-0.7,0.4-1.5,0.6-2.2c0-0.1,0-0.2,0.1-0.2c0.1,0.7,0.3,1.4,0.5,2
		c-0.2,0.6-0.4,1.3-0.5,2c0,0.1,0,0.2,0,0.3c-0.1,0-0.2,0.1-0.3,0.1c-0.4,0.2-0.7,0.4-1,0.6c-0.1,0-0.1,0.1-0.2,0.1L183.8,128.8z
		 M189.1,140.8c0-0.2,0-0.3,0-0.5c0.4,0.2,0.8,0.5,1.2,0.7c0.2,0.1,0.3,0.2,0.5,0.3c-0.2,0.7-0.4,1.3-0.6,2
		C189.9,142.6,189.5,141.7,189.1,140.8z M218.8,262.3c-1.6,1.1-3.7,1.4-5.5,0.7c-1-0.4-1.9-1-2.6-1.8s-1.2-1.8-1.4-2.8
		c-0.2-1-0.1-2.1,0.1-3.2s0.7-2.1,1.1-3.2c0.7-1.5,1.4-3,2.1-4.5c0.1,0.1,0.3,0.2,0.5,0.3l1.7,0.8l-1.1-1.5
		c-0.2-0.2-0.3-0.5-0.4-0.8c0.1-0.2,0.2-0.4,0.3-0.6c-0.1,0.2-0.2,0.4-0.3,0.5c-0.1-0.3-0.2-0.6-0.3-1c-0.2-1.3,0.2-2.8,1.3-3.8
		c0.8-0.7,1.8-1.1,2.9-1.1c0.2,3,0.3,6.1,0.5,9.1c0,0.5,0.1,0.9,0.1,1.4c-0.5,0.1-1,0-1.5,0.2c-0.3,0-0.5,0.2-0.8,0.3
		c-0.2,0.1-0.5,0.3-0.7,0.5s-0.4,0.4-0.5,0.6s-0.3,0.5-0.4,0.7c-0.2,0.5-0.2,1.1-0.4,1.5c0.2-0.5,0.6-0.8,1-1.2
		c0.2-0.1,0.4-0.3,0.6-0.5l0.5-0.4l0.5-0.5c0.2-0.2,0.3-0.3,0.5-0.5c0.4-0.3,0.8-0.7,1.2-0.8C218,254.8,218.3,258.6,218.8,262.3z
		 M228.5,127.3l-0.3,2.1c0,0,0-0.1-0.1-0.1c0-1.1,0-2.3,0-3.5c0.1-3.1,0.4-6.3,0.9-9.5c0.4-0.1,0.8-0.2,1.2-0.3l0.5-0.1
		c0,0.5-0.1,1-0.1,1.5v0.1C229.4,120.7,228.9,124.1,228.5,127.3z M311.4,115l0.2-0.1c-0.2,0.1-0.3,0.1-0.5,0.2
		C311.3,115.1,311.3,115,311.4,115z M347.8,111.9l-1,1.1l-0.9,1.2c-0.3,0.4-0.5,0.8-0.8,1.2c-0.5,0.8-0.9,1.6-1.4,2.3l-0.6,0.3
		c-0.5,0.3-1.1,0.5-1.6,0.8c-0.6,0.3-1.1,0.6-1.7,0.9c0.1-0.2,0.3-0.4,0.4-0.6c0.1-0.1,0.2-0.2,0.2-0.4c0-0.1,0.1-0.2,0.1-0.4
		c0-0.1,0-0.3,0-0.4c0-0.1,0-0.2-0.1-0.3c0.7-0.5,1.3-1,1.8-1.4c1.5-1.3,2.5-2.4,3.2-3.1l0.4-0.4c0.1-0.1,0.2-0.2,0.3-0.3
		c0.2-0.2,0.4-0.4,0.7-0.5c0.4-0.3,1-0.6,1.7-0.8C348.3,111.4,348.1,111.7,347.8,111.9z M360.4,111.6c0.1,0.1-0.1,0-0.1-0.1
		l-0.3-0.2l-1.1-0.9c0.2,0,0.3,0,0.5,0h0.5L360.4,111.6z M380.3,119.1c-2,0.4-4.1-0.8-5.9-2.2c-1.8-1.5-3.5-3-5.3-4.5
		c1,0.3,2.1,0.6,3.1,0.9l3.2,0.8c0.2,0.2,0.3,0.4,0.5,0.6c-0.4-0.1-0.8-0.3-1.2-0.5c0.5,0.3,1,0.5,1.5,0.8c0.4,0.4,0.8,0.8,1.2,1.2
		c1,1,2.2,1.9,3.5,2.7C380.7,118.9,380.5,119,380.3,119.1z M428.6,251.6c0.6-4.9,1.4-9.8,2.1-14.7c0.4-2.8,0.8-5.5,1.2-8.3
		c0.7,2.6,1.4,5.2,2.2,7.7c-0.8-2.8-1.5-5.6-2.1-8.4c0.3-1.9,0.6-3.9,0.9-5.8c-0.3,1.9-0.6,3.7-0.9,5.6c-1.4-6.3-2.3-12.7-2.9-19
		c1,1.6,2,3.1,3,4.6c-0.3,1.2-0.4,2.5-0.3,3.6c0.1,1.2,0.3,2.2,0.7,3.1c0.3,0.9,0.7,1.7,1,2.4c-0.3-0.8-0.1-1.6,0.4-2.3
		c0.5-0.7,1.1-1.1,1.9-1.4c1.5-0.5,3.1-0.4,4.2,0.2c1.3,0.6,2.1,1,3.3,1.5c1,0.2,2.2,0.3,3.6,0.3c0,0.5,0,1,0,1.4
		c-0.2,2.8-1.2,5.4-2.1,8.1c-0.4,1.3-0.8,2.7-1,4.1s-0.2,2.9-0.1,4.3c0.2,2.8,0.7,5.6,0.9,8.3c0.3,2.7,0,5.5-0.8,8.1s-2.1,5-3.9,7.1
		c-3.3,3.9-8.4,6.5-13.6,6.8c0.1-0.9,0.3-1.9,0.4-2.8C427.3,261.4,428,256.5,428.6,251.6z"/>
	<path d="M247.3,410.4c-0.5,0.6-0.9,1.2-1.3,1.8s-0.8,1.3-1.1,1.9c-0.3,0.7-0.7,1.3-0.9,2c-0.6,1.4-1,2.8-1.8,4.1
		c0.8-1.2,2-2.2,3-3.3c0.5-0.5,1-1.1,1.5-1.7c0.5-0.6,0.9-1.2,1.3-1.8s0.8-1.3,1.1-1.9c0.3-0.7,0.7-1.3,0.9-2
		c0.6-1.4,1.1-2.8,1.8-4.1c-0.8,1.2-2,2.2-3,3.3C248.3,409.3,247.8,409.9,247.3,410.4z"/>
	<path d="M296.4,513.7l-6.6-4.4l-6.4-4.7l-6.1-5.1l-5.8-5.4l-5.6-5.6l-5.3-5.9l-5-6.1l-4.7-6.4l-4.4-6.6l-4.1-6.8l-3.7-7l-3.3-7.2
		l-2.9-7.4c-0.8-2.5-1.6-5.1-2.3-7.6c0.8,2.5,1.5,5.1,2.2,7.7l2.5,7.6l2.9,7.4l3.4,7.3l3.8,7l4.2,6.8l4.6,6.5l5,6.3l5.4,5.9l5.7,5.6
		l6.1,5.2l6.4,4.8l6.7,4.4l6.9,4l7.1,3.7c2.4,1.1,4.8,2.2,7.2,3.3c-2.4-1.1-4.8-2.3-7.2-3.5L296.4,513.7z"/>
	<path d="M240.2,328.3c-3.2,3.2-6.7,6.1-9.9,9.3c-1.6,1.6-3.1,3.3-4.6,5c-1.5,1.8-2.8,3.6-4,5.6s-2.3,4-3.2,6.1
		c-0.9,2.1-1.6,4.4-1.9,6.7c-0.4,2.3-0.4,4.6,0,6.9s1.4,4.4,2.7,6.2c-1.4-1.8-2.1-4-2.2-6.2s0.2-4.4,0.8-6.5
		c0.6-2.1,1.4-4.1,2.4-6.1s2.1-3.9,3.3-5.8c1.2-1.9,2.4-3.7,3.7-5.5c1.3-1.8,2.7-3.6,4-5.4C234.1,335,237,331.5,240.2,328.3z"/>
	<path d="M216.8,346.4c0.6-1,1.1-2,1.7-3s1.2-1.9,1.8-2.9c0.4-0.6,0.8-1.1,1.1-1.7c0.8-0.3,1.6-0.5,2.4-0.8
		c-0.8,0.2-1.6,0.5-2.3,0.7c0.2-0.4,0.5-0.7,0.7-1.1c0.6-0.9,1.3-1.8,2-2.8l1.1-1.3c0.4-0.4,0.8-0.9,1.2-1.3
		c0.8-0.8,1.7-1.6,2.7-2.3c-0.5,0.3-1,0.6-1.5,0.9s-1,0.6-1.5,0.9s-1,0.7-1.5,1l-1.4,1.1c-0.5,0.4-0.9,0.8-1.4,1.2l-1.3,1.3
		c-0.8,0.9-1.5,1.9-2.2,2.9c-0.1,0.2-0.3,0.5-0.4,0.7c-3.1,1.2-6.2,2.5-9.1,4.3c-4.7,2.7-9,6.2-12.6,10.3c-3.6,4.2-6.3,9.1-8,14.4
		c-1.6,5.3-2.1,10.9-2.1,16.3c0,5.5,0.5,10.9,0.9,16.2c0.5,5.4,1.2,10.8,2.1,16.1c1.2,7.3,2.7,14.4,4.4,21.6
		c-1.6,2.8-3.1,5.7-4.5,8.6c-2.2,4.5-4,9.2-5.4,14.1c-1.3,4.9-2.2,9.9-2.5,15c-0.2,5.1,0.2,10.2,1.5,15.1c1.2,4.9,3.1,9.6,5.3,14.2
		c2.1,4.5,4.5,8.9,6.8,13.4c2.3,4.4,4.6,8.8,6.8,13.3c-2.2-4.5-4.2-9-6.3-13.6c-2-4.6-4.1-9.1-6-13.7c-1.9-4.6-3.5-9.3-4.5-14.1
		c-1.1-4.8-1.4-9.7-1.2-14.6c0.2-4.9,1-9.8,2.2-14.5c1.2-4.8,2.8-9.5,4.7-14.1c1.1-2.6,2.3-5.3,3.5-7.8c0.6,2.5,1.2,5.1,1.9,7.6
		c-1,1.9-2,3.7-2.9,5.7c-1.8,3.7-3.2,7.5-4.3,11.5c-1,4-1.5,8.1-1.5,12.3c0.1,4.1,0.6,8.2,1.6,12.2s2.3,7.9,4,11.6
		c3.2,7.5,7.3,14.5,11.1,21.6c-3.8-7.2-7.1-14.5-9.8-22.1c-1.3-3.8-2.5-7.6-3.3-11.5s-1.3-7.9-1.3-11.8c-0.1-3.9,0.4-7.9,1.2-11.8
		c0.8-3.9,2.1-7.7,3.5-11.4c3-7.5,6.8-14.6,11-21.5c-3.1,5.1-6.4,10.1-9.4,15.3c-0.6-2.6-1.2-5.2-1.7-7.9c3-6.3,6.4-12.4,9.9-18.4
		c0.1,0.1,0.1,0.2,0.2,0.3c0.2,0.4,0.4,0.8,0.6,1.2s0.4,0.8,0.6,1.2s0.4,0.8,0.6,1.1c0.2,0.4,0.4,0.8,0.7,1.2
		c0.4,0.8,0.9,1.8,0.8,2.8c0.1-0.5,0.2-1,0.3-1.5c0.1-0.5,0.2-1,0.2-1.6c0.1-0.5,0-1.1-0.1-1.6s-0.3-1-0.6-1.5
		c-0.3-0.5-0.6-0.9-1-1.3c-0.4-0.4-0.8-0.7-1.3-1s-1-0.5-1.4-0.7c-0.5-0.2-1-0.3-1.4-0.5c0.8,0.4,1.3,1.1,1.7,1.9
		c-3.4,5.7-6.9,11.3-10.2,17c-1.4-7.1-2.4-14.3-3.2-21.4c-0.6-5.4-1.1-10.7-1.5-16.1s-0.7-10.7-0.7-16.1c0-5.3,0.4-10.7,1.8-15.7
		c1.4-5.1,3.9-9.8,7.1-14.1c3.3-4.2,7.3-7.8,11.8-10.8c2.7-1.8,5.7-3.3,8.7-4.6c-0.4,0.8-0.8,1.5-1.2,2.3l-0.6,1.7
		c-0.2,0.6-0.4,1.2-0.5,1.7l-0.4,1.8c-0.1,0.6-0.2,1.2-0.3,1.8c-0.1,0.6-0.1,1.2-0.2,1.8c0,0.6-0.1,1.2-0.2,1.7
		c0.2-1.2,0.5-2.3,1-3.4c0.2-0.5,0.5-1.1,0.7-1.6L216.8,346.4z"/>
	<path d="M199.1,370c-0.2,1.8-0.4,3.6-0.6,5.4s-0.2,3.6-0.3,5.4c0,1.8,0,3.6,0.1,5.4s0.3,3.6,0.5,5.4c0.3,1.8,0.5,3.6,0.9,5.3
		c0.4,1.8,0.8,3.5,1.2,5.3c0.4,1.8,0.9,3.5,1.2,5.3c-0.7-3.5-0.8-7.1-1-10.7c-0.1-1.8-0.2-3.6-0.3-5.4l-0.3-5.3l-0.3-5.3
		c-0.1-1.8-0.2-3.6-0.3-5.4c-0.2-3.6-0.4-7.2-0.2-10.8C199.6,366.5,199.4,368.2,199.1,370z"/>
	<path d="M52.2,434l25.7-17.4l25.6-17.6l12.7-8.9c4.2-2.9,8.5-5.8,12.9-8.5c4.4-2.6,9-5,13.7-7c4.7-2.1,9.5-3.9,14.5-5.3
		c9.9-3,19.9-5.7,29.9-8.3c-10,2.6-20.1,5-30,7.8c-5,1.2-9.9,2.9-14.8,4.9c-4.8,2-9.5,4.2-14,6.7c-4.6,2.5-8.9,5.3-13.2,8.2
		l-12.9,8.6l-25.7,17.4L51,432.3l-6.4,4.4c-2.1,1.5-4.3,3.1-6,5.2c-1.7,2.2-2.7,4.8-3.3,7.4c-0.6,2.6-0.9,5.2-1.4,7.6
		c-1,5-2.8,9.8-4.9,14.6c-2.1,4.7-4.2,9.4-6.5,14c-1.2,2.3-2.4,4.5-3.9,6.7c-1.4,2.2-3.1,4.1-4.8,6s-3.4,3.9-4.7,6.2
		c-1.3,2.2-1.9,5-1.1,7.5c-0.8-2.5-0.1-5.2,1.1-7.4c1.3-2.2,3-4.2,4.7-6.1c1.7-1.9,3.5-3.8,5-6c1.5-2.1,2.8-4.3,4.1-6.6
		c2.5-4.6,4.7-9.2,7-13.9c2.2-4.7,4.2-9.6,5.4-14.7c0.6-2.6,1-5.1,1.6-7.6c0.6-2.4,1.6-4.8,3.1-6.6c1.6-1.9,3.6-3.3,5.7-4.8
		L52.2,434z"/>
	<path d="M150.5,421.5l-6.2-0.6l-6.3-0.3l-6.3-0.1l-6.3,0.1l-6.3,0.3l-6.3,0.5l-6.2,0.8l-6.2,1l-6.2,1.2l-6.1,1.4l-6,1.6l-6,1.8
		l-5.9,2c-2,0.7-3.9,1.4-5.9,2.2c2-0.7,3.9-1.4,5.9-2.1l6-1.8l6-1.6l6.1-1.4l6.1-1.3l6.1-1.1l6.2-0.9l6.2-0.7l6.2-0.6l6.2-0.4
		l6.2-0.2l6.2-0.1l6.2,0.1l6.2,0.3l6.2,0.6c2.1,0.3,4.1,0.5,6.2,0.8c-2.1-0.3-4.1-0.6-6.2-0.9L150.5,421.5z"/>
	<path d="M61.8,473l-1,7.3c-0.3,2.4-0.7,4.9-1.3,7.2c-0.6,2.4-1.5,4.6-2.8,6.7c-2.6,4.1-6.6,7.3-10.5,10.2c4-2.9,8.2-5.7,11.1-9.8
		c1.5-2,2.5-4.4,3.2-6.8c0.7-2.4,1.1-4.9,1.4-7.3l0.9-7.4c0.3-2.5,0.5-4.9,0.8-7.4c0.5-4.9,1-9.9,1.6-14.8
		c-0.7,4.9-1.5,9.8-2.3,14.7C62.5,468.1,62.1,470.6,61.8,473z"/>
	<path d="M59.8,536.2c-0.7-1.9-1.5-3.8-2.4-5.6s-1.7-3.7-2.7-5.5s-2-3.6-3-5.3c-1.1-1.7-2.1-3.4-3.3-5.1c-1.1-1.7-2.3-3.3-3.5-5
		c-1.2-1.6-2.4-3.2-3.6-4.9c1.2,1.6,2.3,3.3,3.4,5c1.1,1.7,2.1,3.4,3.1,5.2s2,3.5,3,5.3s1.9,3.5,2.9,5.3c0.9,1.8,1.9,3.6,2.8,5.4
		c0.9,1.8,1.8,3.6,2.6,5.4c0.9,1.8,1.7,3.7,2.5,5.5c0.8,1.9,1.5,3.7,2.2,5.7c-0.7-1.9-1.3-3.8-1.9-5.7
		C61.2,540,60.5,538.1,59.8,536.2z"/>
	<path d="M471.5,394.3l3.9-4.7l4.1-4.5l4.3-4.3l4.5-4.1l-4.6,4l-4.4,4.2l-4.2,4.4l-4,4.6l-3.8,4.8l-3.6,5l-3.4,5.1L457,414l-2.8,5.4
		l-2.6,5.6l-2.3,5.7l-2,5.8l-1.8,5.9l-1.5,5.9l-1.2,6c-0.3,2-0.7,4-1,6c0.4-2,0.7-4,1.1-6l1.4-5.9l1.7-5.9l2-5.8l2.2-5.7l2.4-5.6
		l2.6-5.5l2.9-5.4l3.1-5.3l3.3-5.1l3.5-5L471.5,394.3z"/>
	<path d="M572.6,437.8c-6-1-12.1-0.7-18.1-1c-3-0.1-6-0.4-8.9-1.1c-2.9-0.6-5.8-1.5-8.7-2.4c-5.7-1.9-11.3-4.2-17.3-5.6
		c-3-0.7-6-1.1-9-1.3c-3-0.1-6.1-0.1-9.1,0.2c-6,0.6-12,2-17.8,3.7s-11.5,3.8-17.2,5.9c5.7-2,11.4-4,17.2-5.6s11.8-2.8,17.7-3.3
		c3-0.2,6-0.2,9,0c3,0.3,6,0.7,8.9,1.4c5.8,1.4,11.4,3.7,17.2,5.7c2.9,1,5.8,1.8,8.8,2.4c3,0.6,6,0.9,9.1,1
		c6.1,0.2,12.1-0.2,18.1,0.7c11.9,1.7,23.2,7.9,30.8,17.2C595.7,446.4,584.6,439.8,572.6,437.8z"/>
	<path d="M618.8,419.2c0.1,0.2,0.2,0.3,0.4,0.5C619.1,419.6,619,419.4,618.8,419.2z"/>
	<path d="M615.4,415.2c0.6,0.6,1.2,1.3,1.7,1.9C616.6,416.4,616,415.8,615.4,415.2z"/>
	<path d="M615.1,414.8c0.1,0.1,0.2,0.2,0.3,0.3C615.3,415.1,615.2,414.9,615.1,414.8z"/>
	<path d="M454.2,304c-5.3,0-10.6,1.1-15.5,3.4C443.6,305.1,448.9,304,454.2,304c5.3,0.1,10.6,1.1,15.6,2.9s9.7,4.2,14.2,7.1
		c4.4,2.9,8.7,6.1,12.5,9.8c3.7,3.7,7,8.1,8.4,13.1c0.7,2.5,0.8,5.1,0.5,7.7c-0.4,2.6-1.1,5.1-2,7.6s-1.8,5-2.6,7.6s-1.3,5.3-1.2,8
		c0,0.7,0.1,1.4,0.2,2.1c0.1,0.7,0.3,1.3,0.5,2l0.3,0.9v0.1h0.1l0.2-0.1l0.5-0.2l1.1-0.4l1.9-0.6c2.5-0.8,5.1-1.5,7.6-2.2
		c5.1-1.3,10.3-2.3,15.6-2.4c5.2-0.1,10.5,0.9,15.2,3.3c4.7,2.3,8.5,6.1,12.5,9.6s8.5,6.5,13.2,9c9.4,5.1,19.5,8.6,28.9,13.4
		c4.7,2.4,9.3,5.2,13.4,8.5c1.5,1.2,2.9,2.5,4.3,3.9c-1.3-1.4-2.7-2.8-4.2-4c-4.1-3.4-8.6-6.2-13.3-8.7c-9.4-5-19.5-8.6-28.7-13.8
		c-4.6-2.6-9-5.6-12.9-9.1c-4-3.5-7.8-7.4-12.6-9.8c-4.8-2.5-10.3-3.5-15.7-3.4s-10.7,1-15.9,2.4c-2.6,0.7-5.1,1.4-7.7,2.2l-1.9,0.6
		l-0.8,0.3l0,0c-0.4-1.2-0.6-2.5-0.7-3.7c-0.2-5.2,2-10.2,3.7-15.2c0.8-2.5,1.6-5.1,2-7.8c0.4-2.7,0.2-5.5-0.6-8.1
		c-1.5-5.3-4.9-9.7-8.7-13.4c-3.9-3.7-8.2-6.8-12.7-9.7c-4.5-2.8-9.3-5.3-14.3-7C464.9,304.9,459.5,303.9,454.2,304z"/>
	<path d="M617.2,417.1c0.6,0.7,1.2,1.4,1.7,2.1C618.3,418.5,617.7,417.8,617.2,417.1z"/>
	<path d="M619.2,419.7c0.7,1,1.4,2.1,2,3.1C620.6,421.8,619.9,420.7,619.2,419.7z"/>
	<path d="M617.2,443.8c-0.9,2.3-1.8,4.5-2.7,6.8s-1.8,4.5-2.7,6.7s-1.9,4.5-2.8,6.7c-1.9,4.4-3.9,8.9-6.2,13.2
		c1.2-2.2,2.3-4.3,3.5-6.4c1.1-2.1,2.3-4.3,3.4-6.5c1.1-2.2,2.1-4.4,3.1-6.6c1-2.2,1.9-4.5,2.8-6.7c0.9-2.3,1.7-4.5,2.6-6.8
		c0.8-2.3,1.6-4.6,2.3-6.9c0.7-2.3,1.4-4.7,2-7s1.3-4.7,1.9-7c-1.3,4.7-2.9,9.3-4.6,13.8C618.9,439.2,618,441.5,617.2,443.8z"/>
	<path d="M655.9,487.2c-1.1-3.5-2.4-7-3.8-10.4c-1.4-3.4-2.9-6.8-4.3-10.1l-4.5-10c-1.5-3.3-3-6.7-4.6-10c-3.1-6.7-6.2-13.3-9.2-20
		c2.9,6.7,5.7,13.5,8.5,20.3c1.4,3.4,2.8,6.7,4.3,10.1l4.4,10.1l4.4,10c1.5,3.4,2.8,6.7,4,10.2c2.4,6.9,4.2,14.1,3.9,21.4
		C659.4,501.5,658.1,494.2,655.9,487.2z"/>
	<path d="M324.1,415c1.3-1.2,2.5-2.4,3.6-3.8c1.1-1.3,2.1-2.7,3-4.2c1.9-2.9,3.4-5.9,5.1-8.9c-1.7,2.9-3.7,5.8-5.7,8.5
		c-1,1.3-2.1,2.7-3.2,3.9c-1.1,1.3-2.3,2.5-3.6,3.6c-1.2,1.1-2.6,2.1-4,2.9c-1.4,0.8-3,1.4-4.6,1.6c-1.6,0.2-3.3,0-4.9-0.7
		c-1.5-0.7-2.9-1.8-3.6-3.4c0.7,1.6,2,2.8,3.5,3.7c1.5,0.8,3.3,1.2,5.1,1.1c1.8-0.1,3.5-0.6,5.1-1.4
		C321.4,417.1,322.8,416.1,324.1,415z"/>
	<path d="M222.6,414.4c-0.3-0.4-0.7-0.9-1-1.3l-0.9-1.4c-0.3-0.5-0.5-1-0.8-1.4l-0.7-1.5l-0.7-1.5l-0.6-1.5l-0.5-1.6l-0.4-1.6
		l-0.3-1.6c-0.1-0.5-0.2-1.1-0.2-1.6l-0.1-1.6c0-0.5,0-1.1,0-1.7c0-0.5,0.1-1.1,0.1-1.7c0.1-0.5,0.2-1.1,0.3-1.6
		c-0.1,0.5-0.3,1.1-0.4,1.6c-0.1,0.6-0.2,1.1-0.3,1.6c-0.1,0.6-0.1,1.1-0.2,1.7l-0.1,1.7c0,0.6,0,1.1,0.1,1.7l0.2,1.7l0.4,1.7
		l0.5,1.6l0.6,1.6l0.8,1.5l0.9,1.5c0.3,0.5,0.7,0.9,1,1.4l1.1,1.3c0.4,0.4,0.8,0.8,1.2,1.2c0.4,0.4,0.8,0.7,1.3,1.1
		c0.4,0.3,0.9,0.7,1.3,1c-0.4-0.4-0.8-0.7-1.3-1.1C223.4,415.2,223,414.8,222.6,414.4z"/>
	<path d="M307.3,175.6c-1,1.4-2.1,2.6-3.4,3.7s-2.6,2.2-3.9,3.3l-4,3.3c-1.3,1.1-2.6,2.2-3.9,3.4c-2.6,2.2-5.2,4.6-7.8,6.7
		c2.7-2.1,5.5-4.1,8.3-6.2c1.4-1,2.8-2.1,4.1-3.1l4.1-3.2c1.3-1.1,2.7-2.2,3.9-3.4c1.2-1.2,2.4-2.6,3.3-4.1c1.8-3,2.5-6.8,1.1-10
		c0.7,1.6,0.7,3.4,0.3,5.1C309,172.7,308.3,174.2,307.3,175.6z"/>
	<path d="M385.5,307.2c0.1-1.1,0.2-2.2,0.3-3.4c0.1-1.1,0.1-2.3,0-3.4c0-1.1-0.1-2.3-0.2-3.4c-0.1-1.1-0.3-2.2-0.6-3.3
		c-0.2-1.1-0.5-2.2-0.8-3.3c-0.3-1.1-0.7-2.2-1.1-3.2c-0.4-1-0.8-2.1-1.2-3.2c0.7,2.1,1.2,4.3,1.6,6.5c0.2,1.1,0.4,2.2,0.5,3.3
		c0.2,1.1,0.3,2.2,0.4,3.3c0.1,1.1,0.3,2.2,0.4,3.3c0.1,1.1,0.2,2.2,0.3,3.3c0.1,2.2,0.2,4.5,0,6.7
		C385.2,309.5,385.3,308.3,385.5,307.2z"/>
	<path d="M258,295.3l1.2-2.3l1.1-2.4c0.3-0.8,0.7-1.6,1-2.4c0.6-1.6,1.2-3.3,1.9-4.9c-0.8,1.6-1.7,3-2.5,4.6
		c-0.4,0.7-0.8,1.5-1.3,2.3l-1.2,2.3l-1.1,2.4c-0.3,0.8-0.7,1.6-1,2.4c-0.6,1.6-1.2,3.3-1.9,4.9c0.8-1.6,1.7-3,2.5-4.6
		C257.1,296.8,257.5,296.1,258,295.3z"/>
	<path d="M324.2,264.8c0-0.2-0.1-0.5-0.1-0.7c-0.1-0.2-0.2-0.5-0.2-0.7c-0.1-0.2-0.2-0.4-0.3-0.7c-0.2-0.4-0.6-0.9-0.7-1.3
		c0.1,0.5,0,1,0,1.5c0,0.3,0,0.5,0,0.7s0.1,0.5,0.1,0.7c0.1,0.2,0.2,0.5,0.2,0.7c0.1,0.2,0.2,0.4,0.3,0.7c0.2,0.4,0.6,0.9,0.7,1.3
		c-0.1-0.5,0-1,0-1.5C324.2,265.3,324.2,265,324.2,264.8z"/>
	<path d="M327.2,317.1c-1.1-0.3-2.1-0.7-3.2-1s-2.2-0.6-3.2-0.9c-1.1-0.3-2.2-0.5-3.3-0.7c-1.1-0.2-2.2-0.3-3.4-0.4
		c-1.1-0.1-2.3-0.1-3.4-0.1s-2.3,0.1-3.4,0.2s-2.2,0.3-3.4,0.4c-1.1,0.2-2.2,0.4-3.3,0.5c2.2-0.3,4.5-0.3,6.7-0.3
		c1.1,0,2.2,0.1,3.3,0.1c1.1,0.1,2.2,0.1,3.3,0.2c1.1,0.1,2.2,0.2,3.3,0.3c1.1,0.1,2.2,0.2,3.3,0.4
		C322.8,316.2,325,316.5,327.2,317.1z"/>
	<path d="M345.4,352.2l-0.1-1.9l-0.2-1.9c-0.1-0.6-0.2-1.3-0.3-1.9c-0.2-1.3-0.5-2.5-0.7-3.8c0.1,1.3,0,2.6,0,3.9c0,0.6,0,1.3,0,1.9
		l0.1,1.9l0.2,1.9c0.1,0.6,0.2,1.3,0.3,1.9c0.2,1.3,0.5,2.5,0.7,3.8c-0.1-1.3,0-2.6,0-3.9C345.5,353.5,345.4,352.9,345.4,352.2z"/>
	<path d="M285.2,335.2c-0.5,0.4-1,0.9-1.5,1.3c-0.4,0.5-0.9,1-1.3,1.5s-0.7,1.1-1,1.7s-0.6,1.2-0.9,1.8c-0.2,0.6-0.5,1.2-0.8,1.8
		c0.5-1.2,1.4-2.2,2.2-3.2c0.4-0.5,0.8-1,1.3-1.4c0.4-0.5,0.9-0.9,1.3-1.4s0.9-0.9,1.3-1.3s0.9-0.9,1.4-1.3c0.9-0.8,1.9-1.7,3.1-2.3
		c-0.6,0.3-1.2,0.5-1.8,0.8c-0.6,0.3-1.2,0.6-1.7,0.9C286.2,334.4,285.7,334.8,285.2,335.2z"/>
	<path d="M315.7,329.5c-0.4,0-0.7,0-1.1,0s-0.7,0-1.1,0.1c-0.7,0.1-1.5,0.3-2.2,0.2c0.7,0.1,1.4,0.3,2.2,0.5
		c0.4,0.1,0.7,0.2,1.1,0.2s0.7,0.1,1.1,0.1s0.7,0,1.1,0s0.7,0,1.1-0.1c0.7-0.1,1.5-0.3,2.2-0.2c-0.7-0.1-1.4-0.3-2.2-0.5
		c-0.4-0.1-0.7-0.2-1.1-0.2C316.4,329.6,316.1,329.5,315.7,329.5z"/>
	<path d="M198.5,91.5L200,91c0.5-0.2,1-0.4,1.5-0.6c1-0.4,2-0.9,3-1.2c-1,0.3-2.1,0.4-3.2,0.6c-0.5,0.1-1.1,0.2-1.6,0.3l-1.6,0.4
		l-1.5,0.5c-0.5,0.2-1,0.4-1.5,0.6c-1,0.4-2,0.9-3,1.2c1-0.3,2.1-0.4,3.2-0.6c0.5-0.1,1.1-0.2,1.6-0.3L198.5,91.5z"/>
	<path d="M463.4,205.6c-0.1-0.2-0.2-0.3-0.3-0.5c-0.1-0.1-0.3-0.3-0.4-0.4c-0.2-0.1-0.3-0.2-0.5-0.3c-0.3-0.2-0.8-0.4-1-0.7
		c0.2,0.3,0.3,0.7,0.5,1.1c0.1,0.2,0.2,0.4,0.3,0.6s0.2,0.3,0.3,0.5c0.1,0.1,0.3,0.3,0.4,0.4c0.2,0.1,0.3,0.2,0.5,0.3
		c0.3,0.2,0.8,0.4,1,0.7c-0.2-0.3-0.3-0.7-0.5-1.1C463.5,205.9,463.4,205.8,463.4,205.6z"/>
	<path d="M313.9,117.1c-0.3-0.1-0.6-0.2-0.9-0.3s-0.6-0.1-0.9-0.2c-0.3,0-0.6-0.1-0.9-0.1c-0.6-0.1-1.3,0-1.9-0.2
		c0.6,0.2,1.1,0.6,1.7,0.8c0.3,0.2,0.6,0.3,0.8,0.4c0.3,0.1,0.6,0.2,0.9,0.3s0.6,0.1,0.9,0.2c0.3,0,0.6,0.1,0.9,0.1
		c0.6,0.1,1.3,0,1.9,0.2c-0.6-0.2-1.1-0.6-1.7-0.8C314.4,117.3,314.2,117.2,313.9,117.1z"/>
</g>
</svg>
