<!-- Generator: Adobe Illustrator 22.0.1, SVG Export Plug-In  -->
<svg version="1.1"
	 xmlns="http://www.w3.org/2000/svg" xmlns:xlink="http://www.w3.org/1999/xlink" xmlns:a="http://ns.adobe.com/AdobeSVGViewerExtensions/3.0/"
	 x="0px" y="0px" width="518px" height="518px" viewBox="0 0 518 518" style="enable-background:new 0 0 518 518;"
	 xml:space="preserve">
<style type="text/css">
	.st0{fill:#2ccd6e;}
	.st1{fill:#2ccd6e;}
</style>
<defs>
</defs>
<g>
	<path class="st0" d="M499,518H19c-10.5,0-19-8.5-19-19V19C0,8.5,8.5,0,19,0h480c10.5,0,19,8.5,19,19v480
		C518,509.5,509.5,518,499,518z M19,14c-2.8,0-5,2.2-5,5v480c0,2.8,2.2,5,5,5h480c2.7,0,5-2.3,5-5V19c0-2.8-2.2-5-5-5L19,14L19,14z"
		/>
</g>
<g>
	<g>
		<path class="st1" d="M131.3,106.7c16.5,0,35.3,0.1,54.1,0c5.9,0,7.5,4,8.8,8.4C223.5,215,252.7,315,281.9,415
			c0.1,0.4-0.2,1-0.6,2.7c-15.1,2.9-30.8,1-46.5,1.1c-6.9,0-6.8-6.6-8.1-11c-6.4-22-12.6-44.1-18.2-66.3c-1.8-6.9-4.5-10.2-12-10.1
			c-26.4,0.3-52.9,0.1-81.2,0.1c-6.2,23-13.5,45.7-18.1,68.9c-3,15.6-10,20.9-25.2,18.9c-8.8-1.2-17.8-0.2-29.2-0.2
			C72.4,314.8,101.4,212.5,131.3,106.7z M161.5,158.6c-0.8,0.2-1.5,0.3-2.3,0.5c-10.5,41.2-21,82.4-31.7,124.6c22.4,0,43.5,0,66.5,0
			C182.9,241,172.2,199.8,161.5,158.6z"/>
		<path class="st1" d="M456.7,369c3.5,46.7,6.8,46.6-36.1,52.7c-96.6,13.7-130.4-54.9-124.8-131.3c1.5-20,6.4-39.3,16-57.2
			c20.5-38.1,57.7-55.9,99-47.4c34.5,7.1,59.2,38.5,62.9,80c4.2,46.7,3.1,48-43,48.2c-27.3,0.2-54.6,0-81.7,0
			c-3.9,36,17.1,61.3,51,63.4C419,378.7,437.6,376.6,456.7,369z M349.1,275c22.7,0,45.5,0,68.3,0c5.7,0,7.8-2.8,8.1-8.2
			c1.5-22.9-16.8-41.7-39.6-40.5C364,227.4,348.8,247,349.1,275z"/>
	</g>
</g>
</svg>
