<!-- Generator: Adobe Illustrator 22.0.1, SVG Export Plug-In  -->
<svg version="1.1"
	 xmlns="http://www.w3.org/2000/svg" xmlns:xlink="http://www.w3.org/1999/xlink" xmlns:a="http://ns.adobe.com/AdobeSVGViewerExtensions/3.0/"
	 x="0px" y="0px" width="518px" height="518px" viewBox="0 0 518 518" style="enable-background:new 0 0 518 518;"
	 xml:space="preserve">
<style type="text/css">
	.st0{fill:#2ccd6e;}
	.st1{fill:#2ccd6e;}
</style>
<defs>
</defs>
<g id="Layer_4_1_">
	<g>
		<path class="st0" d="M499,518H19c-10.5,0-19-8.5-19-19V19C0,8.5,8.5,0,19,0h480c10.5,0,19,8.5,19,19v480
			C518,509.5,509.5,518,499,518z M19,14c-2.8,0-5,2.2-5,5v480c0,2.8,2.2,5,5,5h480c2.7,0,5-2.3,5-5V19c0-2.8-2.2-5-5-5H19z"/>
	</g>
	<g>
		<g>
			<path class="st1" d="M149.4,342.8c-6.8,24.3-14.5,48.4-20.2,72.9c-3.5,15-10.4,20.5-26,20.1c-38.5-1-34.2,0.5-24.7-32.9
				c25.4-89.9,51.2-179.7,76.8-269.6c1.5-5.3,3.1-10.6,4.3-15.9c5.8-26.7,5.8-27,33.8-26.7c47.7,0.4,38.2-5.3,51.4,38.9
				c28.1,94.3,55.6,188.7,83.2,283.1c6.5,22.2,6.1,22.8-16,22.6c-42.8-0.4-34.6,5.2-46.7-35.8c-5.3-17.9-10.7-35.7-16.1-53.6
				c-5-2.3-9.9-6.2-15-6.5c-14.8-0.9-29.7-0.8-44.5-0.2C176.2,339.9,162.8,341.6,149.4,342.8z M235,286.8
				c-11.9-46.8-23-90.4-34.1-134c-1.4,0-2.9,0-4.3,0c-10.4,41.7-21,83.4-30.9,125.3c-0.5,2.2,4.4,8.3,7,8.4
				C192.2,287.1,211.8,286.8,235,286.8z"/>
			<path class="st1" d="M436.4,435.4c-13.7,0-27.5-0.1-41.2,0.1c-9.3,0.1-14.4-3.4-14.4-13.4c0.1-75.8,0.1-151.6,0-227.4
				c0-9.9,4.8-13.7,14.2-13.5c13.7,0.2,27.5-0.1,41.2-0.1C436.3,265.8,436.3,350.6,436.4,435.4z"/>
			<path class="st1" d="M407.2,144.9c-19-0.3-30.3-12.1-30.2-31.5c0.1-19.5,13-31.9,32.3-31.4c18.3,0.5,30.7,13.4,30.6,31.8
				C439.9,132.9,426.8,145.2,407.2,144.9z"/>
		</g>
	</g>
</g>
</svg>
