<!-- Generator: Adobe Illustrator 22.0.1, SVG Export Plug-In  -->
<svg version="1.1"
	 xmlns="http://www.w3.org/2000/svg" xmlns:xlink="http://www.w3.org/1999/xlink" xmlns:a="http://ns.adobe.com/AdobeSVGViewerExtensions/3.0/"
	 x="0px" y="0px" width="518px" height="518px" viewBox="0 0 518 518" style="enable-background:new 0 0 518 518;"
	 xml:space="preserve">
<style type="text/css">
	.st0{fill:#2ccd6e;}
</style>
<defs>
</defs>
<g id="Layer_3_1_">
	<g>
		<g>
			<path class="st0" d="M247.6,426.7c-7.3,0-14.7,0-22,0c-3.8,0-4.3-0.4-5.3-4c-7.3-26.5-14.6-53-21.9-79.5
				c-0.8-2.8-0.8-2.8-3.6-2.8c-28.1,0-56.2,0-84.4,0c-2.7,0-2.7,0-3.4,2.6c-7.1,26.5-14.2,53-21.3,79.5c-0.2,0.8-0.3,1.6-0.7,2.2
				c-0.6,0.7-1.4,1.4-2.2,1.8c-0.7,0.3-1.7,0.2-2.5,0.2c-13,0-26,0-39,0c-4.4,0-5.2-1-3.9-5.3c5.6-19.7,11.2-39.3,16.9-59
				c20.8-72.6,41.5-145.2,62.3-217.8c2-7.1,2.7-14.4,3-21.7c0-0.8,0-1.6,0.2-2.3c0.2-1.2,0.9-1.9,2.1-2c0.7-0.1,1.5-0.1,2.2-0.1
				c18.2,0,36.4,0,54.6,0c0.4,0,0.8,0,1.2,0c2.9,0.1,3.5,0.5,4.3,3.2c2.6,8.6,5.1,17.3,7.7,25.9c25.5,86.1,51,172.3,76.6,258.4
				c1.5,5.2,3,10.3,4.6,15.5c0.1,0.5,0.3,1,0.4,1.5c0.5,2.5-0.3,3.6-2.9,3.6C262.9,426.7,255.3,426.7,247.6,426.7z M152.5,163
				c-0.2,0-0.3,0-0.5,0c-0.2,0.6-0.3,1.1-0.4,1.7c-1.9,8.8-3.4,17.6-5.6,26.3c-8.5,33.5-17.2,67-25.8,100.6c-0.7,2.6-0.6,2.7,2,2.7
				c20.4,0,40.8,0,61.2,0c2.4,0,2.5-0.1,1.9-2.3c-2.8-10.7-5.6-21.3-8.3-32c-8-31.8-16-63.6-24-95.5
				C152.8,163.9,152.6,163.4,152.5,163z"/>
			<path class="st0" d="M300.2,334.9c0-26.7,0.2-53.3-0.1-80c-0.1-12.2-0.9-24.4-1.5-36.6c-0.2-3.8,0.2-4.5,3.7-5.9
				c16.4-6,33-11.2,50.1-14.5c12.4-2.4,24.8-3.8,37.4-3.5c11.8,0.2,23.5,1.8,34.6,5.8c21.2,7.7,34.7,22.7,41.1,44.2
				c3,10,4.2,20.2,4.3,30.5c0.1,49,0,98,0,147c0,0.7-0.1,1.5-0.2,2.2c-0.2,1.4-1.1,2.2-2.5,2.3c-0.6,0.1-1.1,0.1-1.7,0.1
				c-13.3,0-26.7,0-40,0c-0.7,0-1.3,0-2-0.1c-1.6-0.2-2.5-1.2-2.7-2.8c-0.1-0.9-0.1-1.8-0.1-2.7c0-46.6,0.1-93.1-0.1-139.7
				c0-5.6-0.5-11.3-1.7-16.8c-3-14.5-12.1-22.7-26.8-24.4c-13-1.6-25.7,0.1-38.2,3.8c-1.6,0.5-2.1,1.3-2.1,3c0,22.4,0,44.8,0,67.2
				c0,35.6,0,71.3,0,106.9c0,0.6,0,1.2,0,1.8c0,3.2-0.9,4.1-4.1,4.1c-14.5,0-28.9,0-43.4,0c-3.6,0-4.3-0.7-4.3-4.3
				C300.2,393.4,300.2,364.2,300.2,334.9z"/>
		</g>
	</g>
</g>
<g>
	<path class="st0" d="M499,518H19c-10.5,0-19-8.5-19-19V19C0,8.5,8.5,0,19,0h480c10.5,0,19,8.5,19,19v480
		C518,509.5,509.5,518,499,518z M19,14c-2.8,0-5,2.2-5,5v480c0,2.8,2.2,5,5,5h480c2.7,0,5-2.3,5-5V19c0-2.8-2.2-5-5-5L19,14L19,14z"
		/>
</g>
</svg>
