<?xml version="1.0" encoding="utf-8"?>
<!-- Generator: Adobe Illustrator 22.0.1, SVG Export Plug-In . SVG Version: 6.00 Build 0)  -->
<svg version="1.1" id="Layer_2" xmlns="http://www.w3.org/2000/svg" xmlns:xlink="http://www.w3.org/1999/xlink" x="0px" y="0px"
	 viewBox="0 0 600 600" style="enable-background:new 0 0 600 600;" xml:space="preserve">

	 <style>*{fill:white}</style>
<g>
	<g>
		<path d="M491.5,514.4c-0.7-2.1-2-4.1-2-6.2c-0.1-29.1-0.1-58.2-0.1-87.3c0-6.4,1-7.4,7.4-7.4c29.7,0,59.4,0,89,0
			c5.4,0,6.6,1.3,6.6,6.8c0,27.1-0.1,54.2-0.1,81.3c0,2.1,0,4.3,0.1,6.4c0.2,2.5-0.4,4.6-2.1,6.4
			C557.4,514.4,524.5,514.4,491.5,514.4z M506.1,486.1c-0.4,2.8,0.6,4,2.3,5.1c0.8,0.5,1.3,1.6,2,2.3c2.5,2.2,5,4.5,7.6,6.6
			c0.6,0.5,1.6,0.7,2.5,0.8c0.6,0.1,1.3-0.3,2-0.2c1,0.1,2.2,0.2,2.8,0.7c2.2,1.8,4.4,2,6.8,0.8c0.7-0.3,1.6-0.9,2.1-0.7
			c3.3,1.9,6.6,3.6,10.3,4.6c1.8,0.5,3.1,0.6,5-0.1c3.2-1.1,6.5-1.8,9.7-3.4c2.8-1.4,4.5-2.4,5.8-5.4c1-2.3,5.3-2.4,5.6-5.9
			c0-0.3,0-0.8,0.2-1c1-1.1,2-2.3,3.1-3.2c2.3-1.9,4.8-3.6,7-5.6c0.5-0.5,0.2-1.7,0.6-2.5c1.5-3.4,2-7,2.5-10.7
			c0.4-2.6,0.7-4.4-1.4-6.3c-0.6-0.5-1-1.7-0.8-2.4c0.8-2.7-0.6-4.4-2-6.4c-1.1-1.5-1.5-3.5-1.9-5.3c-0.6-2.9-0.9-5.9-1.5-8.9
			c-0.1-0.6-1.1-1.1-1.6-1.6c-2.5-2.5-4.1-6-8-6.9c-0.1,0-0.2-0.4-0.3-0.6c-1.2-2.2-3.1-2.5-5.5-2.3c-1.2,0.1-2.6-0.1-3.6-0.7
			c-2.3-1.5-4.6-2-6.9-0.5c-1.2,0.8-1.8,0.5-2.9-0.1c-2.5-1.3-5.2-2-7.7-3.3c-2.8-1.4-5.4-2-8,0.2c-0.3,0.2-1.1-0.2-1.6-0.2
			c-4.2,0.3-7.3,3.4-11.1,4.9c-0.4,0.2-0.8,1.2-0.8,1.8c0,1.8-1,2.5-2.6,2.9c-0.7,0.2-1.7,0.7-1.9,1.2c-1.4,4.3-3.9,7.5-8,9.4
			c-0.1,0-0.1,0.2-0.2,0.3c-2.5,2-5.3,3.9-4.5,7.9c0,0.2-0.7,0.5-0.9,0.9c-2.2,3.8-0.7,8.1-1.6,12.1c-0.1,0.4,0.9,1,1.1,1.6
			c0.5,1.1,1.2,2.3,1.1,3.4c-0.1,2.4,0.3,4.5,2.4,5.9c2,1.3,1.8,3.3,1.7,5.3c-0.1,1.2,0.1,2.5,0.4,3.7
			C505.6,485.2,506,485.9,506.1,486.1z"/>
		<path d="M7.4,456.6c0.4-1.5,0.8-3,1.1-4.5c2.7-12.1,11.1-18.6,23.4-18c3,0.2,6,0.5,9,1.1c0.9,0.2,2.1,1.5,2.2,2.4
			c0.1,2-0.3,4.1-0.8,6.2c0,0.2-1.4,0.2-2.2,0.1c-2-0.3-4-0.8-5.9-1c-7.5-1-12.5,2.2-14,9.7c-1.8,8.5-1.8,17.1,0,25.6
			c1.4,6.6,4.8,9.3,11.5,9.3c2.7,0,5.4-0.3,8-0.7c2.3-0.3,3.4,0.3,3.5,2.7c0,1,0.4,2.1,0.2,3c-0.3,1-0.9,2.5-1.7,2.7
			c-9,1.9-18,2.8-26-3.3c-4.8-3.7-6.3-9-7.6-14.5c-0.2-0.9-0.4-1.7-0.6-2.6C7.4,468.7,7.4,462.6,7.4,456.6z"/>
		<path d="M301.5,495.5c-8.7-0.1-7.9,0.9-9.9-8c-2.9-13-5.8-26-8.7-39c-0.2-0.8-0.3-1.6-0.7-2.2c-0.2-0.3-1.5-0.2-1.5,0
			c-0.5,1.5-0.9,3-1.3,4.5c-3.3,13.5-6.6,26.9-9.9,40.4c-1,3.9-1.5,4.2-5.5,4.3c-2.7,0-5.4-0.1-8.1,0c-2.9,0.2-4.2-1.1-4.9-3.8
			c-3.6-14.1-7.3-28.1-11-42.2c-0.9-3.4-1.6-6.7-2.4-10.1c-0.8-3.5-0.3-4.2,3.4-4.2c9.2,0,7.5-0.8,9.3,7.5
			c2.9,13.1,5.8,26.2,8.6,39.3c0.1,0.7,0.2,1.4,0.6,1.9c0.3,0.5,0.8,1,1.3,1.2c0.2,0.1,0.9-0.6,1-1.1c0.6-1.9,1.1-3.9,1.5-5.8
			c2.8-12.9,5.5-25.8,8.3-38.7c0.8-3.9,1.2-4.2,5.1-4.3c3.2,0,6.5,0.1,9.7,0c2.5-0.1,3.7,0.9,4.3,3.6c3.1,14.5,6.3,29.1,9.5,43.6
			c0.1,0.7,0.2,1.4,0.5,1.9c0.2,0.4,0.7,1,1.1,1c0.4,0,1-0.5,1.2-0.9c0.4-1.1,0.7-2.4,1-3.5c3.3-13.9,6.6-27.9,9.8-41.8
			c0.6-2.6,1.9-3.7,4.6-3.8c8.1-0.2,8.3-0.1,6.2,7.5c-4.4,16.3-9,32.6-13.3,48.9c-0.8,2.9-2.2,4.2-5.1,4
			C304.6,495.4,303,495.5,301.5,495.5z"/>
		<path d="M164.8,453.9c0,12,0,24,0,36c0,2.4-0.5,4.1-3.2,4.7c-9.3,2.1-18.6,2.7-28,0.9c-8.4-1.6-13.5-6.9-15.2-15.1
			c-2-9.5-2.4-19.1-0.1-28.6c2.5-10.6,9.5-16.5,20.3-17.3c3.9-0.3,7.9-0.2,11.7,0.2c2.4,0.3,3-0.4,3-2.6c0-4.7,0-9.4,0-14.1
			c0-4.5,0.4-4.9,4.7-4.9c6.6-0.1,6.7-0.1,6.7,6.7C164.8,431,164.8,442.5,164.8,453.9z M153.4,465.7c0-6.2-0.1-12.3,0-18.5
			c0.1-2.6-1.2-3.7-3.5-3.8c-3.1-0.1-6.3-0.2-9.4-0.1c-5.8,0.2-9.3,2.9-10.5,8.5c-2,9.2-1.7,18.4,0,27.6c0.7,4.1,3.4,6.9,7.6,7.4
			c4,0.5,8,0.4,12,0.6c2.7,0.1,3.8-1.2,3.7-3.9C153.3,477.6,153.4,471.6,153.4,465.7z"/>
		<path d="M53.7,465c-0.1-6.4,0.8-12.7,3.2-18.7c2.6-6.6,7.2-11,14.3-11.6c5.7-0.5,11.6-0.3,17.3,0.4c5.6,0.7,9.5,4.4,11.7,9.6
			c5.6,13.6,5.2,27.2,0,40.8c-2.1,5.6-6.4,9.2-12.1,10c-5.9,0.7-12,0.8-18,0.1c-6.1-0.7-10.2-4.6-12.6-10.3
			C54.9,479.1,53.7,473,53.7,465z M65,463.9c0.4,4.9,0.6,8.8,1.2,12.6c1.2,8.7,3.8,10.8,12.6,10.9c1.2,0,2.5,0,3.7-0.1
			c4.5-0.3,7-2.3,8.1-6.7c2.5-9.7,2.5-19.5,0.5-29.2c-1.3-6.3-3.6-8-10-8.3c-1.8-0.1-3.6,0-5.4,0c-5.2,0.3-7.8,2.2-8.9,7.4
			C65.9,455.3,65.5,460.1,65,463.9z"/>
		<path d="M209.7,468.9c-5,0-10.1,0.1-15.1,0c-2,0-2.8,0.7-2.8,2.8c0.3,8.8,4.1,15,14.2,15.7c5.3,0.3,10.5-0.1,15.6-1.8
			c1.5-0.5,3.6-2.2,4.7,0.9c1.2,3.5,0.6,6.5-2.2,7.4c-3.4,1.1-6.9,2-10.4,2.4c-5.9,0.6-11.9,0.6-17.6-1.3
			c-8.5-2.8-13.1-9.1-14.9-17.5c-1.9-8.8-1.9-17.6,0.6-26.2c3.5-11.8,12-17.6,24.1-17.1c1.9,0.1,3.8,0.2,5.7,0.5
			c10,1.9,15.5,8.3,16.3,19.3c0.3,3.8,0.1,7.6,0.1,11.4c0,2.6-1.3,3.8-4,3.7C219.3,468.8,214.5,468.9,209.7,468.9z M204.6,460.5
			C204.6,460.5,204.6,460.5,204.6,460.5c2,0,4,0,6,0c7.8,0,8.2-0.5,6.7-8.5c-0.7-3.9-2.1-7.3-6.2-8.4c-10.2-2.9-19.6,0.6-19.4,14.5
			c0,1.7,0.7,2.4,2.4,2.4C197.6,460.5,201.1,460.5,204.6,460.5z"/>
		<path d="M378.7,470.5c0,6.7-0.1,13.4,0,20.1c0.1,2.6-1,3.9-3.5,4.4c-10.2,1.8-20.5,2.2-30.6,0c-6.2-1.4-9.3-4.8-9.9-11.1
			c-0.4-3.5-0.3-7.2,0.2-10.7c0.6-4,3-7.6,7-8.8c5.6-1.7,11.5-2.7,17.2-3.9c2-0.4,4-0.6,6-0.7c2.1-0.1,2.7-1.1,2.6-3
			c-0.1-1.9,0-3.8-0.2-5.7c-0.4-4.3-2.3-6.8-6.6-7.1c-5.5-0.4-11.1-0.1-16.7,0c-3.9,0.1-4.2,0-4.7-3.8c-0.5-3.2,0.1-4.2,3.4-4.8
			c7.6-1.6,15.4-2,23-0.4c8.3,1.7,12.6,7.2,12.7,15.8C378.8,457.3,378.7,463.9,378.7,470.5z M367.7,477.9
			C367.7,477.9,367.7,477.9,367.7,477.9c0-2.5,0.1-4.9-0.1-7.4c-0.1-0.8-1.2-2.2-1.8-2.2c-4.9,0-9.8,0.1-14.7,0.6
			c-2.4,0.2-4,2-4.6,4.4c-0.4,1.8-0.7,3.8-0.7,5.6c0,6.7,1.7,8.9,7.1,9.1c3.9,0.2,7.8,0,11.7,0c2.1,0,3.1-0.9,3-3.1
			C367.7,482.6,367.7,480.3,367.7,477.9z"/>
		<path d="M453,434c3.2,0.3,6.5,0.5,9.7,0.8c1.7,0.1,2.3,1.1,2.2,2.7c-0.1,0.8,0,1.6-0.1,2.4c-0.1,4.1-0.4,4.2-4.6,3.8
			c-4.1-0.4-8.3-0.4-12.4-0.3c-4.5,0.1-6.7,2.6-5.7,7c0.5,2.2,2,4.5,3.8,6c4.4,3.6,9.2,6.8,13.8,10.2c8.4,6.3,7.6,17.3,4.1,23.7
			c-2.4,4.4-6.9,5.8-11.4,6c-6.4,0.3-12.7-0.2-19.1-0.5c-1.8-0.1-2.4-1.2-2.4-2.9c-0.2-6.1,0.3-6.5,6.3-5.7
			c3.5,0.4,7.1,0.4,10.7,0.4c2.6,0,5.5,0.2,6.7-2.7c1.3-3.3,1.3-6.8-1.3-9.8c-0.9-1-1.9-1.9-3-2.7c-4.3-3.3-8.6-6.8-13.1-9.9
			c-7.5-5.3-6.7-16-3.8-21.3c2.7-4.9,7.5-6.1,12.5-6.6c2.3-0.2,4.7,0,7.1,0C453,434.2,453,434.1,453,434z"/>
		<path d="M396,465.7c0-8.4,0.1-16.8-0.1-25.2c-0.1-3,1.2-4.5,3.9-4.7c7.7-0.6,15.4-1,23-1.5c2.6-0.1,3.7,1.3,3.3,3.8
			c-0.1,0.9-0.4,1.8-0.3,2.7c0.1,2.3-1,2.8-3.1,2.6c-3.7-0.2-7.4-0.2-11.1-0.1c-3.6,0.1-4.3,0.9-4.3,4.5c0,13.9,0,27.8,0,41.6
			c0,1,0,2,0,3c0,1.9-0.7,2.9-2.9,2.7c-1.7-0.2-3.4-0.1-5,0c-2.7,0.2-3.5-1.1-3.5-3.6C396,482.9,396,474.3,396,465.7z"/>
		<path d="M544.1,429.8c-2,2-4.3,3.4-5.4,5.5c-1.9,3.4-4.5,6.7-4.2,11c0,0.4,0.3,1,0.2,1.3c-1.9,4,0.2,7.2,1.7,10.7
			c0.4,1,0,2.5-0.3,3.7c-0.1,0.2-1.8,0-2.8-0.2c-0.7-0.1-1.3-0.4-1.9-0.6c-4.4-1.3-6.4-5.1-8.7-8.6c-1.9-2.9-0.7-6-1.7-8.9
			c-0.2-0.5,0.4-1.4,0.7-2c0.4-0.7,1.2-1.3,1.2-2c0-3,1.8-4.8,3.8-6.8c2.7-2.8,9.6-5.2,13.2-4C541,429.2,542.2,429.4,544.1,429.8z"
			/>
		<path d="M538.8,498.7c2.2-2.1,4.9-3.7,5.9-6c1.5-3.5,4.9-6.4,4.1-10.9c-0.4-2.1-0.4-4.2-0.2-6.3c0.2-2.4-1-4.2-2.1-6.1
			c-0.4-0.7-0.3-2.3,0.3-2.9c0.4-0.5,1.9-0.4,2.8-0.1c1.5,0.4,3.1,0.8,4.2,1.7c4.5,3.6,7.8,7.9,8,14.2c0,2.3,0.1,4.3-1.4,6.1
			c-0.1,0.2-0.3,0.4-0.3,0.6c0.9,3.9-2.5,6.1-4.6,7.5c-3.3,2.2-7.3,4.4-11.8,3.4C542.2,499.7,540.9,499.3,538.8,498.7z"/>
		<path d="M509.6,479c3.6,1,6.4,1.9,9.2,2.6c0.9,0.2,1.9-0.2,2.9-0.3c1.2-0.2,2.3-0.3,3.5-0.6c1.4-0.4,2.9-0.8,4.2-1.4
			c2.4-1,4.9-1.7,6.4-4.1c0.7-1.2,1.6-2.3,2.7-3.2c1.1-1,2.4-2.4,3.5-2.4c2.1,0.1,1.3,2,1.3,3.5c0,1.1,0.6,2.2,0.4,3.3
			c-0.8,5.9-3.1,10.8-8.6,14c-2.1,1.3-4,2.2-6.4,1.7c-0.2,0-0.5,0-0.7,0.1c-4.5,2.1-7.8,0.1-11.5-2.4c-2-1.3-3.7-2.5-4.6-4.7
			C511.4,483.4,510.7,481.6,509.6,479z"/>
		<path d="M573.3,449.4c-3.5-0.9-6.4-1.8-9.4-2.5c-0.6-0.2-1.4-0.1-2,0.2c-1.5,0.7-3,1.5-4.7,0.5c-0.4-0.2-1.2-0.2-1.6,0.1
			c-3.9,2.9-9.3,3.9-11.5,9.1c-0.4,0.9-2.2,1.6-3.3,1.6c-1.9,0-1.1-1.6-1.1-2.8c0-1.3-0.8-2.6-0.6-3.8c0.9-5.9,3.3-10.8,9-13.8
			c2-1,3.6-1.9,5.8-1.4c0.4,0.1,1.1,0.1,1.3-0.2c3-3,6.5-0.6,8.5,0.6c3.7,2.2,8.2,4.6,8.6,10C572.4,447.5,572.8,448.2,573.3,449.4z"
			/>
		<path d="M512.5,445.5c0.7,2.8,1.3,5.6,2.1,8.4c0.2,0.7,0.7,1.6,1.3,1.9c1.8,0.9,2.7,2.2,3.1,4c0.1,0.3,0.3,0.8,0.5,0.8
			c3.3,0.5,4.7,4.5,8.5,4.3c2.1-0.1,4.3,0.5,6.4,1.2c1,0.3,1.9,1.2,2.9,1.9c-0.7,0.7-1.4,1.5-2.1,2.2c-1,0.9-1.9,1.9-3,2.5
			c-4.7,2.6-9.9,2.5-14.5,0.8c-2.3-0.8-6.3-1.6-6.7-5.5c0-0.2-0.2-0.5-0.4-0.5c-3.8-1.3-3.5-5.1-4.3-7.9c-0.7-2.3,0.1-5.3,1-7.8
			c0.9-2.3,2.8-4.2,4.2-6.3C511.9,445.4,512.2,445.4,512.5,445.5z"/>
		<path d="M555.7,454.2c2.5,0.3,5.2,0.4,7.7,0.9c3.4,0.6,6.8,1.6,8.3,5.3c0.2,0.4,0.4,1,0.8,1.1c3.7,1.3,2.8,5.1,4.3,7.6
			c0.3,0.5-0.1,1.4-0.2,2.1c-0.2,0.9-0.7,1.8-0.6,2.5c0.7,3.5-1.5,5.6-3.6,7.9c-0.9,1.1-1.7,0.9-2.1-0.5c-0.6-1.8-1.2-3.6-1.8-5.4
			c-0.1-0.2,0-0.5-0.1-0.6c-2.4-2.7-3.8-6.5-7.3-8.3c-0.6-0.3-1.3-0.4-1.7-0.8c-2.6-2.6-5.9-3-9.4-3.2c-1.2-0.1-2.8-1-3.4-2
			c-1.1-1.6,0.7-1.8,1.8-2.4c1.7-1,3.3-2.2,4.9-3.2C553.8,454.7,554.6,454.5,555.7,454.2z"/>
	</g>
</g>
</svg>
