<!-- Generator: Adobe Illustrator 22.0.1, SVG Export Plug-In  -->
<svg version="1.1"
	 xmlns="http://www.w3.org/2000/svg" xmlns:xlink="http://www.w3.org/1999/xlink" xmlns:a="http://ns.adobe.com/AdobeSVGViewerExtensions/3.0/"
	 x="0px" y="0px" width="25.7px" height="33.6px" viewBox="0 0 25.7 33.6" style="enable-background:new 0 0 25.7 33.6;"
	 xml:space="preserve">
<style type="text/css">
	.st0{fill:#2ccd6e;}
</style>
<defs>
</defs>
<g id="css_1_">
	<path class="st0" d="M1.5,22c0.3-1.4,0.5-2.7,0.8-4s0.3-0.4,0.7-0.4h16c0.8,0,1.2-0.2,1.2-1c0.1-0.6,0.2-1.2,0.4-1.8H3
		c0.2-1.4,0.5-2.6,0.7-3.8c0.2-1.2,0.4-0.5,0.8-0.5h21.2c-0.4,2-0.7,4-1.1,6c-0.9,4.2-1.7,8.4-2.5,12.6c-0.1,0.5-0.4,0.9-0.9,1.1
		l-10.4,3.4H9.6l-9.1-3.5L0,29.9l1-5.1h4.3c-0.1,0.5-0.2,1.1-0.3,1.6c0,0.2,0.1,0.5,0.3,0.6l5.5,2.1h0.7l6.1-2.1
		c0.4,0,0.7-0.3,0.7-0.7l0.9-4.3L1.5,22z"/>
	<path class="st0" d="M14.8,3.9l-1.1-0.2c-1.2-0.3-1.8-1-1.7-2.1S12.8,0,14.1,0h1.2c0.9,0.1,1.2,0.5,0.9,1.3
		c-0.3,0.8-0.3,0.3-0.5,0.3c-0.3,0-0.7-0.1-1-0.3h-0.9v0.3l1.4,0.3c0.9,0.1,1.5,0.9,1.4,1.7c0,0.1,0,0.2,0,0.3
		c0.2,0.9-0.4,1.7-1.3,1.9c-0.2,0-0.4,0-0.5,0l-2.2-0.2c-0.5-0.1-0.9-1.3-0.5-1.6h0.6l1.2,0.4c0.3,0.1,0.6,0,0.9-0.1V3.9z"/>
	<path class="st0" d="M19.5,3.9l-1-0.2c-1.3-0.3-1.9-1-1.8-2.1c0.1-1,0.8-1.6,2.1-1.6h1.7c0.2,0.1,0.4,0.3,0.4,0.6
		c0.2,1.1,0.1,1.1-1,0.9l-1.4-0.2v0.3l0.6,0.2L20,2c1,0.3,1.4,0.8,1.3,1.8s-0.5,1.8-1.5,1.9c-0.9,0.1-1.7,0-2.6-0.1
		c-0.5-0.1-0.7-1.3-0.4-1.6h0.6c0.4,0.2,0.8,0.4,1.2,0.4c0.3,0.1,0.6,0,0.9-0.1V3.9z"/>
	<path class="st0" d="M9.7,5.8C8.3,6,7,5,6.8,3.6c0-0.3,0-0.5,0-0.8C6.7,1.4,7.7,0.1,9.2,0c0.2,0,0.4,0,0.5,0h1.1
		c0.5,0.1,0.9,0.6,0.8,1.2c0,0.1,0,0.1-0.1,0.2c0,0.2-0.2,0.3-0.4,0.3l-0.4-0.2C10.1,1.2,9.5,1.3,9,1.7c-0.5,0.6-0.5,1.4-0.1,2
		c0.3,0.6,0.9,0.7,1.7,0.4s0.7-0.5,1,0.1c0.2,0.4,0,1-0.4,1.2c-0.1,0-0.2,0.1-0.3,0.1L9.7,5.8z"/>
</g>
</svg>
