<?xml version="1.0" encoding="utf-8"?>
<!-- Generator: Adobe Illustrator 22.0.1, SVG Export Plug-In . SVG Version: 6.00 Build 0)  -->
<svg version="1.1" id="Layer_4" xmlns="http://www.w3.org/2000/svg" xmlns:xlink="http://www.w3.org/1999/xlink" x="0px" y="0px"
	 viewBox="0 0 600 600" style="enable-background:new 0 0 600 600;" xml:space="preserve">
     <style>*{fill:white}</style>
<g>
	<g>
		<path d="M322.4,284.2c1.3-0.5,3.5-1.4,5.7-2.1c27.4-8.2,39.2-33.5,28.6-60.4c-3-7.5-5-15.5-6.5-23.4c-2.1-11.1-5.1-13.3-15.7-9.5
			c-24.1,8.6-48.2,9.8-72.3-0.1c-9.2-3.8-12.9,0.3-14.3,9.3c-1.5,9.1-3.4,18.2-6.4,26.9c-8.1,23.4,4,48.2,27.7,55.8
			c3.4,1.1,6.8,2.1,10.2,3.1c-4.2,13.4-13.9,16.6-23.9,8.1c-5.1-4.3-10-8.9-15.8-12.5c8.5,22.4,8.6,22.4,30.6,29.9
			c9.2,3.1,5.2,10.7,4.3,16.4c-0.2,1.3-7.8,3.1-11,1.9c-37-14.1-58.9-61.1-47.5-101.3c11.2-39.7,45.4-65.1,86.7-64.3
			c38.8,0.7,71.9,27.4,81.9,65.8c9.9,38.2-7.4,78.2-42.4,97.9c-15,8.4-16.6,7.4-17.3-9.7C324.6,305.6,323.4,295.3,322.4,284.2z"/>
		<path d="M269.7,460.5c0-17.4,0.5-34.7-0.2-52.1c-0.4-10.5,2.3-15.1,13.9-14.8c10.4,0.3,15.9,2.4,14.7,14
			c-0.8,7.7,0.2,15.6-0.2,23.3c-0.5,8.7,2,12.8,11.8,13.2c27.7,1.2,27.7,1.7,27.7-25.8c0-3,0-6,0-9c0.3-13.9,10.5-20.7,23.4-14.6
			c2.6,1.2,4.8,6.5,4.8,9.9c0.3,37.1-0.1,74.2,0.4,111.3c0.1,10.3-4.9,11.9-13.3,11.5c-7.8-0.4-16.1,1.2-15.5-11.2
			c0.6-11.9-0.1-23.9,0.1-35.9c0.2-7.6-2.9-10.2-10.5-10.8c-28.4-2.3-29-2-29,26.5c0,5.4,0.1,10.8,0,16.2
			c-0.3,15.1-1.2,15.5-16.7,15.3c-8.4-0.1-11.8-2.8-11.6-11.4C270,497.6,269.7,479,269.7,460.5z"/>
		<path d="M140.7,485.7c0,4.2,0,8.4,0,12.6c0,23.6-0.8,25.7-23.7,29.5c-41.4,6.9-77.9-5.6-79.3-61.4c-0.3-11.8,0.7-24,3.3-35.5
			c6.2-27.7,24.1-41.9,52.2-42.3c8.9-0.1,18,0.3,26.7,1.9c14.5,2.6,18.5,11.7,10.5,23.7c-1.5,2.3-7.1,3.1-10.5,2.7
			c-45-5.7-65.3,20-50.6,64.4c5.3,16,16,22.9,32.5,21.9c7.6-0.4,11.6-3.4,10.3-10.9c-1.1-6.5,5.2-17.9-8.2-17.4
			c-13.7,0.5-11.7-8-12-16.3c-0.4-10.9,7.3-8.7,13.5-8.9C140.7,448.5,140.7,448.5,140.7,485.7z"/>
		<path d="M505.1,438.2c42.9-9.8,58.3,2.5,57.9,43.8c0,3.6,0,7.2-0.4,10.7c-3.1,31.7-22.1,44-52.3,33.5c-6.3-2.2-11-2.5-17.7,0.1
			c-11.7,4.5-16.3,0.4-16.3-12.1c-0.2-35.8,0.3-71.7-0.3-107.5c-0.2-10.4,3.4-13.7,13.4-13.1c8.5,0.5,17.1-1,15.9,12.4
			C504.3,416.2,505.1,426.3,505.1,438.2z M536.5,484.5c-0.6-0.3-1.2-0.5-1.9-0.8c-0.2-3.6-0.4-7.1-0.7-10.7
			c-0.8-10.7-6.1-16.3-17.3-15.8c-11.6,0.6-13,8.1-12.4,17.3c0.4,5.9-0.7,12.1,0.3,17.8c0.9,4.6,3,11.1,6.4,12.5
			c4.8,2,13.6,2.5,16.5-0.5C532.3,499.5,533.7,491.3,536.5,484.5z"/>
		<path d="M462.5,483.1c0,10.8-0.6,21.6,0.2,32.3c0.9,11.6-6.3,15-14,11.1c-7.7-3.9-13-1.4-19.7,0.3c-7.4,1.8-15.3,2.7-23,2.4
			c-16.1-0.6-25.9-9.7-26.6-25.7c-0.9-19.1,0.2-38.3-0.4-57.5c-0.4-11.6,7-10.1,14.2-10.2c8.1-0.1,15.7-0.9,15.1,11.4
			c-0.7,14.9,0.1,29.9-0.2,44.9c-0.2,9.2,2.5,15.5,13,14.8c8.7-0.6,14.6-3.8,14.3-14.3c-0.5-15,0.3-29.9-0.2-44.9
			c-0.3-10.4,5.5-11.5,13.7-11.4c7.8,0.1,14.3,0,13.8,10.9C462,459.1,462.5,471.1,462.5,483.1z"/>
		<path d="M239.3,529.4c-21,0.2-30.5-8.5-32.1-29.8c-0.6-8.3-0.1-16.7-0.2-25.1c-0.1-7,1.7-14.1-9.9-14.7
			c-6.1-0.3-7.3-17.1-1.1-18.5c12.7-2.8,12.5-11.1,11.6-20.1c-1.1-12.8,7.6-10.7,15.3-11.1c8-0.3,14.5,0.3,13,11.1
			c-1.3,9.4,0.2,16.6,12.8,15.4c9.2-0.9,8.3,6.2,8.4,12.3c0.1,6.2,0.6,13-8.7,11.7c-12.6-1.8-13.5,5.6-12.8,15.1
			c0.4,6,0.2,12,0.1,17.9c-0.2,7.8,3.3,13.5,11.2,13.1c11.8-0.6,10.1,6.8,10.2,14c0.1,9.2-6.6,8.3-12.4,8.8
			C242.9,529.6,241.1,529.4,239.3,529.4z"/>
		<path d="M183,484c0,10.7-0.5,21.5,0.2,32.1c0.6,8.8-2.9,12.1-11.3,11.2c-6.9-0.8-16.7,3.4-16.6-9.7c0.1-24.4,0.1-48.8,0-73.2
			c0-10.5,7.6-8.5,13.8-8.6c6.4-0.1,13.7-1.4,13.7,8.9c-0.1,13.1,0,26.2,0,39.3C182.9,484,183,484,183,484z"/>
		<path d="M168.5,397.3c8.3-0.4,16.9,7.2,16.5,15.4c-0.4,8.7-4.9,14.6-14.1,15.6c-9,1-16.7-5.4-17.4-14.1
			C152.8,405.9,160.1,397.7,168.5,397.3z"/>
	</g>
</g>
</svg>
