<!-- Generator: Adobe Illustrator 22.0.1, SVG Export Plug-In  -->
<svg version="1.1"
	 xmlns="http://www.w3.org/2000/svg" xmlns:xlink="http://www.w3.org/1999/xlink" xmlns:a="http://ns.adobe.com/AdobeSVGViewerExtensions/3.0/"
	 x="0px" y="0px" width="24.1px" height="34.2px" viewBox="0 0 24.1 34.2" style="enable-background:new 0 0 24.1 34.2;"
	 xml:space="preserve">
<style type="text/css">
	.st0{fill:#2ccd6e;}
</style>

<g id="html_1_">
	<path class="st0" d="M12,6.8h11.2c0.9,0.1,0.9,0.1,0.9,0.9c-0.3,2.8-0.5,5.5-0.8,8.2s-0.5,5.6-0.7,8.4L22,31c0,0.5-0.2,0.7-0.7,0.8
		l-8.9,2.4h-0.7l-9.1-2.4c-0.3,0-0.6-0.4-0.5-0.7c0,0,0,0,0,0l-0.6-6.8c-0.3-2.8-0.5-5.6-0.8-8.4S0.2,10.4,0,7.6
		C-0.1,7,0.1,6.8,0.7,6.8L12,6.8z M8.1,18l-0.3-3h11.6l0.3-3.2H4.3l0.8,9.4h10.5c0,0.8-0.1,1.6-0.1,2.3s-0.1,1.4-1.4,1.8L13,25.6
		c-0.7,0.2-1.4,0.2-2.1,0l-1.7-0.5c-0.4-0.1-0.5-0.2-0.5-0.6s-0.1-1-0.2-1.5c0-0.2-0.1-0.4-0.3-0.4H5.3c0.1,1.6,0.3,3,0.4,4.5
		c0,0.3,0.2,0.6,0.5,0.6l4.6,1.3c0.5,0.2,1.1,0.2,1.7,0.1l5.3-1.4c0.4-0.1,0.5-0.3,0.6-0.7c0.2-2.7,0.5-5.5,0.8-8.2
		c0-0.6-0.2-0.8-0.7-0.7L8.1,18L8.1,18z"/>
	<path class="st0" d="M12.3,0.1c1.4-0.5,2,0.4,2.5,1.6c0.3-0.3,0.5-0.6,0.6-1c0.1-0.5,0.7-0.8,1.2-0.7h0.9v4.7h-1.6v-2h-0.1L14.9,4
		l-1.1-1.5v2.2h-1.5V0.1z"/>
	<path class="st0" d="M2.1,0h1.6v1.5h1.4V0.1h1.5v4.6H5.1V3.2H3.7v1.5H2.1V0z"/>
	<path class="st0" d="M8.7,1.6H7.4V0.1h4.2v1.4h-1.3v3.1H8.7V1.6z"/>
	<path class="st0" d="M21.9,4.7h-3.6V0.1h1.5v3h2.1V4.7z"/>
</g>
</svg>
