<!-- Generator: Adobe Illustrator 22.0.1, SVG Export Plug-In  -->
<svg version="1.1"
	 xmlns="http://www.w3.org/2000/svg" xmlns:xlink="http://www.w3.org/1999/xlink" xmlns:a="http://ns.adobe.com/AdobeSVGViewerExtensions/3.0/"
	 x="0px" y="0px" width="30px" height="33.6px" viewBox="0 0 30 33.6" style="enable-background:new 0 0 30 33.6;"
	 xml:space="preserve">
<style type="text/css">
	.st0{fill:#2ccd6e;}
</style>
<defs>
</defs>
<g id="js_1_">
	<g>
		<g>
			<path class="st0" d="M30,24.1c-0.1,0.1-0.1,0.2-0.2,0.4c-0.2,0.7-0.6,1.2-1.2,1.6c-4,2.3-8,4.6-12,7c-1,0.6-2.1,0.6-3.1,0
				c-1.3-0.8-2.5-1.5-3.8-2.2c-0.1-0.1-0.3-0.2-0.4-0.3c0.7-0.3,1.3-0.7,2-0.9c0.1-0.1,0.4,0,0.6,0.1c0.9,0.5,1.7,1,2.6,1.5
				c0.4,0.2,0.7,0.3,1.1,0c3.9-2.3,7.9-4.6,11.8-6.8c0.4-0.2,0.5-0.5,0.5-0.9c0-4.6,0-9.2,0-13.8c0-0.4-0.2-0.6-0.5-0.8
				c-3.9-2.2-7.8-4.5-11.7-6.7c-0.5-0.3-0.8-0.3-1.3,0C10.5,4.6,6.7,6.8,2.8,9c-0.4,0.2-0.6,0.5-0.6,1c0,4.5,0,9.1,0,13.6
				c0,0.4,0.1,0.7,0.5,1c1,0.5,2,1.2,3,1.7c0.5,0.2,1,0.4,1.5,0.4c0.9,0,1.6-0.6,1.6-1.5c0-0.3,0-0.6,0-1c0-4.2,0-8.5,0-12.7
				c0-0.9,0-0.9,0.9-0.9c1.4,0,1.2-0.1,1.2,1.3c0,4.5,0,9,0,13.5c0,2.3-1.6,3.7-4,3.4c-0.7-0.1-1.4-0.3-2-0.6
				c-1.3-0.6-2.5-1.4-3.8-2.1c-0.7-0.4-1.1-1.2-1.1-2c0-4.8,0-9.5,0-14.3c0-1.1,0.4-1.8,1.4-2.4C4.6,5.6,7.8,3.8,11,1.8
				c0.8-0.5,1.6-0.9,2.4-1.4c1-0.6,2-0.6,3,0c3.6,2.1,7.2,4.2,10.8,6.3c0.1,0,0.1,0.1,0.2,0.1c1.1,0.6,2.2,1.2,2.5,2.6
				C30,14.2,30,19.1,30,24.1z"/>
			<path class="st0" d="M18.6,10c1.1,0,2.3,0.1,3.4,0.6c1.4,0.6,2.2,1.7,2.4,3.2c0.1,0.7,0,0.8-0.7,0.8c-0.1,0-0.1,0-0.2,0
				c-0.8,0.1-1.3,0-1.5-1c-0.2-0.8-0.9-1.2-1.6-1.4c-1.3-0.3-2.6-0.3-3.8,0c-0.3,0.1-0.6,0.2-0.8,0.4c-0.5,0.3-0.7,0.8-0.6,1.4
				c0,0.6,0.4,0.9,0.9,1c1.3,0.3,2.7,0.5,4,0.7c0.9,0.2,1.8,0.3,2.7,0.6c1.1,0.3,2,1,2.2,2.2c0.2,1.5,0,2.9-1.3,3.8
				c-1.1,0.8-2.3,1.1-3.6,1.2c-1.4,0.1-2.8,0.1-4.2-0.3c-1.5-0.4-2.8-1.2-3.2-2.9c-0.3-1.5-0.5-1.5,1.1-1.5c0.6,0,0.9,0.1,1,0.8
				c0.1,0.8,0.7,1.4,1.5,1.6c1.7,0.5,3.4,0.5,5.1,0c0.3-0.1,0.7-0.3,0.9-0.5c0.8-0.8,0.6-2.1-0.5-2.4s-2.3-0.5-3.5-0.7
				c-1.1-0.2-2.3-0.4-3.3-0.7c-1.3-0.4-2-1.3-2.1-2.7c-0.1-1.3,0.3-2.4,1.4-3.1C15.5,10.1,17,10,18.6,10z"/>
		</g>
	</g>
</g>
</svg>
