<?xml version="1.0" encoding="utf-8"?>
<!-- Generator: Adobe Illustrator 22.0.1, SVG Export Plug-In . SVG Version: 6.00 Build 0)  -->
<svg version="1.1" id="Layer_3" xmlns="http://www.w3.org/2000/svg" xmlns:xlink="http://www.w3.org/1999/xlink" x="0px" y="0px"
	 viewBox="0 0 600 600" style="enable-background:new 0 0 600 600;" xml:space="preserve">

	 <style>*{fill:white}</style>
<g>
	<g>
		<path d="M441.1,455.1c0-21.5-0.1-43,0-64.4c0.1-8,2.8-11.1,10.5-11.1c43.6-0.1,87.1-0.2,130.7,0c8.3,0,11.8,6.4,10.4,16.1
			c-0.7,4.8-0.5,9.7-0.5,14.6c0,33.1,0,66.3,0,99.4c0,3.1,0.1,6.1,0,9.2c-0.3,9.1-2.7,11.6-11.7,11.7c-17.8,0.2-35.6,0.1-53.4,0.1
			c-24.5,0-49.1,0.1-73.6,0c-10.2-0.1-12.3-2.3-12.3-12.9C441,496.8,441.1,476,441.1,455.1z M500.1,472.5c0,9.8,0.4,19.7-0.1,29.5
			c-0.3,6.2,2.4,7.3,7.5,6.6c1.8-0.2,3.7,0,5.5,0c9-0.1,9.1-0.1,9.2-8.4c0.1-11-0.6-22.1,0.3-33.1c0.4-4.7,2.6-11.5,6-13.3
			c9.9-5.3,19.3,1.4,19.4,12.6c0.1,12.3,0.3,24.6-0.1,36.8c-0.2,5.8,2.9,6.1,6.8,5.4c5.2-1,14.2,3.9,15-4c1.6-15.2,0.8-30.6,0.3-46
			c-0.2-8.1-11-22.9-16.9-23.5c-9.4-0.9-19.2-1.1-27.1,5.5c-4.8,4-8.3,8.8-7.7-2.5c0.1-1-2-2.4-3.4-3c-1-0.5-2.4-0.1-3.6-0.1
			c-13.6,0-11.1-0.9-11.2,10.1C500,454.1,500.1,463.3,500.1,472.5z M463.2,470.7c0,9.2-0.1,18.4,0,27.6c0.1,10.2,0.1,10.2,11,10.2
			c0.6,0,1.2,0,1.8,0c9-0.1,9.2-0.1,9.2-8.4c0.1-19,0.1-38,0-56.9c0-8.3-0.2-8.3-9.2-8.4c-12.8-0.1-12.8-0.1-12.9,12.1
			C463.2,454.8,463.2,462.8,463.2,470.7z M485.3,412.7c0-7.7-3-10.9-10.6-11.1c-7.8-0.2-11.2,2.8-11.5,10.1
			c-0.4,8.9,2.7,12.2,11.5,12C482.3,423.6,485.3,420.4,485.3,412.7z"/>
		<path d="M419,456.2c0,14.7,0.1,29.4,0,44c0,8.3-0.2,8.6-9.2,8.2c-3.3-0.2-9.4,3.4-9.3-4.6c0-0.4-3-1.2-3.1-1
			c-3.3,6.2-10.1,5.5-15.3,7.5c-13.7,5.2-38-7.1-39.8-21.9c-1.5-12.6-3.4-26,2.9-38.8c6.3-12.7,15.1-19.8,29.7-18.4
			c2.4,0.2,5.3,0.9,7.3-0.1c5.7-2.9,10,8.4,14,2.1c2.5-3.9,0.8-10.6,0.8-16.1c0.1-16.4,0.1-16.3,16.9-15.5c3.8,0.2,5.3,1.1,5.3,5.1
			C418.9,423.2,419,439.7,419,456.2z M396.8,471.7c0-5-10.6-18.2-14.8-18.4c-6.7-0.4-18.3,12.4-18.4,20.3
			c-0.1,5.2,11.3,16.6,16.6,16.6C386.1,490.1,396.9,478.1,396.8,471.7z"/>
		<path d="M216.2,462c7.1-9.5,12.7-17.2,18.5-24.7c0.9-1.2,2.7-2.3,4.1-2.3c10.8-0.2,21.6-0.1,32.7-0.1
			c-9.6,11.6-18.2,22.2-27.2,32.4c-2.2,2.5-1.2,3.1,0.1,5.4c6.3,10.6,13.3,20.6,22.1,29.4c1,1,1,3.3,0.8,4.9
			c-0.1,0.6-1.8,1.5-2.9,1.6c-8.6,0.1-17.1,0.3-25.7-0.1c-1.5-0.1-3.1-2.4-4.2-4c-5.8-8.2-11.4-16.5-18.5-26.8
			c0,6.9,0.2,11.6,0,16.4c-0.2,4.7,0.5,12.8-1.5,13.5c-5.3,2-11.9,1.3-17.9,0.9c-1-0.1-2.5-3.5-2.6-5.5c-0.3-9.8-0.1-19.6-0.1-29.4
			c0-20.8,0-41.6,0-62.4c0-9.3,0.1-9.3,10.1-9.4c2.4,0,4.9,0.1,7.3,0c4.3-0.3,4.8,2.1,4.8,5.6C216.1,424.8,216.2,442.4,216.2,462z"
			/>
		<path d="M338,494.9c-10.1,14.1-23.6,18.1-39.4,17.4c-20.4-0.9-34.6-15.5-34.4-36.1c0.1-7.7,0.3-15.6,2-23
			c3.3-13.8,16.2-18.2,27.2-21.6c17.6-5.5,33.6,4.2,42.1,20.9c3.9,7.7,1.5,15.3,2,22.9c0.1,1.1-3,3.4-4.6,3.4
			c-12.8,0.3-25.7,0.1-38.5,0.2c-1.5,0-4.4,1.5-4.4,1.9c0.5,2.2,1,4.8,2.6,6.2c5.1,4.5,15.1,4.6,20.9-0.8c4.8-4.5,7.5-4.2,11.8,0.2
			C328.5,489.8,333,491.7,338,494.9z M300.3,464.3c1.2,0,2.5,0.2,3.6,0c2.9-0.7,8.3,2.3,8-3.7c-0.2-4.3-3.4-7.2-8.3-7.4
			c-4.8-0.2-9.7-0.5-12.5,4.6c-0.8,1.4-0.9,3.3-0.8,4.8c0.1,0.7,1.8,1.5,2.8,1.6C295.5,464.5,297.9,464.3,300.3,464.3z"/>
		<path d="M113,471.2c0-8-0.2-15.9,0.1-23.9c0.1-4.1-0.3-10.7,1.8-11.7c4-1.9,9.5-0.8,14.3-0.7c0.8,0,2.1,1.5,2.2,2.4
			c0.5,8.7,3.5,2.8,5.8,1c15.1-12.1,32-8.5,41.3,1.2c2.2,2.4,4.4,6,4.5,9.1c0.4,18.4,0.1,36.8,0.3,55.2c0,4.3-2,5.1-5.6,4.8
			c-2.4-0.2-4.9,0-7.4,0c-9-0.1-9.1-0.1-9.2-8.4c-0.1-8.6,0.2-17.2-0.1-25.8c-0.1-3.4-0.8-7-2-10.2c-2.8-7.3-3.4-7.3-9.5-7.4
			c-5.7-0.1-9.8,2.1-10.4,7.5c-0.8,7.6-6,14.2-4.1,22.4c1.1,4.7-0.1,9.8,0.3,14.7c0.5,5.4-1.2,7.3-6.9,7.3
			c-15.2,0-15.2,0.3-15.3-15.4C113,485.9,113,478.6,113,471.2z"/>
		<path d="M6.1,455.1c0-14.7,0-29.4,0-44.1c0-9.3,0.1-9.3,10.1-9.4c2.5,0,4.9,0.1,7.3,0c4.3-0.3,4.9,2.1,4.7,5.6
			c-0.2,3.7,0,7.3,0,11c0,18.4,0,36.8,0,55.1c0,13,0.1,13,13.8,13c4.3,0,8.6,0,12.9,0c14.2,0.1,14,0.1,14,14.8
			c0,5.1-0.6,7.7-6.7,7.5c-16.5-0.4-33.1-0.4-49.6,0c-6.4,0.2-6.6-2.8-6.5-7.6C6.2,485.7,6.1,470.4,6.1,455.1z"/>
		<path d="M79.8,471.7c0-9.8,0.7-19.7-0.2-29.4c-0.7-7.6,2.7-8.2,8.5-7.6c3,0.3,6.1,0.2,9.2,0c4.3-0.3,4.8,2.1,4.7,5.6
			c-0.1,20.8-0.1,41.6,0,62.5c0,3.4-0.2,5.9-4.6,5.7c-4.3-0.2-8.6-0.2-12.9,0c-4.3,0.2-4.8-2.1-4.7-5.6
			C79.9,492.5,79.8,482.1,79.8,471.7z"/>
		<path d="M105.6,416.4c-0.1,7.2-6.4,11.5-16,11c-7.5-0.4-13.9-7.8-13.5-15.6c0.3-7.7,7.4-14.1,15.2-13.9
			C100.6,398.2,105.8,404.9,105.6,416.4z"/>
	</g>
</g>
</svg>
