<svg id="Layer_2" data-name="Layer 2" xmlns="http://www.w3.org/2000/svg" viewBox="0 0 270.87 264.55"><title>nodejslogo</title><path d="M162.13,413.78H433V149.23H162.13Z" transform="translate(-162.13 -149.23)" style="fill:#fff"/><path d="M162.13,413.78V149.23H433V413.78Zm144.1-75.5c-13-44.34-25.88-88.1-38.85-131.83-.4-1.36-2-3.29-3.16-3.33-8.4-.28-16.82-.15-23.93-.15-13,45.8-25.59,90.44-38.25,135.16,19.82,3.11,20.27,2.82,25.06-15.11.34-1.26.55-2.56.92-3.81,1.79-6,1.88-14.28,5.92-17.35s12.09-1.17,18.37-1.14c6.7,0,15.24-2,19.58,1.35s4.59,12.09,6.39,18.54c5.38,19.24,5.33,19.26,25.28,18.21A22.62,22.62,0,0,0,306.23,338.28Zm28.65-45.16c12.07,0,24.2.06,36.34,0,19.49-.11,19.86-.56,18.26-20.24-1.58-19.39-13.4-33.69-29.53-35.71-19.19-2.41-34.13,5.85-42.14,23.61-5.68,12.61-7,25.81-5.19,39.53,4.42,33.33,35,50.66,65.85,37,1.7-.76,3.8-2.76,4-4.37.53-4.85.19-9.79.19-14.13-8.73.84-16.65,2.35-24.54,2.21C342.57,320.72,333.32,309.44,334.88,293.12Z" transform="translate(-162.13 -149.23)"/><path d="M238.3,280.16l14-55.1,1.07-.08c4.74,18.19,9.48,36.39,14.38,55.18Z" transform="translate(-162.13 -149.23)"/><path d="M334.91,276.33c.35-14.55,8.5-22.87,20.18-21.48,7.87.94,15.3,11,13.5,18.59a4.63,4.63,0,0,1-3.43,2.76C355.23,276.43,345.29,276.33,334.91,276.33Z" transform="translate(-162.13 -149.23)"/></svg>