<!-- Generator: Adobe Illustrator 22.0.1, SVG Export Plug-In  -->
<svg version="1.1"
	 xmlns="http://www.w3.org/2000/svg" xmlns:xlink="http://www.w3.org/1999/xlink" xmlns:a="http://ns.adobe.com/AdobeSVGViewerExtensions/3.0/"
	 x="0px" y="0px" width="44px" height="17px" viewBox="0 0 44 17" style="enable-background:new 0 0 44 17;" xml:space="preserve">
<style type="text/css">
	.st0{fill:#2ccd6e;}
	.st1{clip-path:url(#SVGID_2_);}
	.st2{clip-path:url(#SVGID_4_);}
	.st3{clip-path:url(#SVGID_6_);}
	.st4{clip-path:url(#SVGID_8_);}
</style>
<defs>
</defs>
<g id="node_1_">
	<g>
		<path class="st0" d="M9.4,9c0-0.2-0.1-0.4-0.3-0.4L4.9,6.2c-0.1,0-0.2-0.1-0.2-0.1l0,0c-0.1,0-0.2,0-0.2,0.1L0.3,8.6
			C0.1,8.7,0,8.9,0,9v6.5c0,0.1,0,0.2,0.1,0.2s0.2,0,0.3,0l2.5-1.4c0.2-0.1,0.3-0.3,0.3-0.4v-3.1c0-0.2,0.1-0.4,0.3-0.4l0.9-0.7
			c0.1,0,0.2,0,0.3,0c0,0,0.1,0,0.2,0L6,10.3c0.2,0.1,0.3,0.3,0.3,0.4v3.1c0,0.2,0.1,0.3,0.3,0.4L9,15.7c0.1,0,0.2,0,0.3,0
			s0.1-0.1,0.1-0.2L9.4,9z"/>
		<path class="st0" d="M29.7,0c-0.1,0-0.2,0-0.3,0c-0.1,0-0.1,0.1-0.1,0.2v6.5c0,0.1,0,0.1-0.1,0.2c-0.1,0-0.1,0-0.2,0l-1.1-0.6
			c-0.2-0.1-0.4-0.1-0.5,0l-4.2,2.4C23,8.8,22.9,9,22.9,9.1V14c0,0.2,0.1,0.3,0.3,0.4l4.2,2.4c0.2,0.1,0.4,0.1,0.5,0l4.2-2.4
			c0.2-0.1,0.3-0.3,0.3-0.4V1.8c0-0.2-0.1-0.4-0.3-0.4L29.7,0z M29.3,12.4c0,0,0,0.1-0.1,0.1l-1.4,0.8h-0.1l-1.4-0.8l-0.1-0.1v-1.7
			c0,0,0-0.1,0.1-0.1l1.4-0.8h0.1l1.4,0.8l0.1,0.1V12.4z"/>
		<g>
			<path class="st0" d="M43.7,10.7c0.2-0.1,0.3-0.3,0.3-0.4V9.1c0-0.2-0.1-0.3-0.3-0.4l-4.2-2.4c-0.2-0.1-0.4-0.1-0.5,0l-4.2,2.4
				c-0.2,0.1-0.3,0.3-0.3,0.4V14c0,0.2,0.1,0.4,0.3,0.4l4.2,2.4c0.2,0.1,0.3,0.1,0.5,0l2.5-1.4c0.1,0,0.1-0.1,0.1-0.2s0-0.2-0.1-0.2
				l-4.2-2.4c-0.1,0-0.1-0.1-0.1-0.2v-1.7c0-0.1,0-0.2,0.1-0.2l1.3-0.8c0.1,0,0.2,0,0.3,0l1.3,0.8c0.1,0,0.1,0.1,0.1,0.2v1.2
				c0,0.1,0,0.2,0.1,0.2s0.2,0,0.3,0L43.7,10.7z"/>
			<path class="st0" d="M39.2,10.4C39.2,10.4,39.3,10.4,39.2,10.4l0.9,0.5c0,0,0,0,0,0.1v0.9V12l-0.8,0.5h-0.1L38.4,12
				c0,0,0,0,0-0.1V11v-0.1L39.2,10.4z"/>
		</g>
		<g>
			<g>
				<path id="XMLID_1_" class="st0" d="M16.4,6.2c-0.2-0.1-0.3-0.1-0.5,0l-4.2,2.4c-0.2,0.1-0.3,0.3-0.3,0.4v4.8
					c0,0.2,0.1,0.3,0.3,0.4l4.2,2.4c0.2,0.1,0.3,0.1,0.5,0l4.2-2.4c0.2-0.1,0.3-0.3,0.3-0.4V9c0-0.2-0.1-0.3-0.3-0.4L16.4,6.2z"/>
			</g>
			<g>
				<defs>
					<path id="SVGID_1_" d="M16.4,6.2c-0.2-0.1-0.3-0.1-0.5,0l-4.2,2.4c-0.2,0.1-0.3,0.3-0.3,0.4v4.8c0,0.2,0.1,0.3,0.3,0.4l4.2,2.4
						c0.2,0.1,0.3,0.1,0.5,0l4.2-2.4c0.2-0.1,0.3-0.3,0.3-0.4V9c0-0.2-0.1-0.3-0.3-0.4L16.4,6.2z"/>
				</defs>
				<clipPath id="SVGID_2_">
					<use xlink:href="#SVGID_1_"  style="overflow:visible;"/>
				</clipPath>
				<g class="st1">
					<path class="st0" d="M15.9,6.2l-4.2,2.4c-0.2,0.1-0.3,0.3-0.3,0.4v4.8c0,0.1,0.1,0.2,0.1,0.3L16.2,6C16.2,6.1,16,6.1,15.9,6.2z
						"/>
					<path class="st0" d="M16.3,16.8h0.1l4.2-2.4c0.2-0.1,0.3-0.3,0.3-0.4V9.2c0-0.1-0.1-0.3-0.2-0.4L16.3,16.8z"/>
					<path class="st0" d="M20.6,8.6l-4.2-2.4c0,0-0.1,0-0.1-0.1l-4.7,8.1l0.1,0.1l4.2,2.4c0.1,0.1,0.3,0.1,0.4,0l4.4-8
						C20.7,8.7,20.7,8.6,20.6,8.6z"/>
				</g>
			</g>
			<g>
				<defs>
					<path id="SVGID_3_" d="M16.4,6.2c-0.2-0.1-0.3-0.1-0.5,0l-4.2,2.4c-0.2,0.1-0.3,0.3-0.3,0.4v4.8c0,0.2,0.1,0.3,0.3,0.4l4.2,2.4
						c0.2,0.1,0.3,0.1,0.5,0l4.2-2.4c0.2-0.1,0.3-0.3,0.3-0.4V9c0-0.2-0.1-0.3-0.3-0.4L16.4,6.2z"/>
				</defs>
				<clipPath id="SVGID_4_">
					<use xlink:href="#SVGID_3_"  style="overflow:visible;"/>
				</clipPath>
				<g class="st2">
					<path class="st0" d="M20.9,13.9V9.1c0-0.2-0.1-0.3-0.3-0.4l-4.2-2.4c0,0-0.1,0-0.2-0.1l4.6,7.9C20.9,14,20.9,13.9,20.9,13.9z"
						/>
					<path class="st0" d="M11.7,8.6c-0.2,0.1-0.3,0.3-0.3,0.4v4.8c0,0.2,0.1,0.3,0.3,0.4l4.2,2.4c0.1,0.1,0.2,0.1,0.3,0.1L11.7,8.6
						L11.7,8.6z"/>
					<path class="st0" d="M15.8,5.3h-0.1H15.8z"/>
					<path class="st0" d="M20.6,14.3c0.1-0.1,0.2-0.2,0.2-0.3l-4.6-7.9c-0.1,0-0.2,0-0.4,0.1l-4.1,2.4l4.5,8.2c0.1,0,0.1,0,0.2-0.1
						L20.6,14.3z"/>
					<path class="st0" d="M21,14.3v-0.1V14.3z"/>
					<path class="st0" d="M20.6,14.3l-4.2,2.4c-0.1,0-0.1,0.1-0.2,0.1l0.1,0.2l4.7-2.7v-0.1L20.9,14C20.9,14.1,20.8,14.3,20.6,14.3z
						"/>
					<path class="st0" d="M20.6,14.3l-4.2,2.4c-0.1,0-0.1,0.1-0.2,0.1l0.1,0.2l4.7-2.7v-0.1L20.9,14C20.9,14.1,20.8,14.3,20.6,14.3z
						"/>
				</g>
			</g>
		</g>
	</g>
</g>
</svg>
