<!-- Generator: Adobe Illustrator 22.0.1, SVG Export Plug-In  -->
<svg version="1.1"
	 xmlns="http://www.w3.org/2000/svg" xmlns:xlink="http://www.w3.org/1999/xlink" xmlns:a="http://ns.adobe.com/AdobeSVGViewerExtensions/3.0/"
	 x="0px" y="0px" width="518px" height="518px" viewBox="0 0 518 518" style="enable-background:new 0 0 518 518;"
	 xml:space="preserve">
<style type="text/css">
	.st0{fill:#2ccd6e;}
</style>
<defs>
</defs>
<g id="pr_2_">
	<g>
		<g>
			<path class="st0" d="M122.2,317.7c0,40.9,0,81.9,0,125c-17.5,0-33.4,0.8-49.1-0.7c-3.1-0.3-7.6-9.9-7.6-15.2
				c-0.4-75-0.1-150.1,0-225.1c0.1-32.6-0.2-65.3,0.7-97.9c0.1-5,6-14,9.2-14c38.3-0.1,77.1-2.5,114.7,2.8
				c57.1,8.1,88.2,48,89.8,106.2c1.5,56.4-31.4,100-86.8,111.8C171,315.3,147.9,315.3,122.2,317.7z M123.3,139.6
				c0,42.7,0,83.1,0,124.9c32.8,0.4,65.9,5.9,88.7-24.7c14.5-19.5,15-54.9,1.2-75C190.7,132.1,156.7,139.1,123.3,139.6z"/>
			<path class="st0" d="M387.1,441.9c-19.3,0-36.8,0-55.5,0c-0.6-3.7-1.6-7.5-1.6-11.2c-0.4-73.4-0.8-146.8-0.6-220.1
				c0-4.4,3.9-11.3,7.5-12.6c36.3-13.1,73.6-20.8,113.8-19.4c0,16.6,0,32.3,0,49.1c-20.7,2.3-41.4,4.6-63.6,7.1
				C387.1,304.9,387.1,372.8,387.1,441.9z"/>
		</g>
	</g>
</g>
<g>
	<path class="st0" d="M499,518H19c-10.5,0-19-8.5-19-19V19C0,8.5,8.5,0,19,0h480c10.5,0,19,8.5,19,19v480
		C518,509.5,509.5,518,499,518z M19,14c-2.8,0-5,2.2-5,5v480c0,2.8,2.2,5,5,5h480c2.7,0,5-2.3,5-5V19c0-2.8-2.2-5-5-5L19,14L19,14z"
		/>
</g>
</svg>
