<!-- Generator: Adobe Illustrator 22.0.1, SVG Export Plug-In  -->
<svg version="1.1"
	 xmlns="http://www.w3.org/2000/svg" xmlns:xlink="http://www.w3.org/1999/xlink" xmlns:a="http://ns.adobe.com/AdobeSVGViewerExtensions/3.0/"
	 x="0px" y="0px" width="518px" height="518px" viewBox="0 0 518 518" style="enable-background:new 0 0 518 518;"
	 xml:space="preserve">
<style type="text/css">
	.st0{fill:#2ccd6e;}
	.st1{fill:#2ccd6e;}
</style>
<defs>
</defs>
<g>
	<path class="st0" d="M499,518H19c-10.5,0-19-8.5-19-19V19C0,8.5,8.5,0,19,0h480c10.5,0,19,8.5,19,19v480
		C518,509.5,509.5,518,499,518z M19,14c-2.8,0-5,2.2-5,5v480c0,2.8,2.2,5,5,5h480c2.7,0,5-2.3,5-5V19c0-2.8-2.2-5-5-5L19,14L19,14z"
		/>
</g>
<g>
	<g>
		<path class="st1" d="M223.5,110.7c-20.7-12.6-43.7-16.2-67.3-16.4c-26.7-0.2-53.4,0.6-80.1,1.1c-6.7,0.1-7.6,1.3-7.6,8.1
			c0,51.9,0,103.7,0,155.6l0,0c0,52.4,0.1,104.9-0.1,157.3c0,5.5,1.8,7.7,7.5,7.5c11.7-0.3,23.4-0.1,35.1-0.1c7.7,0,8.4-0.6,8.4-8.2
			c0-33.9,0-67.8,0-101.8c0-8.3,0.9-9.5,9-8.9c18.4,1.4,36.7-0.3,54.6-4.1c24.8-5.3,47-16,62.4-36.9c22.8-31,25-65.8,15.8-101.9
			C255.6,139.9,243.1,122.6,223.5,110.7z M213.1,211.9c-2.2,21-18.7,38.5-39.1,43.9c-15.8,4.2-31.7,3.3-47.6,3.3c-5.4,0-7-3.1-7-7.9
			v-52c0,0,0,0-0.1,0c0-16.8,0-33.5,0-50.3c0-7.9,1.1-8.9,9.2-9.3c15.2-0.8,30.4-1.7,45.3,2.3c20.8,5.6,36.5,20.2,39.3,42.8
			C214.1,193.7,214,203,213.1,211.9z"/>
		<path class="st1" d="M297.6,390.8c0-6.4,0-12.9,0-19.3c0-4.4,1.7-5.9,5.7-3.3c15.1,9.6,31.9,14.1,49.6,15.8c10,1,20,0.5,29.1-4.1
			c15.6-7.8,18.9-24.8,6-36.4c-9.4-8.5-20.6-15.3-31.6-21.6c-15.2-8.7-31.1-16.2-42.9-29.8c-13.9-16.1-18.4-35.2-14.9-55.7
			c5.6-32,26.3-49.4,57.2-56.4c24.7-5.6,48.7-2.6,72.6,4.1c4.7,1.3,6.8,4,6.7,8.8c-0.1,11.9,0,23.8-0.1,35.7c0,4.5-2.4,5.7-6.5,3.4
			c-19.2-10.3-39.8-13.3-61.1-10.2c-17.3,2.5-26.7,19.6-18,32.6c3.8,5.6,9.7,10.2,15.5,13.9c9.7,6.1,20.2,10.8,30,16.8
			s19.7,12,28.4,19.4c14.6,12.5,21.9,28.9,22.1,48.4c0.3,27.4-9.4,49.5-33.9,63.4c-10.9,6.2-22.8,9.8-35.5,10.8
			c-24.1,1.8-47.9,0.9-70.7-8.7c-5.5-2.3-8.5-5.4-7.9-11.9C298,401.3,297.6,396,297.6,390.8L297.6,390.8z"/>
	</g>
</g>
</svg>
