<!-- Generator: Adobe Illustrator 22.0.1, SVG Export Plug-In  -->
<svg version="1.1"
	 xmlns="http://www.w3.org/2000/svg" xmlns:xlink="http://www.w3.org/1999/xlink" xmlns:a="http://ns.adobe.com/AdobeSVGViewerExtensions/3.0/"
	 x="0px" y="0px" width="30.7px" height="27.3px" viewBox="0 0 30.7 27.3" style="enable-background:new 0 0 30.7 27.3;"
	 xml:space="preserve">
<style type="text/css">
	.st0{fill:#2ccd6e;}
</style>
<defs>
</defs>
<g id="react_1_">
	<path class="st0" d="M24.8,4.8c-0.1,1-0.2,1.9-0.4,2.9c-0.1,0.6,0.1,0.9,0.7,1.1c1.4,0.6,2.8,1.4,4.1,2.3c2,1.4,2,3.6,0.1,5.1
		c-1.2,0.9-2.4,1.6-3.8,2.1c-0.9,0.4-1.2,0.8-0.9,1.8c0.3,1.6,0.3,3.2-0.2,4.8c-0.6,2-2.1,2.9-4,2.2c-1.5-0.6-2.9-1.5-4.2-2.5
		c-0.5-0.4-1.1-0.4-1.6,0c-1.3,1.1-2.8,1.9-4.4,2.5c-2,0.7-3.5-0.3-4-2.4c-0.4-1.6-0.3-3.3,0.1-4.9c0.1-0.7-0.1-1-0.7-1.2
		C3.9,18.1,2.3,17.2,1,16c-1.4-1.6-1.4-3.1,0-4.6c1.2-1.2,2.7-2.1,4.4-2.6c0.7-0.2,0.8-0.5,0.8-1.2C6,5.9,6,4.2,6.3,2.6
		c0.3-2.1,1.8-2.9,3.8-2.4c1.7,0.4,3.2,1.3,4.4,2.5c0.6,0.5,1,0.5,1.7,0c1.2-1,2.6-1.8,4-2.4c2.1-0.8,3.7,0.1,4.3,2.3L24.8,4.8z
		 M15.3,18.5c2.3,0.7,3.3-0.5,4.4-2.3s1.2-3.3,0-5s-1-2.5-4.3-2.4s-2.6-0.6-4.3,2.4s-1.6,1.9,0,5S13.1,19.2,15.3,18.5z M7.2,22.6
		c0.1,0.7,0.2,1.3,0.3,2c0.4,1.2,1.1,1.7,2.3,1.3c1.1-0.4,2.1-0.9,3-1.5c1.8-1.2,1.8-1.2,0.4-2.9c-0.2-0.1-0.3-0.3-0.4-0.5
		c-0.5-0.8-1.3-1.4-2.3-1.4C7.4,19.2,7.2,19.3,7.2,22.6z M8.2,13.7c-0.4-1.2-0.8-2.4-1.4-3.5c0-0.2-0.5-0.2-0.7-0.1
		c-1.3,0.6-2.7,1.2-3.9,2c-0.9,0.5-1.1,1.6-0.6,2.5c0.2,0.3,0.4,0.5,0.6,0.6c1.2,0.8,2.5,1.6,3.9,2.2c0.3,0.1,0.6,0,0.8-0.2
		C7.3,16,7.8,14.9,8.2,13.7z M7.2,4.9l0.3,2.5c0.1,0.6,0.4,0.7,1,0.7c2.2-0.2,4.1-0.8,5.2-2.9l0.2-0.3c0.4-0.4,0.4-0.7,0-1
		c-1.1-0.9-2.3-1.6-3.6-2.3C8.6,0.9,7.7,1.5,7.4,3.3S7.3,4.3,7.2,4.9z M16.3,23.1c1.2,1.4,2.8,2.3,4.6,2.8c1.1,0.3,2-0.1,2.1-1.2
		c0.1-1.6,0.2-3.3,0.1-4.9c-0.2-0.3-0.5-0.5-0.9-0.5l-2.7,0.4c-0.3,0.1-0.6,0.2-0.9,0.4C17.8,21,17.1,22,16.3,23.1z M23.4,5
		c0-0.7-0.1-1.3-0.3-2c-0.4-1.6-1.2-2.1-2.7-1.4c-1.3,0.7-2.5,1.4-3.7,2.3c-0.2,0.1-0.2,0.7-0.1,0.9c1.2,1.8,2.6,3.4,5,3.2h0.5
		c0.6,0.1,0.9-0.1,1-0.7L23.4,5z M29.4,13.7c-0.2-0.4-0.4-0.8-0.7-1.2c-1.1-1.3-2.6-2.1-4.3-2.5c-0.4,0.1-0.7,0.4-0.9,0.7
		c-1,1.8-1.4,3.7-0.1,5.5c0.1,0.2,0.1,0.4,0.2,0.6s0.5,0.8,1,0.5c1.3-0.7,2.6-1.5,3.9-2.3C28.9,14.8,29.1,14.2,29.4,13.7z
		 M19.8,18.4L22,18c0.2-0.1,0.3-0.3,0.4-0.5c-0.2-0.7-0.5-1.4-0.8-2.3L19.8,18.4z M9.2,15.5H8.9c-0.3,0.7-0.4,1.4-0.5,2.2
		c0,0.2,1.1,0.4,1.7,0.6h0.7L9.2,15.5z M20.3,9L20,9.4l1.4,2.4h0.3c0.2-0.7,0.8-1.6,0.5-2.1S21,9.2,20.3,9z M17,20.1h-3.4l1.7,2
		L17,20.1z M10.7,9.3L10.5,9C9.8,9.2,8.7,9.2,8.4,9.7s0.3,1.4,0.5,2.2h0.3L10.7,9.3z M16.8,7.3L17,7l-1.7-1.5l-1.5,1.6L14,7.3
		L16.8,7.3z"/>
	<path class="st0" d="M15.3,10.9c1.5,0,2.7,1.2,2.8,2.7c0,1.5-1.2,2.7-2.7,2.8c-1.5-0.1-2.7-1.3-2.8-2.8
		C12.6,12.1,13.8,11,15.3,10.9z"/>
</g>
</svg>
